<?xml version="1.0" encoding="UTF-8"?>
<svg width="241px" height="181px" viewBox="0 0 241 181" version="1.1" xmlns="http://www.w3.org/2000/svg" xmlns:xlink="http://www.w3.org/1999/xlink">
    <!-- Generator: Sketch 42 (36781) - http://www.bohemiancoding.com/sketch -->
    <title>how-it-works-1</title>
    <desc>Created with Sketch.</desc>
    <defs>
        <polygon id="path-1" points="240.698771 174.846233 0 174.846233 0 0.564725699 240.698771 0.564725699 240.698771 174.846233"></polygon>
        <polygon id="path-3" points="0 0.458461538 0 4.1025641 1.776725 4.1025641 3.55345 4.1025641 3.55345 0.458461538 6.77626358e-21 0.458461538"></polygon>
    </defs>
    <g id="Cold-Sign-Up-+-Profile" stroke="none" stroke-width="1" fill="none" fill-rule="evenodd">
        <g id="how-it-works-1">
            <g id="Page-1" transform="translate(0.000000, 6.000000)">
                <polygon id="Fill-1" fill="#F3FAFF" points="21.9000459 144.738761 221.587339 144.738761 221.587339 22.7049426 21.9000459 22.7049426"></polygon>
                <path d="M225.067468,173.540812 L26.9190367,174.212234 C22.5235505,174.212234 3.66585321,167.51782 3.66585321,163.139264 L3.32756881,153.616069 C3.32756881,149.239714 6.8917156,145.693282 11.2894128,145.693282 L228.901358,145.693282 C233.299055,145.693282 237.703385,147.108773 236.863202,153.616069 L235.852771,163.810687 C235.852771,168.187041 229.462954,173.540812 225.067468,173.540812" id="Fill-3" fill="#F5F5F5"></path>
                <path d="M39.5385927,1.62359224 C35.762189,1.62359224 19.5687578,7.37581318 19.5687578,11.1335786 L19.2791156,19.3095253 C19.2791156,23.0694921 22.3391523,26.11621 26.115556,26.11621 L213.014372,26.11621 C216.790776,26.11621 219.850813,23.0694921 219.850813,19.3095253 L218.981886,10.5568156 C218.981886,6.79684873 213.496372,2.2003553 209.72218,2.2003553 L39.5385927,1.62359224 Z" id="Fill-5" fill="#F5F5F5"></path>
                <g id="Group-9" transform="translate(0.000000, 0.372915)">
                    <mask id="mask-2" fill="white">
                        <use xlink:href="#path-1"></use>
                    </mask>
                    <g id="Clip-8"></g>
                    <path d="M218.734474,22.332248 C218.758795,22.1231164 218.791961,21.9470055 218.791961,21.7708947 C218.796383,20.0758276 218.836181,18.3807606 218.785328,16.687895 C218.68141,13.1854903 217.255309,10.3148833 214.445117,8.1817405 C212.331392,6.57693029 209.901493,6.00457 207.26597,6.00677139 C149.319841,6.01777831 91.3715018,6.01557693 33.4253734,6.01557693 C33.2661807,6.01557693 33.1047771,6.01337554 32.9433734,6.01557693 C27.8381532,6.11463929 23.8185385,9.04468371 22.3681165,13.7182256 C21.8640064,15.3428483 21.8839055,17.0137001 21.8971716,18.6867532 C21.9060156,19.8931126 21.8993826,21.0972706 21.8993826,22.332248 L218.734474,22.332248 Z M235.175539,147.64393 L5.52022661,147.64393 C5.52022661,150.673037 5.51138257,153.644907 5.52685963,156.61898 C5.52907064,157.074666 5.60203394,157.532555 5.68384128,157.981637 C6.93306147,164.847759 12.3876211,169.371607 19.4075752,169.371607 L221.316933,169.371607 C221.476126,169.371607 221.637529,169.373808 221.801144,169.371607 C227.37952,169.320975 232.455997,165.743723 234.348621,160.54405 C234.943383,158.910622 235.19986,157.233166 235.182172,155.496273 C235.155639,152.889832 235.175539,150.283391 235.175539,147.64393 L235.175539,147.64393 Z M21.9480248,142.138264 L218.745529,142.138264 L218.745529,27.8291082 L21.9480248,27.8291082 L21.9480248,142.138264 Z M224.270841,142.162479 L225.157456,142.162479 C229.298676,142.162479 233.439896,142.160278 237.578906,142.162479 C239.610823,142.162479 240.674318,143.22795 240.672107,145.264232 C240.669896,149.019796 240.753915,152.779763 240.63452,156.530924 C240.340456,165.862598 233.044126,173.653302 223.726933,174.676947 C222.835896,174.773808 221.936016,174.817835 221.042768,174.817835 C153.91874,174.82444 86.7902908,174.804627 19.6640523,174.846453 C10.7890615,174.850856 3.47725413,169.320975 0.965547706,161.65575 C0.308877982,159.656892 0.0280798165,157.602999 0.021446789,155.509481 C0.0126027523,152.143562 0.0700889908,148.775442 -0.000663302752,145.409523 C-0.0404614679,143.342422 1.43428165,142.092035 3.28489633,142.133861 C7.35315321,142.221917 11.4280431,142.162479 15.498511,142.162479 L16.4448229,142.162479 L16.4448229,141.048578 L16.4448229,17.1589915 C16.4448229,8.77171187 22.2133459,2.04647844 30.5488505,0.738855311 C31.2718505,0.626584638 32.0125385,0.569348609 32.7465936,0.569348609 C91.1526119,0.562744452 149.560841,0.562744452 207.969071,0.564945838 C216.116639,0.564945838 223.225034,6.87631875 224.122704,14.9113767 C224.22441,15.8425629 224.264208,16.7825546 224.266419,17.7203449 C224.273052,58.8576402 224.270841,99.9905328 224.270841,141.127828 L224.270841,142.162479 Z" id="Fill-7" fill="#E7E7E7" mask="url(#mask-2)"></path>
                </g>
                <polygon id="Fill-10" fill="#FFFFFF" points="89.2540183 62.9022462 183.16 62.9022462 183.16 33.5577743 89.2540183 33.5577743"></polygon>
                <polygon id="Fill-12" fill="#BEE4FF" points="93.1652936 43.668739 179.116064 43.668739 179.116064 37.8636848 93.1652936 37.8636848"></polygon>
                <polygon id="Fill-14" fill="#BEE4FF" points="93.1652936 51.3713877 179.116064 51.3713877 179.116064 45.5641322 93.1652936 45.5641322"></polygon>
                <polygon id="Fill-15" fill="#BEE4FF" points="93.1630826 59.0740364 123.049294 59.0740364 123.049294 53.2667809 93.1630826 53.2667809"></polygon>
                <path d="M70.5873523,60.6006974 C63.6890037,60.6006974 58.1017835,55.0355943 58.1017835,48.1694722 C58.1017835,41.3055514 63.6890037,35.7404483 70.5873523,35.7404483 C77.4834899,35.7404483 83.0707101,41.3055514 83.0707101,48.1694722 C83.0707101,55.0355943 77.4834899,60.6006974 70.5873523,60.6006974 Z" id="Fill-16" fill="#C5C5C5"></path>
                <path d="M74.3042798,45.3640262 C74.3042798,43.4003901 72.7035092,41.8087882 70.7335,41.8043854 C68.7612798,41.7999827 67.1538761,43.3959873 67.1516651,45.3596234 C67.1516651,47.3254609 68.7524358,48.9214655 70.726867,48.9214655 C72.6990872,48.9236669 74.3020688,47.3298637 74.3042798,45.3640262 M75.1334083,45.3640262 C75.1334083,47.7877519 73.1611881,49.7491866 70.726867,49.7491866 C68.2903349,49.7491866 66.3225367,47.7855505 66.3225367,45.3552206 C66.3225367,42.9380991 68.3013899,40.974463 70.731289,40.9766644 C73.1611881,40.9766644 75.1334083,42.9425019 75.1334083,45.3640262" id="Fill-17" fill="#FFFFFF"></path>
                <path d="M70.7264248,49.9988237 L75.4911495,49.9988237 C75.9775716,49.9988237 76.4175624,50.1353096 76.808911,50.4214898 C77.3284982,50.8001281 77.6402505,51.3086482 77.7331128,51.9448487 C77.7463789,52.0417097 77.7530119,52.1407721 77.7530119,52.237633 C77.7552229,52.6404866 77.7530119,53.0455416 77.7530119,53.4461938 C77.7530119,53.6289088 77.6778376,53.7675961 77.5098009,53.8490474 C77.2665899,53.9701236 76.9570486,53.8028183 76.9283055,53.5320478 C76.9238835,53.4902215 76.9216725,53.4461938 76.9216725,53.4043675 C76.9194615,52.9971111 76.9238835,52.5898547 76.9172505,52.1825984 C76.9128284,51.8501891 76.7845899,51.5574048 76.563489,51.3108496 C76.2760578,50.9894473 75.9134523,50.8265448 75.4778835,50.8265448 C72.3117183,50.8265448 69.1433422,50.8265448 65.9749661,50.8287462 C65.4111587,50.8287462 64.988856,51.0907111 64.7058468,51.5728145 C64.5820303,51.7863489 64.5311771,52.0218972 64.5333881,52.2684524 C64.5355991,52.6801116 64.5333881,53.0895693 64.5333881,53.5012284 C64.5333881,53.7103601 64.4139936,53.8644571 64.2150028,53.9172903 C63.9806358,53.9833319 63.7219477,53.8028183 63.7086817,53.5628672 C63.6998376,53.4043675 63.7020486,53.2458677 63.7020486,53.0851665 C63.7020486,52.7593614 63.6932046,52.431355 63.7086817,52.1055499 C63.7374248,51.5728145 63.9430486,51.1105235 64.3078651,50.7186769 C64.6328835,50.3686565 65.0352872,50.137511 65.5084431,50.0450528 C65.6587917,50.0164348 65.8135624,50.0010251 65.966122,50.0010251 C67.5514156,49.9966223 69.1389202,49.9988237 70.7264248,49.9988237" id="Fill-18" fill="#FFFFFF"></path>
                <polygon id="Fill-19" fill="#FFFFFF" points="89.2540183 98.1970638 183.16 98.1970638 183.16 68.8525919 89.2540183 68.8525919"></polygon>
                <polygon id="Fill-20" fill="#BEE4FF" points="93.1652936 78.9635566 179.116064 78.9635566 179.116064 73.156301 93.1652936 73.156301"></polygon>
                <polygon id="Fill-21" fill="#BEE4FF" points="93.1652936 86.6662053 154.438991 86.6662053 154.438991 80.8589497 93.1652936 80.8589497"></polygon>
                <polygon id="Fill-22" fill="#FFFFFF" points="89.2540183 133.48968 183.16 133.48968 183.16 104.145208 89.2540183 104.145208"></polygon>
                <polygon id="Fill-23" fill="#BEE4FF" points="93.1652936 114.258374 179.116064 114.258374 179.116064 108.451119 93.1652936 108.451119"></polygon>
                <polygon id="Fill-24" fill="#BEE4FF" points="93.1652936 121.958821 179.116064 121.958821 179.116064 116.153767 93.1652936 116.153767"></polygon>
                <polygon id="Fill-25" fill="#BEE4FF" points="93.1652936 129.66147 174.249633 129.66147 174.249633 123.856416 93.1652936 123.856416"></polygon>
                <polygon id="Fill-26" fill="#FFFFFF" points="58.1672294 133.478673 83.1140459 133.478673 83.1140459 68.9384459 58.1672294 68.9384459"></polygon>
            </g>
            <g id="Group-9-Copy-3" transform="translate(202.000000, 0.000000)">
                <g id="Group-11">
                    <ellipse id="Oval" stroke="#F3FAFF" fill="#6BC2FF" cx="19.5" cy="19.5" rx="19.5" ry="19.5"></ellipse>
                    <g id="Page-1" transform="translate(10.000000, 9.000000)">
                        <path d="M16.79295,5.88646154 C12.75445,10.0285128 8.69945,14.188 4.65095,18.3397949 C3.47895,17.1382564 2.30345,15.9321026 1.13695,14.7356923 L13.27845,2.28287179 C14.44095,3.47466667 15.61895,4.68287179 16.79295,5.88646154" id="Fill-1" fill="#FFFFFF"></path>
                        <path d="M14.1963,1.33569231 L15.4983,0.000307692308 C16.6643,1.19517949 17.8378,2.39928205 18.9998,3.59107692 C18.5678,4.03466667 18.1288,4.48594872 17.6983,4.92748718 C16.5398,3.73928205 15.3638,2.53364103 14.1963,1.33569231" id="Fill-3" fill="#FFFFFF"></path>
                        <g id="Group-7" transform="translate(0.000000, 15.392410)">
                            <mask id="mask-4" fill="white">
                                <use xlink:href="#path-3"></use>
                            </mask>
                            <g id="Clip-6"></g>
                            <path d="M0.39795,0.458461538 C1.45395,1.54102564 2.50045,2.61487179 3.55345,3.69435897 C2.37495,3.82974359 1.19395,3.96564103 -5.00000024e-05,4.1025641 C0.13395,2.87589744 0.26595,1.66666667 0.39795,0.458461538" id="Fill-5" fill="#FFFFFF" mask="url(#mask-4)"></path>
                        </g>
                    </g>
                </g>
            </g>
        </g>
    </g>
</svg>