<?xml version="1.0" encoding="utf-8"?>
<!-- Generator: Adobe Illustrator 21.0.2, SVG Export Plug-In . SVG Version: 6.00 Build 0)  -->
<svg version="1.1" id="Layer_1" xmlns="http://www.w3.org/2000/svg" xmlns:xlink="http://www.w3.org/1999/xlink" x="0px" y="0px"
	 viewBox="0 0 150 30" style="enable-background:new 0 0 150 30;" xml:space="preserve">
<style type="text/css">
	.st0{enable-background:new    ;}
	.st1{fill:#FFFFFF;}
</style>
<title>Logo</title>
<desc>Created with Sketch.</desc>
<g id="Cold-Sign-Up-_x2B_-Profile">
	<g id="Logo">
		<g class="st0">
			<path class="st1" d="M2.9,28.7c-0.1-0.2-0.2-0.4-0.1-0.7L8.4,2c0-0.3,0.2-0.5,0.4-0.7C9,1.1,9.2,1,9.5,1h3.9
				c0.3,0,0.5,0.1,0.6,0.3s0.2,0.4,0.1,0.7L8.6,28c-0.1,0.3-0.2,0.5-0.4,0.7C7.9,28.9,7.7,29,7.4,29H3.6C3.3,29,3,28.9,2.9,28.7z"/>
			<path class="st1" d="M14.5,28.7c-0.1-0.2-0.2-0.4-0.1-0.7l4-18.9c0.1-0.3,0.2-0.5,0.4-0.7c0.2-0.2,0.5-0.3,0.7-0.3h3.3
				c0.3,0,0.5,0.1,0.6,0.3s0.2,0.4,0.1,0.7l-0.4,1.6C24,9.8,25,9.1,26.2,8.5c1.2-0.5,2.5-0.8,3.9-0.8c2.2,0,3.9,0.5,5,1.6
				c1.2,1.1,1.7,2.6,1.7,4.6c0,0.8-0.1,1.7-0.3,2.8L34.2,28c-0.1,0.3-0.2,0.5-0.4,0.7S33.3,29,33.1,29h-3.6c-0.3,0-0.5-0.1-0.7-0.3
				c-0.1-0.2-0.2-0.4-0.1-0.7L31,17c0.2-0.9,0.3-1.6,0.3-2.1c0-1-0.3-1.7-0.8-2.1s-1.4-0.7-2.5-0.7c-1.5,0-2.8,0.4-3.8,1.3
				c-1,0.9-1.7,2.1-2.1,3.6l-2.3,11c-0.1,0.3-0.2,0.5-0.4,0.7S18.9,29,18.7,29h-3.6C14.8,29,14.6,28.9,14.5,28.7z"/>
			<path class="st1" d="M43.7,27.7c-1.1-0.8-1.6-2.1-1.6-3.8c0-0.8,0.1-1.6,0.3-2.4l2-9h-3.2c-0.3,0-0.5-0.1-0.6-0.3
				s-0.2-0.4-0.1-0.7L41,9.1c0.1-0.3,0.2-0.5,0.4-0.7s0.5-0.3,0.8-0.3h3.1l1.4-6.6c0-0.2,0.1-0.5,0.3-0.6s0.5-0.3,0.7-0.3H51
				c0.3,0,0.5,0.1,0.7,0.3c0.1,0.2,0.2,0.4,0.1,0.7l-1.4,6.6h5c0.3,0,0.5,0.1,0.6,0.3s0.2,0.4,0.1,0.7l-0.5,2.4
				c0,0.3-0.2,0.5-0.4,0.7s-0.5,0.3-0.8,0.3h-5l-1.9,8.6c-0.2,0.7-0.2,1.3-0.2,1.8c0,0.6,0.1,1,0.4,1.2c0.3,0.3,0.8,0.4,1.5,0.4h2.9
				c0.3,0,0.5,0.1,0.6,0.3c0.1,0.2,0.2,0.4,0.1,0.7L52.6,28c-0.1,0.3-0.2,0.5-0.4,0.7S51.7,29,51.4,29h-2.8
				C46.3,29,44.7,28.6,43.7,27.7z"/>
			<path class="st1" d="M59.4,27.5c-1.4-1.3-2.1-3.1-2.1-5.5c0-0.9,0.1-1.7,0.2-2.4c0-0.2,0.2-0.9,0.4-2c0.8-3,2.2-5.4,4.3-7.2
				s4.6-2.6,7.6-2.6c2.6,0,4.6,0.7,6,2c1.3,1.3,2,3.2,2,5.5c0,0.9-0.1,1.9-0.3,3l-0.2,0.8c-0.1,0.3-0.2,0.5-0.4,0.7
				s-0.5,0.3-0.8,0.3H62.9l-0.1,0.3c-0.1,0.5-0.1,0.9-0.1,1.4c0,1.1,0.3,2,0.9,2.7c0.6,0.7,1.4,1.1,2.5,1.1c1.5,0,2.9-0.6,4.1-1.8
				c0.3-0.3,0.5-0.5,0.7-0.5c0.2-0.1,0.4-0.1,0.7-0.1h3.5c0.2,0,0.4,0.1,0.6,0.2c0.1,0.2,0.2,0.4,0.1,0.6c-0.2,0.6-0.8,1.4-1.7,2.2
				c-0.9,0.9-2.2,1.6-3.7,2.2s-3.2,0.9-5.1,0.9C62.8,29.4,60.8,28.8,59.4,27.5z M72.4,16.8L72.4,16.8c0.1-0.6,0.2-1.1,0.2-1.6
				c0-1.1-0.3-2-0.9-2.7s-1.4-1-2.6-1c-1.4,0-2.5,0.5-3.5,1.4s-1.6,2.2-2,3.8v0.1H72.4z"/>
			<path class="st1" d="M79.2,28.7c-0.1-0.2-0.2-0.4-0.1-0.7l4-18.8c0.1-0.3,0.2-0.5,0.4-0.7s0.5-0.3,0.7-0.3h3.3
				c0.3,0,0.5,0.1,0.7,0.3s0.2,0.4,0.1,0.7L88,10.8c1.3-1.8,3.3-2.6,6-2.6h2c0.3,0,0.5,0.1,0.6,0.3s0.2,0.4,0.1,0.7l-0.6,2.9
				c0,0.3-0.2,0.5-0.4,0.7C95.5,12.9,95.3,13,95,13h-3.2c-1.3,0-2.3,0.4-3.2,1.1c-0.9,0.7-1.4,1.7-1.7,3l-2.3,11
				c-0.1,0.3-0.2,0.5-0.4,0.7C84,28.9,83.7,29,83.4,29h-3.6C79.6,29,79.4,28.9,79.2,28.7z"/>
			<path class="st1" d="M96,28.7c-0.1-0.2-0.2-0.4-0.1-0.7l4-18.9c0.1-0.3,0.2-0.5,0.4-0.7c0.2-0.2,0.5-0.3,0.7-0.3h3.3
				c0.3,0,0.5,0.1,0.6,0.3s0.2,0.4,0.1,0.7l-0.4,1.6c0.9-0.9,1.9-1.6,3.1-2.2c1.2-0.5,2.5-0.8,3.9-0.8c2.2,0,3.9,0.5,5,1.6
				s1.7,2.6,1.7,4.6c0,0.8-0.1,1.7-0.3,2.8L115.8,28c-0.1,0.3-0.2,0.5-0.4,0.7s-0.5,0.3-0.7,0.3h-3.6c-0.3,0-0.5-0.1-0.7-0.3
				c-0.1-0.2-0.2-0.4-0.1-0.7l2.3-11c0.2-0.9,0.3-1.6,0.3-2.1c0-1-0.3-1.7-0.8-2.1c-0.5-0.5-1.4-0.7-2.5-0.7c-1.5,0-2.8,0.4-3.8,1.3
				c-1,0.9-1.7,2.1-2.1,3.6l-2.3,11c-0.1,0.3-0.2,0.5-0.4,0.7s-0.5,0.3-0.7,0.3h-3.6C96.4,29,96.2,28.9,96,28.7z"/>
			<path class="st1" d="M119.1,28.8c-0.1-0.1-0.2-0.3-0.2-0.5s0.1-0.4,0.2-0.6l12.1-13.1L125,2.3c-0.1-0.2-0.1-0.3-0.1-0.4
				c0-0.2,0.1-0.4,0.3-0.6c0.2-0.2,0.4-0.2,0.7-0.2h3.7c0.4,0,0.7,0.1,0.8,0.2c0.2,0.1,0.3,0.3,0.4,0.5l4.4,8.7l7.8-8.7
				c0,0,0.1-0.1,0.2-0.3c0.1-0.1,0.3-0.3,0.5-0.4C144,1,144.3,1,144.6,1h4c0.2,0,0.4,0.1,0.5,0.2s0.2,0.3,0.2,0.5s-0.1,0.4-0.2,0.6
				l-11.5,13.1l6.3,12.4c0.1,0.1,0.1,0.2,0.1,0.4c0,0.2-0.1,0.4-0.3,0.6S143.3,29,143,29h-3.6c-0.4,0-0.7-0.1-0.8-0.2
				c-0.2-0.1-0.3-0.3-0.4-0.5l-4.4-8.7l-8.1,8.7c-0.1,0-0.2,0.2-0.4,0.4c-0.2,0.2-0.6,0.3-1.1,0.3h-4.4
				C119.4,29,119.3,28.9,119.1,28.8z"/>
		</g>
	</g>
</g>
</svg>
