<?xml version="1.0" encoding="UTF-8"?>
<svg width="147px" height="29px" viewBox="0 0 147 29" version="1.1" xmlns="http://www.w3.org/2000/svg" xmlns:xlink="http://www.w3.org/1999/xlink">
    <!-- Generator: Sketch 42 (36781) - http://www.bohemiancoding.com/sketch -->
    <title>logo-green</title>
    <desc>Created with Sketch.</desc>
    <defs></defs>
    <g id="Cold-Sign-Up-+-Profile" stroke="none" stroke-width="1" fill="none" fill-rule="evenodd">
        <g id="logo-green" fill="#7ED97A">
            <path d="M0.161333563,28.12 C0.0146661628,27.9333324 -0.0320000372,27.706668 0.0213335628,27.44 L5.62133356,1.36 C5.64800036,1.093332 5.77466576,0.8666676 6.00133356,0.68 C6.22800136,0.4933324 6.47466556,0.4 6.74133356,0.4 L10.6213336,0.4 C10.8880016,0.4 11.0946662,0.4933324 11.2413336,0.68 C11.388001,0.8666676 11.4346672,1.093332 11.3813336,1.36 L5.82133356,27.44 C5.76799996,27.706668 5.63466796,27.9333324 5.42133356,28.12 C5.20799916,28.3066676 4.96800156,28.4 4.70133356,28.4 L0.821333563,28.4 C0.527998763,28.4 0.308000963,28.3066676 0.161333563,28.12 Z M11.7213336,28.12 C11.5746662,27.9333324 11.528,27.706668 11.5813336,27.44 L15.6213336,8.56 C15.6746672,8.2666652 15.8146658,8.0333342 16.0413336,7.86 C16.2680014,7.6866658 16.5146656,7.6 16.7813336,7.6 L20.1013336,7.6 C20.3946684,7.6 20.6079996,7.6933324 20.7413336,7.88 C20.8746676,8.0666676 20.9146672,8.293332 20.8613336,8.56 L20.5013336,10.2 C21.381338,9.2933288 22.4079944,8.5666694 23.5813336,8.02 C24.7546728,7.4733306 26.0479932,7.2 27.4613336,7.2 C29.6480112,7.2 31.3213278,7.7466612 32.4813336,8.84 C33.6413394,9.9333388 34.2213336,11.4666568 34.2213336,13.44 C34.2213336,14.2133372 34.114668,15.133328 33.9013336,16.2 L31.5013336,27.44 C31.448,27.7333348 31.3080014,27.9666658 31.0813336,28.14 C30.8546658,28.3133342 30.6080016,28.4 30.3413336,28.4 L26.7813336,28.4 C26.4879988,28.4 26.268001,28.3066676 26.1213336,28.12 C25.9746662,27.9333324 25.928,27.706668 25.9813336,27.44 L28.3013336,16.44 C28.4880012,15.506662 28.5813336,14.8133356 28.5813336,14.36 C28.5813336,13.3999952 28.3213362,12.686669 27.8013336,12.22 C27.281331,11.753331 26.448006,11.52 25.3013336,11.52 C23.8079928,11.52 22.5413388,11.953329 21.5013336,12.82 C20.4613284,13.686671 19.768002,14.8933256 19.4213336,16.44 L17.1013336,27.44 C17.048,27.7333348 16.9080014,27.9666658 16.6813336,28.14 C16.4546658,28.3133342 16.2080016,28.4 15.9413336,28.4 L12.3813336,28.4 C12.0879988,28.4 11.868001,28.3066676 11.7213336,28.12 Z M41.2013336,27.14 C40.147995,26.2999958 39.6213336,25.0400084 39.6213336,23.36 C39.6213336,22.559996 39.714666,21.7466708 39.9013336,20.92 L41.8613336,11.88 L38.7013336,11.88 C38.4079988,11.88 38.1946676,11.7866676 38.0613336,11.6 C37.9279996,11.4133324 37.888,11.186668 37.9413336,10.92 L38.4213336,8.56 C38.4746672,8.293332 38.6146658,8.0666676 38.8413336,7.88 C39.0680014,7.6933324 39.3279988,7.6 39.6213336,7.6 L42.7413336,7.6 L44.1813336,0.96 C44.2346672,0.6666652 44.3679992,0.4333342 44.5813336,0.26 C44.794668,0.0866658 45.0346656,0 45.3013336,0 L48.6213336,0 C48.9146684,0 49.1346662,0.0933324 49.2813336,0.28 C49.428001,0.4666676 49.4746672,0.693332 49.4213336,0.96 L47.9813336,7.6 L52.9813336,7.6 C53.2746684,7.6 53.4879996,7.6933324 53.6213336,7.88 C53.7546676,8.0666676 53.7946672,8.293332 53.7413336,8.56 L53.2213336,10.92 C53.1946668,11.186668 53.0680014,11.4133324 52.8413336,11.6 C52.6146658,11.7866676 52.3546684,11.88 52.0613336,11.88 L47.1013336,11.88 L45.2213336,20.48 C45.0613328,21.2000036 44.9813336,21.8133308 44.9813336,22.32 C44.9813336,22.8800028 45.1279988,23.293332 45.4213336,23.56 C45.7146684,23.826668 46.22133,23.96 46.9413336,23.96 L49.8613336,23.96 C50.1546684,23.96 50.3679996,24.0533324 50.5013336,24.24 C50.6346676,24.4266676 50.6746672,24.653332 50.6213336,24.92 L50.1013336,27.44 C50.048,27.7333348 49.9080014,27.9666658 49.6813336,28.14 C49.4546658,28.3133342 49.2080016,28.4 48.9413336,28.4 L46.1013336,28.4 C43.8879892,28.4 42.2546722,27.9800042 41.2013336,27.14 Z M56.9413336,26.88 C55.55466,25.5999936 54.8613336,23.7733452 54.8613336,21.4 C54.8613336,20.4933288 54.9279996,19.6800036 55.0613336,18.96 C55.0880004,18.7733324 55.2346656,18.1066724 55.5013336,16.96 C56.2746708,13.9199848 57.721323,11.533342 59.8413336,9.8 C61.9613442,8.066658 64.4879856,7.2 67.4213336,7.2 C70.0613468,7.2 72.0546602,7.8733266 73.4013336,9.22 C74.748007,10.5666734 75.4213336,12.4133216 75.4213336,14.76 C75.4213336,15.6400044 75.314668,16.6399944 75.1013336,17.76 L74.9013336,18.6 C74.848,18.866668 74.7080014,19.0933324 74.4813336,19.28 C74.2546658,19.4666676 73.9946684,19.56 73.7013336,19.56 L60.4613336,19.56 L60.3813336,19.88 C60.3013332,20.3600024 60.2613336,20.8133312 60.2613336,21.24 C60.2613336,22.3600056 60.5479974,23.2733298 61.1213336,23.98 C61.6946698,24.6866702 62.5279948,25.04 63.6213336,25.04 C65.1413412,25.04 66.5146608,24.4266728 67.7413336,23.2 C68.0346684,22.9066652 68.2613328,22.726667 68.4213336,22.66 C68.5813344,22.593333 68.821332,22.56 69.1413336,22.56 L72.6613336,22.56 C72.9013348,22.56 73.0879996,22.6399992 73.2213336,22.8 C73.3546676,22.9600008 73.3946672,23.1599988 73.3413336,23.4 C73.154666,24.0400032 72.588005,24.7866624 71.6413336,25.64 C70.6946622,26.4933376 69.4546746,27.2333302 67.9213336,27.86 C66.3879926,28.4866698 64.7013428,28.8 62.8613336,28.8 C60.3013208,28.8 58.3280072,28.1600064 56.9413336,26.88 Z M69.9413336,16.16 L69.9413336,16.08 C70.0480008,15.5733308 70.1013336,15.053336 70.1013336,14.52 C70.1013336,13.3999944 69.8080032,12.5133366 69.2213336,11.86 C68.634664,11.2066634 67.7813392,10.88 66.6613336,10.88 C65.3013268,10.88 64.1280052,11.3533286 63.1413336,12.3 C62.154662,13.2466714 61.5013352,14.5066588 61.1813336,16.08 L61.1813336,16.16 L69.9413336,16.16 Z M76.7613336,28.12 C76.6146662,27.9333324 76.568,27.706668 76.6213336,27.44 L80.6613336,8.6 C80.7146672,8.3066652 80.8546658,8.0666676 81.0813336,7.88 C81.3080014,7.6933324 81.5546656,7.6 81.8213336,7.6 L85.1013336,7.6 C85.3946684,7.6 85.6146662,7.699999 85.7613336,7.9 C85.908001,8.100001 85.9546672,8.333332 85.9013336,8.6 L85.5413336,10.24 C86.8746736,8.4799912 88.8746536,7.6 91.5413336,7.6 L93.5413336,7.6 C93.8346684,7.6 94.0479996,7.6933324 94.1813336,7.88 C94.3146676,8.0666676 94.3546672,8.293332 94.3013336,8.56 L93.6613336,11.48 C93.6346668,11.746668 93.5080014,11.9733324 93.2813336,12.16 C93.0546658,12.3466676 92.7946684,12.44 92.5013336,12.44 L89.3413336,12.44 C88.087994,12.44 87.0280046,12.7999964 86.1613336,13.52 C85.2946626,14.2400036 84.7280016,15.2266604 84.4613336,16.48 L82.1413336,27.44 C82.088,27.706668 81.9480014,27.9333324 81.7213336,28.12 C81.4946658,28.3066676 81.2480016,28.4 80.9813336,28.4 L77.4213336,28.4 C77.1279988,28.4 76.908001,28.3066676 76.7613336,28.12 Z M93.5613336,28.12 C93.4146662,27.9333324 93.368,27.706668 93.4213336,27.44 L97.4613336,8.56 C97.5146672,8.2666652 97.6546658,8.0333342 97.8813336,7.86 C98.1080014,7.6866658 98.3546656,7.6 98.6213336,7.6 L101.941334,7.6 C102.234668,7.6 102.448,7.6933324 102.581334,7.88 C102.714668,8.0666676 102.754667,8.293332 102.701334,8.56 L102.341334,10.2 C103.221338,9.2933288 104.247994,8.5666694 105.421334,8.02 C106.594673,7.4733306 107.887993,7.2 109.301334,7.2 C111.488011,7.2 113.161328,7.7466612 114.321334,8.84 C115.481339,9.9333388 116.061334,11.4666568 116.061334,13.44 C116.061334,14.2133372 115.954668,15.133328 115.741334,16.2 L113.341334,27.44 C113.288,27.7333348 113.148001,27.9666658 112.921334,28.14 C112.694666,28.3133342 112.448002,28.4 112.181334,28.4 L108.621334,28.4 C108.327999,28.4 108.108001,28.3066676 107.961334,28.12 C107.814666,27.9333324 107.768,27.706668 107.821334,27.44 L110.141334,16.44 C110.328001,15.506662 110.421334,14.8133356 110.421334,14.36 C110.421334,13.3999952 110.161336,12.686669 109.641334,12.22 C109.121331,11.753331 108.288006,11.52 107.141334,11.52 C105.647993,11.52 104.381339,11.953329 103.341334,12.82 C102.301328,13.686671 101.608002,14.8933256 101.261334,16.44 L98.9413336,27.44 C98.888,27.7333348 98.7480014,27.9666658 98.5213336,28.14 C98.2946658,28.3133342 98.0480016,28.4 97.7813336,28.4 L94.2213336,28.4 C93.9279988,28.4 93.708001,28.3066676 93.5613336,28.12 Z M116.661334,28.18 C116.528,28.0333326 116.461334,27.8533344 116.461334,27.64 C116.461334,27.3999988 116.528,27.213334 116.661334,27.08 L128.741334,14 L122.581334,1.68 C122.501333,1.5199992 122.461334,1.373334 122.461334,1.24 C122.461334,0.9999988 122.547999,0.8000008 122.721334,0.64 C122.894668,0.4799992 123.114666,0.4 123.381334,0.4 L127.061334,0.4 C127.461336,0.4 127.741333,0.4733326 127.901334,0.62 C128.061334,0.7666674 128.194666,0.9466656 128.301334,1.16 L132.701334,9.88 L140.541334,1.16 C140.568,1.1333332 140.648,1.0466674 140.781334,0.9 C140.914668,0.7533326 141.094666,0.6333338 141.321334,0.54 C141.548001,0.4466662 141.807999,0.4 142.101334,0.4 L146.141334,0.4 C146.354668,0.4 146.534666,0.4733326 146.681334,0.62 C146.828001,0.7666674 146.901334,0.9466656 146.901334,1.16 C146.901334,1.3733344 146.821334,1.5599992 146.661334,1.72 L135.141334,14.8 L141.421334,27.16 C141.474667,27.2400004 141.501334,27.3733324 141.501334,27.56 C141.501334,27.8000012 141.414668,27.9999992 141.241334,28.16 C141.067999,28.3200008 140.848002,28.4 140.581334,28.4 L136.941334,28.4 C136.541332,28.4 136.261334,28.333334 136.101334,28.2 C135.941333,28.066666 135.794668,27.8933344 135.661334,27.68 L131.221334,18.96 L123.141334,27.68 C123.088,27.7066668 122.948001,27.8333322 122.721334,28.06 C122.494666,28.2866678 122.128003,28.4 121.621334,28.4 L117.221334,28.4 C116.981332,28.4 116.794668,28.3266674 116.661334,28.18 Z" id="InternX"></path>
        </g>
    </g>
</svg>