<?xml version="1.0" encoding="UTF-8"?>
<svg width="22px" height="21px" viewBox="0 0 22 21" version="1.1" xmlns="http://www.w3.org/2000/svg" xmlns:xlink="http://www.w3.org/1999/xlink">
    <!-- Generator: Sketch 42 (36781) - http://www.bohemiancoding.com/sketch -->
    <title>phone</title>
    <desc>Created with Sketch.</desc>
    <defs></defs>
    <g id="Cold-Sign-Up-+-Profile" stroke="none" stroke-width="1" fill="none" fill-rule="evenodd">
        <g id="phone">
            <ellipse id="Oval-2" fill="#7ED97A" cx="11" cy="10.3669921" rx="11" ry="10.3669921"></ellipse>
            <path d="M8.18963957,5.5500225 C8.04168352,5.55277261 7.64566732,5.73317999 7.21444968,6.13029624 C6.80468292,6.50761167 6.55057252,6.91737843 6.55057252,7.20009 C6.55057252,10.9011914 11.0959585,15.4504275 14.7932097,15.4504275 C15.0753712,15.4504275 15.485138,15.194667 15.8624534,14.7832502 C16.2601197,14.3498325 16.4405271,13.9516162 16.4432772,13.8036601 C16.4256765,13.6991558 16.1363646,13.2926892 15.3448823,12.6832643 C14.6639544,12.1596429 14.1128319,11.8785814 13.9709261,11.8752812 C13.9610256,11.8780313 13.8994231,11.9016823 13.774568,12.0600888 C13.6662136,12.1981444 13.5501588,12.3868022 13.4374042,12.5694096 C13.1288416,13.0704801 12.8384297,13.5440495 12.4154624,13.5440495 C12.3472596,13.5440495 12.2801569,13.530849 12.2158043,13.5049979 C10.7719952,12.9274743 9.06472536,11.2202044 8.48720174,9.77639538 C8.41789891,9.60313829 8.40689846,9.33142718 8.7479124,9.02176451 C8.92941983,8.85785781 9.18023009,8.70385151 9.42334003,8.55424539 C9.6059475,8.4420408 9.79515524,8.32598605 9.93266087,8.2170816 C10.0910673,8.09222649 10.1147183,8.03062397 10.1174684,8.02072356 C10.1136183,7.87881776 9.83310679,7.32714519 9.30948538,6.64676736 C8.70006045,5.85528499 8.2930438,5.56652317 8.18908955,5.54837243 L8.18963957,5.5500225 Z M14.7932097,16.00045 C13.8185698,16.00045 12.7828775,15.7243387 11.7130837,15.1798164 C10.7268934,14.6776459 9.75280351,13.9587665 8.89586846,13.1012814 C8.0389334,12.2426963 7.32115404,11.2675064 6.81953352,10.280766 C6.27611129,9.21042223 6,8.17417984 6,7.20009 C6,6.56866417 6.58852407,5.95868922 6.8409844,5.7260297 C7.20454927,5.391066 7.77657267,5 8.19238968,5 C8.39919814,5 8.64120804,5.13530553 8.95527089,5.42571741 C9.18848043,5.64242628 9.45249123,5.93613829 9.71540198,6.27495215 C9.87435848,6.47956052 10.6674909,7.52405325 10.6674909,8.02512374 C10.6674909,8.43599055 10.2027219,8.72200225 9.7110018,9.0239646 C9.52069402,9.14056937 9.32433598,9.26157432 9.18243018,9.37542898 C9.03062397,9.49698395 9.00312284,9.56133658 8.99927269,9.57563717 C9.52124404,10.8769904 11.1168593,12.4726057 12.4176625,12.994027 C12.429213,12.9901768 12.4935656,12.9648758 12.6173207,12.8108695 C12.7311753,12.6689637 12.8521803,12.4720556 12.968235,12.2822979 C13.2712974,11.7905778 13.5567591,11.3258088 13.9676259,11.3258088 C14.4686964,11.3258088 15.5126391,12.1183912 15.7177975,12.2773477 C16.0566114,12.5408085 16.3503234,12.8042692 16.5664822,13.0380288 C16.8574441,13.3515416 16.9927497,13.5941015 16.9927497,13.80091 C16.9927497,14.216727 16.6016837,14.7904005 16.26727,15.1556154 C16.0340604,15.4097258 15.4240855,16.001 14.7926597,16.001 L14.7932097,16.00045 Z" id="Fill-1" fill="#464646"></path>
        </g>
    </g>
</svg>