<?xml version="1.0" encoding="UTF-8"?>
<svg width="161px" height="36px" viewBox="0 0 161 36" version="1.1" xmlns="http://www.w3.org/2000/svg" xmlns:xlink="http://www.w3.org/1999/xlink">
    <!-- Generator: Sketch 42 (36781) - http://www.bohemiancoding.com/sketch -->
    <title>arrow-blue</title>
    <desc>Created with Sketch.</desc>
    <defs>
        <polygon id="path-1" points="172.607235 38.2756363 172.607235 0.000285563532 0 0.000285563532 0 38.2756363 172.607235 38.2756363"></polygon>
    </defs>
    <g id="Cold-Sign-Up-+-Profile" stroke="none" stroke-width="1" fill="none" fill-rule="evenodd">
        <g id="arrow-blue">
            <g id="arrow" transform="translate(-9.000000, -1.000000)">
                <mask id="mask-2" fill="white">
                    <use xlink:href="#path-1"></use>
                </mask>
                <g id="Clip-2"></g>
                <path d="M160.593366,21.560361 L12.2431851,21.560361 C11.0059114,21.560361 10.0135873,20.7588665 9.72966847,19.5417298 C9.45966724,18.3855918 10.0080203,17.1854779 11.0560147,16.6308154 C11.5375633,16.3768906 12.0566894,16.3414262 12.5813825,16.3414262 C23.9784964,16.3414262 149.207386,16.3414262 160.603108,16.3385891 C160.743676,16.3385891 160.892594,16.385402 161.052646,16.2846832 C160.152178,15.3101227 159.261452,14.3440736 158.369335,13.3794431 C156.046489,10.8685666 153.72086,8.36336444 151.403582,5.84681366 C150.150998,4.48640093 150.716053,2.10035898 152.408431,1.66769383 C153.513488,1.38397897 154.54339,1.66060096 155.324166,2.50039693 C159.813981,7.33206094 164.27596,12.1892593 168.757424,17.0280162 C169.695469,18.0422968 169.893099,19.6821686 168.82562,20.8127723 C166.91891,22.8328221 165.052561,24.8954291 163.166728,26.9381761 C160.555788,29.7668132 157.953199,32.6039618 155.325558,35.4184132 C154.514163,36.2879992 153.478694,36.5504354 152.343019,36.2397677 C151.253272,35.9418671 150.635331,34.7984962 150.817651,33.5288722 C150.910899,32.8706538 151.175333,32.3060612 151.627655,31.8180716 C154.238594,29.0064574 156.842575,26.1877503 159.44934,23.3690432 C159.982384,22.793102 160.514035,22.2171609 161.120842,21.560361 L160.593366,21.560361 Z" id="Fill-1" fill="#6BC2FF" mask="url(#mask-2)"></path>
            </g>
        </g>
    </g>
</svg>