<?xml version="1.0" encoding="UTF-8"?>
<svg width="22px" height="21px" viewBox="0 0 22 21" version="1.1" xmlns="http://www.w3.org/2000/svg" xmlns:xlink="http://www.w3.org/1999/xlink">
    <!-- Generator: Sketch 42 (36781) - http://www.bohemiancoding.com/sketch -->
    <title>email</title>
    <desc>Created with Sketch.</desc>
    <defs></defs>
    <g id="Cold-Sign-Up-+-Profile" stroke="none" stroke-width="1" fill="none" fill-rule="evenodd">
        <g id="email">
            <g id="Group">
                <ellipse id="Oval-2-Copy" fill="#7ED97A" cx="11" cy="10.3669921" rx="11" ry="10.3669921"></ellipse>
                <g id="Page-1-Copy" transform="translate(6.000000, 7.000000)" fill="#464646">
                    <path d="M9.15686713,5.84824525 L9.15686713,1.0848347 C8.43099898,1.86928525 7.71512312,2.64305181 6.99603544,3.42010576 C7.71762119,4.23085533 8.43206958,5.03379738 9.15686713,5.84824525 L9.15686713,5.84824525 Z M0.63094974,5.85029986 C1.36038656,5.03051 2.0766193,4.22551334 2.79677757,3.41599654 C2.07519183,2.63894259 1.35788849,1.86681971 0.63094974,1.08360193 L0.63094974,5.85029986 Z M6.5410296,3.91074691 C6.20914298,4.26824925 5.88582118,4.62123145 5.55821697,4.96804982 C5.19171422,5.35678225 4.643566,5.36910992 4.26635723,4.99517069 C4.08578237,4.81600859 3.91591352,4.62328606 3.74176226,4.4354946 C3.57903076,4.26044173 3.41665612,4.08456701 3.25214028,3.90663769 C2.56695501,4.67834964 1.88640901,5.44513053 1.19444325,6.22382817 L8.59515795,6.22382817 C7.90354907,5.44554146 7.22443054,4.68040425 6.5410296,3.91074691 L6.5410296,3.91074691 Z M1.22192204,0.7244559 C1.24511842,0.754042301 1.25903624,0.773766568 1.27545214,0.791436224 C2.19081684,1.77806051 3.10689528,2.76427387 4.02261685,3.75089816 C4.22995677,3.97443986 4.43658295,4.1988034 4.64427974,4.42152325 C4.81057991,4.5998635 4.98401744,4.5998635 5.15067448,4.42275601 C5.19492603,4.37591088 5.23882071,4.3282439 5.28271539,4.28098784 C6.36116846,3.11725607 7.43962154,1.9535243 8.51807461,0.790203458 C8.53377677,0.772944724 8.54840833,0.754453223 8.57338904,0.7244559 L1.22192204,0.7244559 Z M4.89301627,6.95280421 L0.997095621,6.95280421 C0.408621393,6.95280421 0.00357697316,6.49626961 0.00214950384,5.81906977 C-0.00106230213,4.25715435 -0.000348567474,2.69482802 0.00214950384,1.1329126 C0.0028632385,0.568305451 0.290141439,0.145055549 0.746217888,0.026299023 C0.820446292,0.00698567799 0.898957105,0.0012327667 0.975326714,0.0012327667 C3.58224256,0 6.18915841,0 8.79571739,0 C9.37955234,0 9.78566737,0.455301836 9.7874517,1.1292143 C9.79066351,2.69359525 9.78994977,4.25838712 9.7874517,5.82276807 C9.7863811,6.38408784 9.4980323,6.80692682 9.04659512,6.92445058 C8.97236672,6.94417485 8.89421277,6.95157145 8.81784317,6.95157145 C7.50956753,6.95280421 6.2012919,6.95280421 4.89301627,6.95280421 L4.89301627,6.95280421 Z" id="Fill-1"></path>
                </g>
            </g>
        </g>
    </g>
</svg>