<?xml version="1.0" encoding="utf-8"?>
<!-- Generator: Adobe Illustrator 21.0.2, SVG Export Plug-In . SVG Version: 6.00 Build 0)  -->
<svg version="1.1" id="Layer_1" xmlns="http://www.w3.org/2000/svg" xmlns:xlink="http://www.w3.org/1999/xlink" x="0px" y="0px"
	 viewBox="0 0 226 68" style="enable-background:new 0 0 226 68;" xml:space="preserve">
<style type="text/css">
	.st0{fill:#FFFFFF;}
	.st1{filter:url(#filter-2);}
	.st2{fill:url(#SVGID_1_);}
	.st3{fill:url(#SVGID_2_);}
</style>
<filter  filterUnits="objectBoundingBox" height="200%" id="filter-2" width="200%" x="-50%" y="-50%">
	<feOffset  dx="0" dy="2" in="SourceAlpha" result="shadowOffsetOuter1"></feOffset>
	<feGaussianBlur  in="shadowOffsetOuter1" result="shadowBlurOuter1" stdDeviation="2.5"></feGaussianBlur>
	<feColorMatrix  in="shadowBlurOuter1" type="matrix" values="0 0 0 0 0   0 0 0 0 0   0 0 0 0 0  0 0 0 0.163920969 0">
		</feColorMatrix>
</filter>
<title>new-logo</title>
<desc>Created with Sketch.</desc>
<g id="Cold-Sign-Up-_x2B_-Profile_1_">
	<g id="new-logo">
		<g id="Group-2" transform="translate(11.000000, 9.000000)">
			<g id="logo-and-logomark">
				<g id="Layer_1_1_">
					<g id="Cold-Sign-Up-_x2B_-Profile" transform="translate(67.000000, 9.000000)">
						<g id="Logo">
							<g id="Group">
								<path id="Shape" class="st0" d="M0.9,28.7c-0.1-0.2-0.2-0.4-0.1-0.7L6.4,2c0-0.3,0.2-0.5,0.4-0.7C7,1.1,7.2,1,7.5,1h3.9
									c0.3,0,0.5,0.1,0.6,0.3s0.2,0.4,0.1,0.7L6.6,28c-0.1,0.3-0.2,0.5-0.4,0.7C5.9,28.9,5.7,29,5.4,29H1.6
									C1.3,29,1,28.9,0.9,28.7z"/>
								<path id="Shape_1_" class="st0" d="M12.5,28.7c-0.1-0.2-0.2-0.4-0.1-0.7l4-18.9c0.1-0.3,0.2-0.5,0.4-0.7
									c0.2-0.2,0.5-0.3,0.7-0.3h3.3c0.3,0,0.5,0.1,0.6,0.3c0.1,0.2,0.2,0.4,0.1,0.7l-0.4,1.6C22,9.8,23,9.1,24.2,8.5
									c1.2-0.5,2.5-0.8,3.9-0.8c2.2,0,3.9,0.5,5,1.6c1.2,1.1,1.7,2.6,1.7,4.6c0,0.8-0.1,1.7-0.3,2.8L32.2,28
									c-0.1,0.3-0.2,0.5-0.4,0.7c-0.2,0.2-0.5,0.3-0.7,0.3h-3.6c-0.3,0-0.5-0.1-0.7-0.3c-0.1-0.2-0.2-0.4-0.1-0.7L29,17
									c0.2-0.9,0.3-1.6,0.3-2.1c0-1-0.3-1.7-0.8-2.1c-0.5-0.4-1.4-0.7-2.5-0.7c-1.5,0-2.8,0.4-3.8,1.3c-1,0.9-1.7,2.1-2.1,3.6
									l-2.3,11c-0.1,0.3-0.2,0.5-0.4,0.7c-0.2,0.2-0.5,0.3-0.7,0.3h-3.6C12.8,29,12.6,28.9,12.5,28.7z"/>
								<path id="Shape_2_" class="st0" d="M41.7,27.7c-1.1-0.8-1.6-2.1-1.6-3.8c0-0.8,0.1-1.6,0.3-2.4l2-9h-3.2
									c-0.3,0-0.5-0.1-0.6-0.3c-0.1-0.2-0.2-0.4-0.1-0.7L39,9.1c0.1-0.3,0.2-0.5,0.4-0.7c0.2-0.2,0.5-0.3,0.8-0.3h3.1l1.4-6.6
									c0-0.2,0.1-0.5,0.3-0.6s0.5-0.3,0.7-0.3H49c0.3,0,0.5,0.1,0.7,0.3c0.1,0.2,0.2,0.4,0.1,0.7l-1.4,6.6h5
									c0.3,0,0.5,0.1,0.6,0.3s0.2,0.4,0.1,0.7l-0.5,2.4c0,0.3-0.2,0.5-0.4,0.7s-0.5,0.3-0.8,0.3h-5l-1.9,8.6
									c-0.2,0.7-0.2,1.3-0.2,1.8c0,0.6,0.1,1,0.4,1.2c0.3,0.3,0.8,0.4,1.5,0.4h2.9c0.3,0,0.5,0.1,0.6,0.3c0.1,0.2,0.2,0.4,0.1,0.7
									L50.6,28c-0.1,0.3-0.2,0.5-0.4,0.7C50,28.9,49.7,29,49.4,29h-2.8C44.3,29,42.7,28.6,41.7,27.7z"/>
								<path id="Shape_3_" class="st0" d="M57.4,27.5c-1.4-1.3-2.1-3.1-2.1-5.5c0-0.9,0.1-1.7,0.2-2.4c0-0.2,0.2-0.9,0.4-2
									c0.8-3,2.2-5.4,4.3-7.2c2.1-1.8,4.6-2.6,7.6-2.6c2.6,0,4.6,0.7,6,2c1.3,1.3,2,3.2,2,5.5c0,0.9-0.1,1.9-0.3,3l-0.2,0.8
									c-0.1,0.3-0.2,0.5-0.4,0.7c-0.2,0.2-0.5,0.3-0.8,0.3H60.9l-0.1,0.3c-0.1,0.5-0.1,0.9-0.1,1.4c0,1.1,0.3,2,0.9,2.7
									c0.6,0.7,1.4,1.1,2.5,1.1c1.5,0,2.9-0.6,4.1-1.8c0.3-0.3,0.5-0.5,0.7-0.5c0.2-0.1,0.4-0.1,0.7-0.1h3.5
									c0.2,0,0.4,0.1,0.6,0.2c0.1,0.2,0.2,0.4,0.1,0.6c-0.2,0.6-0.8,1.4-1.7,2.2c-0.9,0.9-2.2,1.6-3.7,2.2s-3.2,0.9-5.1,0.9
									C60.8,29.4,58.8,28.8,57.4,27.5z M70.4,16.8L70.4,16.8c0.1-0.6,0.2-1.1,0.2-1.6c0-1.1-0.3-2-0.9-2.7c-0.6-0.7-1.4-1-2.6-1
									c-1.4,0-2.5,0.5-3.5,1.4c-1,0.9-1.6,2.2-2,3.8v0.1H70.4z"/>
								<path id="Shape_4_" class="st0" d="M77.2,28.7c-0.1-0.2-0.2-0.4-0.1-0.7l4-18.8c0.1-0.3,0.2-0.5,0.4-0.7s0.5-0.3,0.7-0.3
									h3.3c0.3,0,0.5,0.1,0.7,0.3c0.2,0.2,0.2,0.4,0.1,0.7L86,10.8c1.3-1.8,3.3-2.6,6-2.6h2c0.3,0,0.5,0.1,0.6,0.3
									s0.2,0.4,0.1,0.7l-0.6,2.9c0,0.3-0.2,0.5-0.4,0.7C93.5,12.9,93.3,13,93,13h-3.2c-1.3,0-2.3,0.4-3.2,1.1
									c-0.9,0.7-1.4,1.7-1.7,3l-2.3,11c-0.1,0.3-0.2,0.5-0.4,0.7C82,28.9,81.7,29,81.4,29h-3.6C77.6,29,77.4,28.9,77.2,28.7z"/>
								<path id="Shape_5_" class="st0" d="M94,28.7c-0.1-0.2-0.2-0.4-0.1-0.7l4-18.9c0.1-0.3,0.2-0.5,0.4-0.7
									c0.2-0.2,0.5-0.3,0.7-0.3h3.3c0.3,0,0.5,0.1,0.6,0.3c0.1,0.2,0.2,0.4,0.1,0.7l-0.4,1.6c0.9-0.9,1.9-1.6,3.1-2.2
									c1.2-0.5,2.5-0.8,3.9-0.8c2.2,0,3.9,0.5,5,1.6s1.7,2.6,1.7,4.6c0,0.8-0.1,1.7-0.3,2.8L113.8,28c-0.1,0.3-0.2,0.5-0.4,0.7
									c-0.2,0.2-0.5,0.3-0.7,0.3h-3.6c-0.3,0-0.5-0.1-0.7-0.3c-0.1-0.2-0.2-0.4-0.1-0.7l2.3-11c0.2-0.9,0.3-1.6,0.3-2.1
									c0-1-0.3-1.7-0.8-2.1c-0.5-0.5-1.4-0.7-2.5-0.7c-1.5,0-2.8,0.4-3.8,1.3c-1,0.9-1.7,2.1-2.1,3.6l-2.3,11
									c-0.1,0.3-0.2,0.5-0.4,0.7c-0.2,0.2-0.5,0.3-0.7,0.3h-3.6C94.4,29,94.2,28.9,94,28.7z"/>
								<path id="Shape_6_" class="st0" d="M117.1,28.8c-0.1-0.1-0.2-0.3-0.2-0.5c0-0.2,0.1-0.4,0.2-0.6l12.1-13.1L123,2.3
									c-0.1-0.2-0.1-0.3-0.1-0.4c0-0.2,0.1-0.4,0.3-0.6c0.2-0.2,0.4-0.2,0.7-0.2h3.7c0.4,0,0.7,0.1,0.8,0.2
									c0.2,0.1,0.3,0.3,0.4,0.5l4.4,8.7l7.8-8.7c0,0,0.1-0.1,0.2-0.3c0.1-0.1,0.3-0.3,0.5-0.4C142,1,142.3,1,142.6,1h4
									c0.2,0,0.4,0.1,0.5,0.2c0.1,0.1,0.2,0.3,0.2,0.5s-0.1,0.4-0.2,0.6l-11.5,13.1l6.3,12.4c0.1,0.1,0.1,0.2,0.1,0.4
									c0,0.2-0.1,0.4-0.3,0.6c-0.2,0.2-0.4,0.2-0.7,0.2h-3.6c-0.4,0-0.7-0.1-0.8-0.2c-0.2-0.1-0.3-0.3-0.4-0.5l-4.4-8.7l-8.1,8.7
									c-0.1,0-0.2,0.2-0.4,0.4c-0.2,0.2-0.6,0.3-1.1,0.3h-4.4C117.4,29,117.3,28.9,117.1,28.8z"/>
							</g>
						</g>
					</g>
					<g id="Shape_7_">
						<g class="st1">
							<path id="path-1_2_" d="M47.1,0H0.8C0.3,0,0,0.3,0,0.8v46.1c0,0.5,0.3,0.8,0.8,0.8h46.3c0.5,0,0.8-0.3,0.8-0.8V0.8
								C47.9,0.3,47.6,0,47.1,0z M37.4,24.8c-0.2,0.2-0.5,0.3-0.8,0.3h-3.9c-0.3,0-0.5-0.2-0.8-0.3c0,0-1.3-1.6-2.8-3.9
								c-5.3,7.6-11.7,16.3-12.9,18.3c0,0.2-0.2,0.3-0.2,0.3c-0.2,0.2-0.5,0.3-0.8,0.3h-4c-0.3,0-0.5-0.2-0.6-0.3
								c-0.2-0.2-0.2-0.2-0.2-0.3c0-0.2-0.2-0.3-0.2-0.5l0,0V8.9c0-0.3,0.2-0.6,0.3-0.8s0.3-0.3,0.6-0.3h4c0.3,0,0.5,0.2,0.8,0.3
								c0.2,0.2,0.3,0.5,0.3,0.8v21.2c3.1-4.4,6.6-9.5,9.7-13.8c-2.8-3.9-5.3-7.4-5.3-7.4c0-0.3,0.2-0.5,0.3-0.8
								c0.2-0.2,0.5-0.3,0.6-0.3h4c0.3,0,0.5,0.2,0.8,0.3c0,0,1.1,1.6,2.8,3.7c1.6-2.3,2.6-3.7,2.8-3.7c0-0.2,0.3-0.3,0.6-0.3h3.9
								c0.3,0,0.5,0.2,0.8,0.3c0.2,0.2,0.3,0.5,0.3,0.8c0,0-2.3,3.2-5.3,7.4c2.8,3.9,5.3,7.6,5.3,7.6C37.7,24.3,37.7,24.6,37.4,24.8
								z"/>
						</g>
						<g>
							<path id="path-1_1_" class="st0" d="M47.1,0H0.8C0.3,0,0,0.3,0,0.8v46.1c0,0.5,0.3,0.8,0.8,0.8h46.3c0.5,0,0.8-0.3,0.8-0.8
								V0.8C47.9,0.3,47.6,0,47.1,0z M37.4,24.8c-0.2,0.2-0.5,0.3-0.8,0.3h-3.9c-0.3,0-0.5-0.2-0.8-0.3c0,0-1.3-1.6-2.8-3.9
								c-5.3,7.6-11.7,16.3-12.9,18.3c0,0.2-0.2,0.3-0.2,0.3c-0.2,0.2-0.5,0.3-0.8,0.3h-4c-0.3,0-0.5-0.2-0.6-0.3
								c-0.2-0.2-0.2-0.2-0.2-0.3c0-0.2-0.2-0.3-0.2-0.5l0,0V8.9c0-0.3,0.2-0.6,0.3-0.8s0.3-0.3,0.6-0.3h4c0.3,0,0.5,0.2,0.8,0.3
								c0.2,0.2,0.3,0.5,0.3,0.8v21.2c3.1-4.4,6.6-9.5,9.7-13.8c-2.8-3.9-5.3-7.4-5.3-7.4c0-0.3,0.2-0.5,0.3-0.8
								c0.2-0.2,0.5-0.3,0.6-0.3h4c0.3,0,0.5,0.2,0.8,0.3c0,0,1.1,1.6,2.8,3.7c1.6-2.3,2.6-3.7,2.8-3.7c0-0.2,0.3-0.3,0.6-0.3h3.9
								c0.3,0,0.5,0.2,0.8,0.3c0.2,0.2,0.3,0.5,0.3,0.8c0,0-2.3,3.2-5.3,7.4c2.8,3.9,5.3,7.6,5.3,7.6C37.7,24.3,37.7,24.6,37.4,24.8
								z"/>
						</g>
					</g>
				</g>
			</g>
		</g>
	</g>
</g>
<g>
	<linearGradient id="SVGID_1_" gradientUnits="userSpaceOnUse" x1="11.0554" y1="32.9691" x2="58.9263" y2="32.9691">
		<stop  offset="0" style="stop-color:#5DBC75"/>
		<stop  offset="0.7258" style="stop-color:#85C778"/>
	</linearGradient>
	<path class="st2" d="M58.1,56.9H11.8c-0.4,0-0.8-0.4-0.8-0.8V9.8c0-0.4,0.4-0.8,0.8-0.8h46.3c0.4,0,0.8,0.4,0.8,0.8v46.3
		C58.9,56.6,58.6,56.9,58.1,56.9z"/>
	<g>
		<linearGradient id="SVGID_2_" gradientUnits="userSpaceOnUse" x1="23.7365" y1="49.2954" x2="45.7171" y2="16.9661">
			<stop  offset="0" style="stop-color:#85C778;stop-opacity:0.5"/>
			<stop  offset="0.3629" style="stop-color:#FFFFFF"/>
		</linearGradient>
		<path class="st3" d="M21.4,48.7c-0.2-0.2-0.3-0.5-0.3-0.8c0,0,21.5-30.6,21.8-30.8c0.2-0.2,0.5-0.3,0.8-0.3h3.9
			c0.3,0,0.6,0.1,0.8,0.3c0.2,0.2,0.3,0.5,0.3,0.8c0,0-21.5,30.6-21.8,30.8c-0.2,0.2-0.5,0.3-0.8,0.3h-3.9
			C21.9,49,21.7,48.9,21.4,48.7z"/>
		<path class="st0" d="M47.6,34.1h-3.9c-0.3,0-0.6-0.1-0.8-0.3c-0.2-0.2-11.3-16-11.3-16c0-0.3,0.1-0.6,0.3-0.8
			c0.2-0.2,0.5-0.3,0.8-0.3h3.9c0.3,0,0.6,0.1,0.8,0.3c0.2,0.2,11.3,16,11.3,16c0,0.3-0.1,0.6-0.3,0.8C48.2,34,48,34.1,47.6,34.1z"
			/>
	</g>
	<path class="st0" d="M21.4,48.7c-0.2-0.2-0.3-0.5-0.3-0.8v-30c0-0.3,0.1-0.6,0.3-0.8c0.2-0.2,0.4-0.3,0.7-0.3h4.1
		c0.3,0,0.6,0.1,0.7,0.3c0.2,0.2,0.3,0.5,0.3,0.8v30c0,0.3-0.1,0.6-0.3,0.8c-0.2,0.2-0.4,0.3-0.7,0.3h-4.1
		C21.9,49,21.6,48.9,21.4,48.7z"/>
</g>
</svg>
