<?xml version="1.0" encoding="UTF-8"?>
<svg width="245px" height="179px" viewBox="0 0 245 179" version="1.1" xmlns="http://www.w3.org/2000/svg" xmlns:xlink="http://www.w3.org/1999/xlink">
    <!-- Generator: Sketch 42 (36781) - http://www.bohemiancoding.com/sketch -->
    <title>how-it-works-2</title>
    <desc>Created with Sketch.</desc>
    <defs>
        <polygon id="path-1" points="20.8064062 7.86179941 20.8064062 15.7233333 0 15.7233333 0 7.86179941 0 0.000265481565 20.8064062 0.000265481565 20.8064062 7.86179941"></polygon>
    </defs>
    <g id="Cold-Sign-Up-+-Profile" stroke="none" stroke-width="1" fill="none" fill-rule="evenodd">
        <g id="how-it-works-2">
            <g id="Group-13" transform="translate(-1.000000, 0.000000)">
                <path d="M7,24 L27,19 L246,19 L246,179 L1,179 L1,39.5 L7,24 Z" id="Combined-Shape" fill="#F3FAFF"></path>
                <rect id="Rectangle-5-Copy-6" fill="#FFFFFF" x="62.1207293" y="54" width="184" height="39.7342377"></rect>
                <rect id="Rectangle-5-Copy-8" fill="#FFFFFF" x="62" y="133" width="184" height="39.7342377"></rect>
                <rect id="Rectangle-5-Copy-9" fill="#E1F3FF" x="22" y="138" width="30.7464298" height="30.7342377"></rect>
                <rect id="Rectangle-5-Copy-10" fill="#E1F3FF" x="22" y="59" width="30.7464298" height="30.7342377"></rect>
                <rect id="Rectangle-5-Copy-11" fill="#E1F3FF" x="22" y="98" width="30.7464298" height="30.7342377"></rect>
                <path d="M76.688,78.728 C76.0053299,78.4399986 75.4880018,78.0613357 75.136,77.592 C74.7839982,77.1226643 74.5973334,76.6106694 74.576,76.056 C74.576,75.9706662 74.6079997,75.8933337 74.672,75.824 C74.7360003,75.7546663 74.8159995,75.72 74.912,75.72 L76.368,75.72 C76.4853339,75.72 76.581333,75.7466664 76.656,75.8 C76.730667,75.8533336 76.7999997,75.9279995 76.864,76.024 C76.9706672,76.3866685 77.2133314,76.6906654 77.592,76.936 C77.9706686,77.1813346 78.4906634,77.304 79.152,77.304 C79.8986704,77.304 80.4613314,77.1786679 80.84,76.928 C81.2186686,76.6773321 81.408,76.3333355 81.408,75.896 C81.408,75.6079986 81.312001,75.368001 81.12,75.176 C80.927999,74.983999 80.6373353,74.8160007 80.248,74.672 C79.8586647,74.5279993 79.2800038,74.3546677 78.512,74.152 C77.253327,73.8533318 76.3306696,73.4586691 75.744,72.968 C75.1573304,72.4773309 74.864,71.7733379 74.864,70.856 C74.864,70.2373302 75.034665,69.6853358 75.376,69.2 C75.717335,68.7146642 76.2053302,68.3333347 76.84,68.056 C77.4746698,67.7786653 78.2133291,67.64 79.056,67.64 C79.9413378,67.64 80.7066634,67.7946651 81.352,68.104 C81.9973366,68.4133349 82.4879983,68.7999977 82.824,69.264 C83.1600017,69.7280023 83.3386666,70.189331 83.36,70.648 C83.36,70.7333338 83.3280003,70.8106663 83.264,70.88 C83.1999997,70.9493337 83.1200005,70.984 83.024,70.984 L81.504,70.984 C81.2693322,70.984 81.1093338,70.888001 81.024,70.696 C80.9706664,70.354665 80.7626685,70.0693345 80.4,69.84 C80.0373315,69.6106655 79.589336,69.496 79.056,69.496 C78.4693304,69.496 78.0080017,69.6079989 77.672,69.832 C77.3359983,70.0560011 77.168,70.3813312 77.168,70.808 C77.168,71.0960014 77.2533325,71.335999 77.424,71.528 C77.5946675,71.720001 77.8613315,71.8879993 78.224,72.032 C78.5866685,72.1760007 79.1146632,72.3386658 79.808,72.52 C80.7573381,72.7333344 81.5119972,72.973332 82.072,73.24 C82.6320028,73.506668 83.045332,73.8426646 83.312,74.248 C83.578668,74.6533354 83.712,75.1706635 83.712,75.8 C83.712,76.4933368 83.5226686,77.0933308 83.144,77.6 C82.7653314,78.1066692 82.2320034,78.493332 81.544,78.76 C80.8559966,79.026668 80.0586712,79.16 79.152,79.16 C78.1919952,79.16 77.3706701,79.0160014 76.688,78.728 Z M87.112,78.2 C86.5466638,77.5599968 86.264,76.6800056 86.264,75.56 L86.264,71.064 C86.264,70.9466661 86.301333,70.8533337 86.376,70.784 C86.450667,70.7146663 86.5413328,70.68 86.648,70.68 L88.088,70.68 C88.1946672,70.68 88.285333,70.717333 88.36,70.792 C88.434667,70.866667 88.472,70.9573328 88.472,71.064 L88.472,75.464 C88.472,76.7760066 89.042661,77.432 90.184,77.432 C90.7386694,77.432 91.178665,77.2560018 91.504,76.904 C91.829335,76.5519982 91.992,76.072003 91.992,75.464 L91.992,71.064 C91.992,70.9466661 92.029333,70.8533337 92.104,70.784 C92.178667,70.7146663 92.2693328,70.68 92.376,70.68 L93.8,70.68 C93.9173339,70.68 94.0106663,70.7146663 94.08,70.784 C94.1493337,70.8533337 94.184,70.9466661 94.184,71.064 L94.184,78.616 C94.184,78.7226672 94.1493337,78.813333 94.08,78.888 C94.0106663,78.962667 93.9173339,79 93.8,79 L92.472,79 C92.3653328,79 92.274667,78.962667 92.2,78.888 C92.125333,78.813333 92.088,78.7226672 92.088,78.616 L92.088,77.96 C91.5013304,78.760004 90.6160059,79.16 89.432,79.16 C88.4506618,79.16 87.6773362,78.8400032 87.112,78.2 Z M97.408,78.888 C97.333333,78.813333 97.296,78.7226672 97.296,78.616 L97.296,71.064 C97.296,70.9466661 97.333333,70.8533337 97.408,70.784 C97.482667,70.7146663 97.5733328,70.68 97.68,70.68 L98.944,70.68 C99.0613339,70.68 99.1546663,70.7146663 99.224,70.784 C99.2933337,70.8533337 99.328,70.9466661 99.328,71.064 L99.328,71.608 C99.9040029,70.882663 100.677328,70.52 101.648,70.52 C102.832006,70.52 103.658664,70.9946619 104.128,71.944 C104.384001,71.5173312 104.746664,71.1733346 105.216,70.912 C105.685336,70.6506654 106.191997,70.52 106.736,70.52 C107.610671,70.52 108.325331,70.8186637 108.88,71.416 C109.434669,72.0133363 109.712,72.882661 109.712,74.024 L109.712,78.616 C109.712,78.7226672 109.677334,78.813333 109.608,78.888 C109.538666,78.962667 109.445334,79 109.328,79 L108,79 C107.893333,79 107.802667,78.962667 107.728,78.888 C107.653333,78.813333 107.616,78.7226672 107.616,78.616 L107.616,74.152 C107.616,73.4799966 107.474668,72.9946682 107.192,72.696 C106.909332,72.3973318 106.538669,72.248 106.08,72.248 C105.663998,72.248 105.309335,72.3999985 105.016,72.704 C104.722665,73.0080015 104.576,73.4906634 104.576,74.152 L104.576,78.616 C104.576,78.7226672 104.541334,78.813333 104.472,78.888 C104.402666,78.962667 104.309334,79 104.192,79 L102.848,79 C102.741333,79 102.650667,78.962667 102.576,78.888 C102.501333,78.813333 102.464,78.7226672 102.464,78.616 L102.464,74.152 C102.464,73.4906634 102.320001,73.0080015 102.032,72.704 C101.743999,72.3999985 101.376002,72.248 100.928,72.248 C100.511998,72.248 100.157335,72.3999985 99.864,72.704 C99.5706652,73.0080015 99.424,73.4906634 99.424,74.152 L99.424,78.616 C99.424,78.7226672 99.3893337,78.813333 99.32,78.888 C99.2506663,78.962667 99.1573339,79 99.04,79 L97.68,79 C97.5733328,79 97.482667,78.962667 97.408,78.888 Z M112.856,78.888 C112.781333,78.813333 112.744,78.7226672 112.744,78.616 L112.744,71.064 C112.744,70.9466661 112.781333,70.8533337 112.856,70.784 C112.930667,70.7146663 113.021333,70.68 113.128,70.68 L114.392,70.68 C114.509334,70.68 114.602666,70.7146663 114.672,70.784 C114.741334,70.8533337 114.776,70.9466661 114.776,71.064 L114.776,71.608 C115.352003,70.882663 116.125328,70.52 117.096,70.52 C118.280006,70.52 119.106664,70.9946619 119.576,71.944 C119.832001,71.5173312 120.194664,71.1733346 120.664,70.912 C121.133336,70.6506654 121.639997,70.52 122.184,70.52 C123.058671,70.52 123.773331,70.8186637 124.328,71.416 C124.882669,72.0133363 125.16,72.882661 125.16,74.024 L125.16,78.616 C125.16,78.7226672 125.125334,78.813333 125.056,78.888 C124.986666,78.962667 124.893334,79 124.776,79 L123.448,79 C123.341333,79 123.250667,78.962667 123.176,78.888 C123.101333,78.813333 123.064,78.7226672 123.064,78.616 L123.064,74.152 C123.064,73.4799966 122.922668,72.9946682 122.64,72.696 C122.357332,72.3973318 121.986669,72.248 121.528,72.248 C121.111998,72.248 120.757335,72.3999985 120.464,72.704 C120.170665,73.0080015 120.024,73.4906634 120.024,74.152 L120.024,78.616 C120.024,78.7226672 119.989334,78.813333 119.92,78.888 C119.850666,78.962667 119.757334,79 119.64,79 L118.296,79 C118.189333,79 118.098667,78.962667 118.024,78.888 C117.949333,78.813333 117.912,78.7226672 117.912,78.616 L117.912,74.152 C117.912,73.4906634 117.768001,73.0080015 117.48,72.704 C117.191999,72.3999985 116.824002,72.248 116.376,72.248 C115.959998,72.248 115.605335,72.3999985 115.312,72.704 C115.018665,73.0080015 114.872,73.4906634 114.872,74.152 L114.872,78.616 C114.872,78.7226672 114.837334,78.813333 114.768,78.888 C114.698666,78.962667 114.605334,79 114.488,79 L113.128,79 C113.021333,79 112.930667,78.962667 112.856,78.888 Z M128.952,78.136 C128.25333,77.4533299 127.882667,76.482673 127.84,75.224 L127.824,74.824 C127.824,73.49066 128.17333,72.4400038 128.872,71.672 C129.57067,70.9039962 130.53866,70.52 131.776,70.52 C133.04534,70.52 134.023997,70.9039962 134.712,71.672 C135.400003,72.4400038 135.744,73.4639936 135.744,74.744 L135.744,75.08 C135.744,75.1866672 135.706667,75.277333 135.632,75.352 C135.557333,75.426667 135.461334,75.464 135.344,75.464 L130.032,75.464 L130.032,75.592 C130.053333,76.1893363 130.215998,76.6826647 130.52,77.072 C130.824002,77.4613353 131.242664,77.656 131.776,77.656 C132.384003,77.656 132.879998,77.4106691 133.264,76.92 C133.36,76.8026661 133.434666,76.7306668 133.488,76.704 C133.541334,76.6773332 133.631999,76.664 133.76,76.664 L135.168,76.664 C135.264,76.664 135.346666,76.6906664 135.416,76.744 C135.485334,76.7973336 135.52,76.8719995 135.52,76.968 C135.52,77.2240013 135.368002,77.5253316 135.064,77.872 C134.759998,78.2186684 134.325336,78.5199987 133.76,78.776 C133.194664,79.0320013 132.53867,79.16 131.792,79.16 C130.597327,79.16 129.65067,78.8186701 128.952,78.136 Z M133.536,74.104 L133.536,74.072 C133.536,73.4426635 133.378668,72.9386686 133.064,72.56 C132.749332,72.1813314 132.320003,71.992 131.776,71.992 C131.231997,71.992 130.805335,72.1813314 130.496,72.56 C130.186665,72.9386686 130.032,73.4426635 130.032,74.072 L130.032,74.104 L133.536,74.104 Z M138.552,78.888 C138.477333,78.813333 138.44,78.7226672 138.44,78.616 L138.44,71.08 C138.44,70.9626661 138.477333,70.866667 138.552,70.792 C138.626667,70.717333 138.717333,70.68 138.824,70.68 L140.136,70.68 C140.253334,70.68 140.349333,70.717333 140.424,70.792 C140.498667,70.866667 140.536,70.9626661 140.536,71.08 L140.536,71.736 C141.069336,71.0319965 141.837328,70.68 142.84,70.68 L143.512,70.68 C143.629334,70.68 143.722666,70.7146663 143.792,70.784 C143.861334,70.8533337 143.896,70.9466661 143.896,71.064 L143.896,72.232 C143.896,72.3386672 143.861334,72.429333 143.792,72.504 C143.722666,72.578667 143.629334,72.616 143.512,72.616 L142.248,72.616 C141.746664,72.616 141.352001,72.7599986 141.064,73.048 C140.775999,73.3360014 140.632,73.7306642 140.632,74.232 L140.632,78.616 C140.632,78.7226672 140.594667,78.813333 140.52,78.888 C140.445333,78.962667 140.354667,79 140.248,79 L138.824,79 C138.717333,79 138.626667,78.962667 138.552,78.888 Z M150.76,78.888 C150.685333,78.813333 150.648,78.7226672 150.648,78.616 L150.648,68.184 C150.648,68.0666661 150.685333,67.9733337 150.76,67.904 C150.834667,67.8346663 150.925333,67.8 151.032,67.8 L152.568,67.8 C152.685334,67.8 152.778666,67.8346663 152.848,67.904 C152.917334,67.9733337 152.952,68.0666661 152.952,68.184 L152.952,78.616 C152.952,78.7226672 152.917334,78.813333 152.848,78.888 C152.778666,78.962667 152.685334,79 152.568,79 L151.032,79 C150.925333,79 150.834667,78.962667 150.76,78.888 Z M156.368,78.888 C156.293333,78.813333 156.256,78.7226672 156.256,78.616 L156.256,71.064 C156.256,70.9466661 156.293333,70.8533337 156.368,70.784 C156.442667,70.7146663 156.533333,70.68 156.64,70.68 L157.968,70.68 C158.085334,70.68 158.178666,70.7146663 158.248,70.784 C158.317334,70.8533337 158.352,70.9466661 158.352,71.064 L158.352,71.72 C159.00267,70.919996 159.893328,70.52 161.024,70.52 C162.005338,70.52 162.783997,70.8399968 163.36,71.48 C163.936003,72.1200032 164.224,72.9999944 164.224,74.12 L164.224,78.616 C164.224,78.7226672 164.189334,78.813333 164.12,78.888 C164.050666,78.962667 163.957334,79 163.84,79 L162.4,79 C162.293333,79 162.202667,78.962667 162.128,78.888 C162.053333,78.813333 162.016,78.7226672 162.016,78.616 L162.016,74.216 C162.016,73.5973302 161.864002,73.1146684 161.56,72.768 C161.255998,72.4213316 160.821336,72.248 160.256,72.248 C159.711997,72.248 159.274668,72.4239982 158.944,72.776 C158.613332,73.1280018 158.448,73.607997 158.448,74.216 L158.448,78.616 C158.448,78.7226672 158.413334,78.813333 158.344,78.888 C158.274666,78.962667 158.181334,79 158.064,79 L156.64,79 C156.533333,79 156.442667,78.962667 156.368,78.888 Z M168.744,78.24 C168.253331,77.7333308 168.008,76.9893382 168.008,76.008 L168.008,72.392 L166.744,72.392 C166.637333,72.392 166.546667,72.354667 166.472,72.28 C166.397333,72.205333 166.36,72.1146672 166.36,72.008 L166.36,71.064 C166.36,70.9573328 166.397333,70.866667 166.472,70.792 C166.546667,70.717333 166.637333,70.68 166.744,70.68 L168.008,70.68 L168.008,68.024 C168.008,67.9066661 168.045333,67.8133337 168.12,67.744 C168.194667,67.6746663 168.285333,67.64 168.392,67.64 L169.72,67.64 C169.837334,67.64 169.930666,67.6746663 170,67.744 C170.069334,67.8133337 170.104,67.9066661 170.104,68.024 L170.104,70.68 L172.104,70.68 C172.210667,70.68 172.301333,70.717333 172.376,70.792 C172.450667,70.866667 172.488,70.9573328 172.488,71.064 L172.488,72.008 C172.488,72.1146672 172.450667,72.205333 172.376,72.28 C172.301333,72.354667 172.210667,72.392 172.104,72.392 L170.104,72.392 L170.104,75.832 C170.104,76.290669 170.183999,76.6373322 170.344,76.872 C170.504001,77.1066678 170.765332,77.224 171.128,77.224 L172.248,77.224 C172.365334,77.224 172.458666,77.2586663 172.528,77.328 C172.597334,77.3973337 172.632,77.4906661 172.632,77.608 L172.632,78.616 C172.632,78.7226672 172.597334,78.813333 172.528,78.888 C172.458666,78.962667 172.365334,79 172.248,79 L170.936,79 C169.965328,79 169.234669,78.7466692 168.744,78.24 Z M175.816,78.136 C175.11733,77.4533299 174.746667,76.482673 174.704,75.224 L174.688,74.824 C174.688,73.49066 175.03733,72.4400038 175.736,71.672 C176.43467,70.9039962 177.40266,70.52 178.64,70.52 C179.90934,70.52 180.887997,70.9039962 181.576,71.672 C182.264003,72.4400038 182.608,73.4639936 182.608,74.744 L182.608,75.08 C182.608,75.1866672 182.570667,75.277333 182.496,75.352 C182.421333,75.426667 182.325334,75.464 182.208,75.464 L176.896,75.464 L176.896,75.592 C176.917333,76.1893363 177.079998,76.6826647 177.384,77.072 C177.688002,77.4613353 178.106664,77.656 178.64,77.656 C179.248003,77.656 179.743998,77.4106691 180.128,76.92 C180.224,76.8026661 180.298666,76.7306668 180.352,76.704 C180.405334,76.6773332 180.495999,76.664 180.624,76.664 L182.032,76.664 C182.128,76.664 182.210666,76.6906664 182.28,76.744 C182.349334,76.7973336 182.384,76.8719995 182.384,76.968 C182.384,77.2240013 182.232002,77.5253316 181.928,77.872 C181.623998,78.2186684 181.189336,78.5199987 180.624,78.776 C180.058664,79.0320013 179.40267,79.16 178.656,79.16 C177.461327,79.16 176.51467,78.8186701 175.816,78.136 Z M180.4,74.104 L180.4,74.072 C180.4,73.4426635 180.242668,72.9386686 179.928,72.56 C179.613332,72.1813314 179.184003,71.992 178.64,71.992 C178.095997,71.992 177.669335,72.1813314 177.36,72.56 C177.050665,72.9386686 176.896,73.4426635 176.896,74.072 L176.896,74.104 L180.4,74.104 Z M185.416,78.888 C185.341333,78.813333 185.304,78.7226672 185.304,78.616 L185.304,71.08 C185.304,70.9626661 185.341333,70.866667 185.416,70.792 C185.490667,70.717333 185.581333,70.68 185.688,70.68 L187,70.68 C187.117334,70.68 187.213333,70.717333 187.288,70.792 C187.362667,70.866667 187.4,70.9626661 187.4,71.08 L187.4,71.736 C187.933336,71.0319965 188.701328,70.68 189.704,70.68 L190.376,70.68 C190.493334,70.68 190.586666,70.7146663 190.656,70.784 C190.725334,70.8533337 190.76,70.9466661 190.76,71.064 L190.76,72.232 C190.76,72.3386672 190.725334,72.429333 190.656,72.504 C190.586666,72.578667 190.493334,72.616 190.376,72.616 L189.112,72.616 C188.610664,72.616 188.216001,72.7599986 187.928,73.048 C187.639999,73.3360014 187.496,73.7306642 187.496,74.232 L187.496,78.616 C187.496,78.7226672 187.458667,78.813333 187.384,78.888 C187.309333,78.962667 187.218667,79 187.112,79 L185.688,79 C185.581333,79 185.490667,78.962667 185.416,78.888 Z M193.12,78.888 C193.045333,78.813333 193.008,78.7226672 193.008,78.616 L193.008,71.064 C193.008,70.9466661 193.045333,70.8533337 193.12,70.784 C193.194667,70.7146663 193.285333,70.68 193.392,70.68 L194.72,70.68 C194.837334,70.68 194.930666,70.7146663 195,70.784 C195.069334,70.8533337 195.104,70.9466661 195.104,71.064 L195.104,71.72 C195.75467,70.919996 196.645328,70.52 197.776,70.52 C198.757338,70.52 199.535997,70.8399968 200.112,71.48 C200.688003,72.1200032 200.976,72.9999944 200.976,74.12 L200.976,78.616 C200.976,78.7226672 200.941334,78.813333 200.872,78.888 C200.802666,78.962667 200.709334,79 200.592,79 L199.152,79 C199.045333,79 198.954667,78.962667 198.88,78.888 C198.805333,78.813333 198.768,78.7226672 198.768,78.616 L198.768,74.216 C198.768,73.5973302 198.616002,73.1146684 198.312,72.768 C198.007998,72.4213316 197.573336,72.248 197.008,72.248 C196.463997,72.248 196.026668,72.4239982 195.696,72.776 C195.365332,73.1280018 195.2,73.607997 195.2,74.216 L195.2,78.616 C195.2,78.7226672 195.165334,78.813333 195.096,78.888 C195.026666,78.962667 194.933334,79 194.816,79 L193.392,79 C193.285333,79 193.194667,78.962667 193.12,78.888 Z M205.144,78.792 C204.599997,78.5466654 204.197335,78.261335 203.936,77.936 C203.674665,77.610665 203.544,77.3306678 203.544,77.096 C203.544,76.9893328 203.578666,76.9040003 203.648,76.84 C203.717334,76.7759997 203.8,76.744 203.896,76.744 L205.208,76.744 C205.293334,76.744 205.368,76.7866662 205.432,76.872 C205.485334,76.9146669 205.605332,77.0159992 205.792,77.176 C205.978668,77.3360008 206.191999,77.4613329 206.432,77.552 C206.672001,77.6426671 206.935999,77.688 207.224,77.688 C207.650669,77.688 207.997332,77.6053342 208.264,77.44 C208.530668,77.2746658 208.664,77.0373349 208.664,76.728 C208.664,76.5146656 208.602667,76.341334 208.48,76.208 C208.357333,76.074666 208.138668,75.9520006 207.824,75.84 C207.509332,75.7279994 207.037336,75.6026674 206.408,75.464 C205.501329,75.271999 204.832002,74.9786686 204.4,74.584 C203.967998,74.1893314 203.752,73.6666699 203.752,73.016 C203.752,72.5893312 203.879999,72.1866686 204.136,71.808 C204.392001,71.4293314 204.773331,71.1200012 205.28,70.88 C205.786669,70.6399988 206.391996,70.52 207.096,70.52 C207.821337,70.52 208.445331,70.6346655 208.968,70.864 C209.490669,71.0933345 209.887999,71.3679984 210.16,71.688 C210.432001,72.0080016 210.568,72.2906654 210.568,72.536 C210.568,72.6320005 210.533334,72.7146663 210.464,72.784 C210.394666,72.8533337 210.312,72.888 210.216,72.888 L209.016,72.888 C208.898666,72.888 208.808,72.8453338 208.744,72.76 C208.669333,72.7066664 208.549334,72.6080007 208.384,72.464 C208.218666,72.3199993 208.034668,72.2053338 207.832,72.12 C207.629332,72.0346662 207.384001,71.992 207.096,71.992 C206.701331,71.992 206.397334,72.0773325 206.184,72.248 C205.970666,72.4186675 205.864,72.6426653 205.864,72.92 C205.864,73.112001 205.914666,73.2719994 206.016,73.4 C206.117334,73.5280006 206.322665,73.6479994 206.632,73.76 C206.941335,73.8720006 207.40533,73.9866661 208.024,74.104 C209.94401,74.4773352 210.904,75.3146602 210.904,76.616 C210.904,77.3733371 210.576003,77.9866643 209.92,78.456 C209.263997,78.9253357 208.349339,79.16 207.176,79.16 C206.365329,79.16 205.688003,79.0373346 205.144,78.792 Z M213.664,78.888 C213.589333,78.813333 213.552,78.7226672 213.552,78.616 L213.552,68.024 C213.552,67.9066661 213.589333,67.8133337 213.664,67.744 C213.738667,67.6746663 213.829333,67.64 213.936,67.64 L215.392,67.64 C215.509334,67.64 215.602666,67.6746663 215.672,67.744 C215.741334,67.8133337 215.776,67.9066661 215.776,68.024 L215.776,71.672 C216.416003,70.9039962 217.274661,70.52 218.352,70.52 C219.333338,70.52 220.11733,70.8426634 220.704,71.488 C221.29067,72.1333366 221.584,73.0106611 221.584,74.12 L221.584,78.616 C221.584,78.7226672 221.549334,78.813333 221.48,78.888 C221.410666,78.962667 221.317334,79 221.2,79 L219.744,79 C219.626666,79 219.530667,78.962667 219.456,78.888 C219.381333,78.813333 219.344,78.7226672 219.344,78.616 L219.344,74.216 C219.344,73.5973302 219.192002,73.1146684 218.888,72.768 C218.583998,72.4213316 218.149336,72.248 217.584,72.248 C217.039997,72.248 216.602668,72.4239982 216.272,72.776 C215.941332,73.1280018 215.776,73.607997 215.776,74.216 L215.776,78.616 C215.776,78.7226672 215.741334,78.813333 215.672,78.888 C215.602666,78.962667 215.509334,79 215.392,79 L213.936,79 C213.829333,79 213.738667,78.962667 213.664,78.888 Z M224.664,69.208 C224.589333,69.133333 224.552,69.0426672 224.552,68.936 L224.552,67.768 C224.552,67.6506661 224.589333,67.554667 224.664,67.48 C224.738667,67.405333 224.829333,67.368 224.936,67.368 L226.408,67.368 C226.525334,67.368 226.621333,67.405333 226.696,67.48 C226.770667,67.554667 226.808,67.6506661 226.808,67.768 L226.808,68.936 C226.808,69.0426672 226.768,69.133333 226.688,69.208 C226.608,69.282667 226.514667,69.32 226.408,69.32 L224.936,69.32 C224.829333,69.32 224.738667,69.282667 224.664,69.208 Z M224.728,78.888 C224.653333,78.813333 224.616,78.7226672 224.616,78.616 L224.616,71.064 C224.616,70.9466661 224.653333,70.8533337 224.728,70.784 C224.802667,70.7146663 224.893333,70.68 225,70.68 L226.36,70.68 C226.466667,70.68 226.557333,70.717333 226.632,70.792 C226.706667,70.866667 226.744,70.9573328 226.744,71.064 L226.744,78.616 C226.744,78.7226672 226.706667,78.813333 226.632,78.888 C226.557333,78.962667 226.466667,79 226.36,79 L225,79 C224.893333,79 224.802667,78.962667 224.728,78.888 Z M229.984,81.936 C229.909333,81.8666663 229.872,81.7733339 229.872,81.656 L229.872,71.064 C229.872,70.9466661 229.909333,70.8533337 229.984,70.784 C230.058667,70.7146663 230.149333,70.68 230.256,70.68 L231.536,70.68 C231.653334,70.68 231.749333,70.717333 231.824,70.792 C231.898667,70.866667 231.936,70.9573328 231.936,71.064 L231.936,71.704 C232.501336,70.9146627 233.349328,70.52 234.48,70.52 C235.557339,70.52 236.383997,70.8586633 236.96,71.536 C237.536003,72.2133367 237.845333,73.122661 237.888,74.264 C237.898667,74.3920006 237.904,74.5839987 237.904,74.84 C237.904,75.0960013 237.898667,75.2879994 237.888,75.416 C237.856,76.5360056 237.549336,77.4399966 236.968,78.128 C236.386664,78.8160034 235.557339,79.16 234.48,79.16 C233.413328,79.16 232.597336,78.7813371 232.032,78.024 L232.032,81.656 C232.032,81.7733339 231.997334,81.8666663 231.928,81.936 C231.858666,82.0053337 231.765334,82.04 231.648,82.04 L230.256,82.04 C230.149333,82.04 230.058667,82.0053337 229.984,81.936 Z M235.696,75.32 C235.706667,75.2133328 235.712,75.0533344 235.712,74.84 C235.712,74.6266656 235.706667,74.4666672 235.696,74.36 C235.621333,72.951993 235.013339,72.248 233.872,72.248 C233.263997,72.248 232.810668,72.4453314 232.512,72.84 C232.213332,73.2346686 232.053333,73.7146638 232.032,74.28 C232.021333,74.4080006 232.016,74.6106653 232.016,74.888 C232.016,75.1653347 232.021333,75.3733326 232.032,75.512 C232.053333,76.045336 232.218665,76.4986648 232.528,76.872 C232.837335,77.2453352 233.28533,77.432 233.872,77.432 C235.013339,77.432 235.621333,76.728007 235.696,75.32 Z" id="Summer-Internship" fill="#C5C5C5"></path>
                <path d="M76.512,157.52 L74.624,147.264 L74.608,147.136 C74.608,147.04 74.6399997,146.96 74.704,146.896 C74.7680003,146.832 74.8479995,146.8 74.944,146.8 L76.384,146.8 C76.5226674,146.8 76.6239997,146.824 76.688,146.872 C76.7520003,146.92 76.7946666,147.002666 76.816,147.12 L78.144,154.32 L79.568,149.68 C79.6746672,149.413332 79.8506654,149.28 80.096,149.28 L80.976,149.28 C81.1146674,149.28 81.2266662,149.32 81.312,149.4 C81.3973338,149.48 81.4559998,149.573333 81.488,149.68 L82.928,154.32 L84.24,147.12 C84.2720002,146.906666 84.421332,146.8 84.688,146.8 L86.128,146.8 C86.2133338,146.8 86.2879997,146.832 86.352,146.896 C86.4160003,146.96 86.448,147.04 86.448,147.136 C86.448,147.189334 86.4426667,147.232 86.432,147.264 L84.544,157.52 C84.5226666,157.669334 84.4613338,157.786666 84.36,157.872 C84.2586662,157.957334 84.1280008,158 83.968,158 L82.88,158 C82.7306659,158 82.6080005,157.96 82.512,157.88 C82.4159995,157.8 82.3520002,157.706667 82.32,157.6 L80.528,152.288 L78.736,157.6 C78.6506662,157.866668 78.4640014,158 78.176,158 L77.088,158 C76.7786651,158 76.586667,157.840002 76.512,157.52 Z M89.576,157.2 C88.8933299,156.559997 88.5253336,155.674672 88.472,154.544 L88.456,153.84 L88.472,153.136 C88.5253336,152.015994 88.8986632,151.133337 89.592,150.488 C90.2853368,149.842663 91.2506605,149.52 92.488,149.52 C93.7146728,149.52 94.6746632,149.842663 95.368,150.488 C96.0613368,151.133337 96.4346664,152.015994 96.488,153.136 C96.4986667,153.264001 96.504,153.498665 96.504,153.84 C96.504,154.181335 96.4986667,154.415999 96.488,154.544 C96.4346664,155.674672 96.0666701,156.559997 95.384,157.2 C94.7013299,157.840003 93.7360062,158.16 92.488,158.16 C91.229327,158.16 90.2586701,157.840003 89.576,157.2 Z M93.792,156.016 C94.0960015,155.663998 94.2586666,155.14667 94.28,154.464 C94.2906667,154.357333 94.296,154.149335 94.296,153.84 C94.296,153.530665 94.2906667,153.322667 94.28,153.216 C94.2586666,152.53333 94.0933349,152.013335 93.784,151.656 C93.4746651,151.298665 93.0426694,151.12 92.488,151.12 C91.9226638,151.12 91.4853349,151.298665 91.176,151.656 C90.8666651,152.013335 90.7013334,152.53333 90.68,153.216 L90.664,153.84 L90.68,154.464 C90.7013334,155.14667 90.8666651,155.663998 91.176,156.016 C91.4853349,156.368002 91.9226638,156.544 92.488,156.544 C93.0533362,156.544 93.4879985,156.368002 93.792,156.016 Z M99.392,157.888 C99.317333,157.813333 99.28,157.722667 99.28,157.616 L99.28,150.08 C99.28,149.962666 99.317333,149.866667 99.392,149.792 C99.466667,149.717333 99.5573328,149.68 99.664,149.68 L100.976,149.68 C101.093334,149.68 101.189333,149.717333 101.264,149.792 C101.338667,149.866667 101.376,149.962666 101.376,150.08 L101.376,150.736 C101.909336,150.031996 102.677328,149.68 103.68,149.68 L104.352,149.68 C104.469334,149.68 104.562666,149.714666 104.632,149.784 C104.701334,149.853334 104.736,149.946666 104.736,150.064 L104.736,151.232 C104.736,151.338667 104.701334,151.429333 104.632,151.504 C104.562666,151.578667 104.469334,151.616 104.352,151.616 L103.088,151.616 C102.586664,151.616 102.192001,151.759999 101.904,152.048 C101.615999,152.336001 101.472,152.730664 101.472,153.232 L101.472,157.616 C101.472,157.722667 101.434667,157.813333 101.36,157.888 C101.285333,157.962667 101.194667,158 101.088,158 L99.664,158 C99.5573328,158 99.466667,157.962667 99.392,157.888 Z M107.112,157.888 C107.037333,157.813333 107,157.722667 107,157.616 L107,147.024 C107,146.906666 107.037333,146.813334 107.112,146.744 C107.186667,146.674666 107.277333,146.64 107.384,146.64 L108.712,146.64 C108.818667,146.64 108.909333,146.677333 108.984,146.752 C109.058667,146.826667 109.096,146.917333 109.096,147.024 L109.096,152.496 L111.752,149.952 C111.784,149.930667 111.834666,149.890667 111.904,149.832 C111.973334,149.773333 112.04,149.733333 112.104,149.712 C112.168,149.690667 112.248,149.68 112.344,149.68 L113.864,149.68 C113.970667,149.68 114.056,149.712 114.12,149.776 C114.184,149.84 114.216,149.925333 114.216,150.032 C114.216,150.128 114.162667,150.224 114.056,150.32 L110.792,153.408 L114.456,157.376 C114.552,157.472 114.6,157.562666 114.6,157.648 C114.6,157.754667 114.568,157.84 114.504,157.904 C114.44,157.968 114.36,158 114.264,158 L112.712,158 C112.562666,158 112.453334,157.981334 112.384,157.944 C112.314666,157.906666 112.226667,157.834667 112.12,157.728 L109.096,154.512 L109.096,157.616 C109.096,157.722667 109.058667,157.813333 108.984,157.888 C108.909333,157.962667 108.818667,158 108.712,158 L107.384,158 C107.277333,158 107.186667,157.962667 107.112,157.888 Z M122.456,157.056 C121.645329,156.319996 121.218667,155.226674 121.176,153.776 C121.165333,153.466665 121.16,153.013336 121.16,152.416 C121.16,151.807997 121.165333,151.349335 121.176,151.04 C121.218667,149.621326 121.655996,148.533337 122.488,147.776 C123.320004,147.018663 124.445326,146.64 125.864,146.64 C127.272007,146.64 128.394662,147.018663 129.232,147.776 C130.069338,148.533337 130.509333,149.621326 130.552,151.04 C130.573333,151.65867 130.584,152.117332 130.584,152.416 C130.584,152.704001 130.573333,153.15733 130.552,153.776 C130.509333,155.226674 130.080004,156.319996 129.264,157.056 C128.447996,157.792004 127.314674,158.16 125.864,158.16 C124.402659,158.16 123.266671,157.792004 122.456,157.056 Z M127.56,155.664 C127.976002,155.237331 128.2,154.581338 128.232,153.696 C128.253333,153.055997 128.264,152.624001 128.264,152.4 C128.264,152.154665 128.253333,151.72267 128.232,151.104 C128.2,150.229329 127.970669,149.576002 127.544,149.144 C127.117331,148.711998 126.557337,148.496 125.864,148.496 C125.159996,148.496 124.594669,148.711998 124.168,149.144 C123.741331,149.576002 123.517333,150.229329 123.496,151.104 C123.485333,151.413335 123.48,151.845331 123.48,152.4 C123.48,152.944003 123.485333,153.375998 123.496,153.696 C123.517333,154.570671 123.738665,155.223998 124.16,155.656 C124.581335,156.088002 125.14933,156.304 125.864,156.304 C126.57867,156.304 127.143998,156.090669 127.56,155.664 Z M133.6,160.936 C133.525333,160.866666 133.488,160.773334 133.488,160.656 L133.488,150.064 C133.488,149.946666 133.525333,149.853334 133.6,149.784 C133.674667,149.714666 133.765333,149.68 133.872,149.68 L135.152,149.68 C135.269334,149.68 135.365333,149.717333 135.44,149.792 C135.514667,149.866667 135.552,149.957333 135.552,150.064 L135.552,150.704 C136.117336,149.914663 136.965328,149.52 138.096,149.52 C139.173339,149.52 139.999997,149.858663 140.576,150.536 C141.152003,151.213337 141.461333,152.122661 141.504,153.264 C141.514667,153.392001 141.52,153.583999 141.52,153.84 C141.52,154.096001 141.514667,154.287999 141.504,154.416 C141.472,155.536006 141.165336,156.439997 140.584,157.128 C140.002664,157.816003 139.173339,158.16 138.096,158.16 C137.029328,158.16 136.213336,157.781337 135.648,157.024 L135.648,160.656 C135.648,160.773334 135.613334,160.866666 135.544,160.936 C135.474666,161.005334 135.381334,161.04 135.264,161.04 L133.872,161.04 C133.765333,161.04 133.674667,161.005334 133.6,160.936 Z M139.312,154.32 C139.322667,154.213333 139.328,154.053334 139.328,153.84 C139.328,153.626666 139.322667,153.466667 139.312,153.36 C139.237333,151.951993 138.629339,151.248 137.488,151.248 C136.879997,151.248 136.426668,151.445331 136.128,151.84 C135.829332,152.234669 135.669333,152.714664 135.648,153.28 C135.637333,153.408001 135.632,153.610665 135.632,153.888 C135.632,154.165335 135.637333,154.373333 135.648,154.512 C135.669333,155.045336 135.834665,155.498665 136.144,155.872 C136.453335,156.245335 136.90133,156.432 137.488,156.432 C138.629339,156.432 139.237333,155.728007 139.312,154.32 Z M144.424,160.936 C144.349333,160.866666 144.312,160.773334 144.312,160.656 L144.312,150.064 C144.312,149.946666 144.349333,149.853334 144.424,149.784 C144.498667,149.714666 144.589333,149.68 144.696,149.68 L145.976,149.68 C146.093334,149.68 146.189333,149.717333 146.264,149.792 C146.338667,149.866667 146.376,149.957333 146.376,150.064 L146.376,150.704 C146.941336,149.914663 147.789328,149.52 148.92,149.52 C149.997339,149.52 150.823997,149.858663 151.4,150.536 C151.976003,151.213337 152.285333,152.122661 152.328,153.264 C152.338667,153.392001 152.344,153.583999 152.344,153.84 C152.344,154.096001 152.338667,154.287999 152.328,154.416 C152.296,155.536006 151.989336,156.439997 151.408,157.128 C150.826664,157.816003 149.997339,158.16 148.92,158.16 C147.853328,158.16 147.037336,157.781337 146.472,157.024 L146.472,160.656 C146.472,160.773334 146.437334,160.866666 146.368,160.936 C146.298666,161.005334 146.205334,161.04 146.088,161.04 L144.696,161.04 C144.589333,161.04 144.498667,161.005334 144.424,160.936 Z M150.136,154.32 C150.146667,154.213333 150.152,154.053334 150.152,153.84 C150.152,153.626666 150.146667,153.466667 150.136,153.36 C150.061333,151.951993 149.453339,151.248 148.312,151.248 C147.703997,151.248 147.250668,151.445331 146.952,151.84 C146.653332,152.234669 146.493333,152.714664 146.472,153.28 C146.461333,153.408001 146.456,153.610665 146.456,153.888 C146.456,154.165335 146.461333,154.373333 146.472,154.512 C146.493333,155.045336 146.658665,155.498665 146.968,155.872 C147.277335,156.245335 147.72533,156.432 148.312,156.432 C149.453339,156.432 150.061333,155.728007 150.136,154.32 Z M155.904,157.2 C155.22133,156.559997 154.853334,155.674672 154.8,154.544 L154.784,153.84 L154.8,153.136 C154.853334,152.015994 155.226663,151.133337 155.92,150.488 C156.613337,149.842663 157.57866,149.52 158.816,149.52 C160.042673,149.52 161.002663,149.842663 161.696,150.488 C162.389337,151.133337 162.762666,152.015994 162.816,153.136 C162.826667,153.264001 162.832,153.498665 162.832,153.84 C162.832,154.181335 162.826667,154.415999 162.816,154.544 C162.762666,155.674672 162.39467,156.559997 161.712,157.2 C161.02933,157.840003 160.064006,158.16 158.816,158.16 C157.557327,158.16 156.58667,157.840003 155.904,157.2 Z M160.12,156.016 C160.424002,155.663998 160.586667,155.14667 160.608,154.464 C160.618667,154.357333 160.624,154.149335 160.624,153.84 C160.624,153.530665 160.618667,153.322667 160.608,153.216 C160.586667,152.53333 160.421335,152.013335 160.112,151.656 C159.802665,151.298665 159.370669,151.12 158.816,151.12 C158.250664,151.12 157.813335,151.298665 157.504,151.656 C157.194665,152.013335 157.029333,152.53333 157.008,153.216 L156.992,153.84 L157.008,154.464 C157.029333,155.14667 157.194665,155.663998 157.504,156.016 C157.813335,156.368002 158.250664,156.544 158.816,156.544 C159.381336,156.544 159.815998,156.368002 160.12,156.016 Z M165.72,157.888 C165.645333,157.813333 165.608,157.722667 165.608,157.616 L165.608,150.08 C165.608,149.962666 165.645333,149.866667 165.72,149.792 C165.794667,149.717333 165.885333,149.68 165.992,149.68 L167.304,149.68 C167.421334,149.68 167.517333,149.717333 167.592,149.792 C167.666667,149.866667 167.704,149.962666 167.704,150.08 L167.704,150.736 C168.237336,150.031996 169.005328,149.68 170.008,149.68 L170.68,149.68 C170.797334,149.68 170.890666,149.714666 170.96,149.784 C171.029334,149.853334 171.064,149.946666 171.064,150.064 L171.064,151.232 C171.064,151.338667 171.029334,151.429333 170.96,151.504 C170.890666,151.578667 170.797334,151.616 170.68,151.616 L169.416,151.616 C168.914664,151.616 168.520001,151.759999 168.232,152.048 C167.943999,152.336001 167.8,152.730664 167.8,153.232 L167.8,157.616 C167.8,157.722667 167.762667,157.813333 167.688,157.888 C167.613333,157.962667 167.522667,158 167.416,158 L165.992,158 C165.885333,158 165.794667,157.962667 165.72,157.888 Z M174.896,157.24 C174.405331,156.733331 174.16,155.989338 174.16,155.008 L174.16,151.392 L172.896,151.392 C172.789333,151.392 172.698667,151.354667 172.624,151.28 C172.549333,151.205333 172.512,151.114667 172.512,151.008 L172.512,150.064 C172.512,149.957333 172.549333,149.866667 172.624,149.792 C172.698667,149.717333 172.789333,149.68 172.896,149.68 L174.16,149.68 L174.16,147.024 C174.16,146.906666 174.197333,146.813334 174.272,146.744 C174.346667,146.674666 174.437333,146.64 174.544,146.64 L175.872,146.64 C175.989334,146.64 176.082666,146.674666 176.152,146.744 C176.221334,146.813334 176.256,146.906666 176.256,147.024 L176.256,149.68 L178.256,149.68 C178.362667,149.68 178.453333,149.717333 178.528,149.792 C178.602667,149.866667 178.64,149.957333 178.64,150.064 L178.64,151.008 C178.64,151.114667 178.602667,151.205333 178.528,151.28 C178.453333,151.354667 178.362667,151.392 178.256,151.392 L176.256,151.392 L176.256,154.832 C176.256,155.290669 176.335999,155.637332 176.496,155.872 C176.656001,156.106668 176.917332,156.224 177.28,156.224 L178.4,156.224 C178.517334,156.224 178.610666,156.258666 178.68,156.328 C178.749334,156.397334 178.784,156.490666 178.784,156.608 L178.784,157.616 C178.784,157.722667 178.749334,157.813333 178.68,157.888 C178.610666,157.962667 178.517334,158 178.4,158 L177.088,158 C176.117328,158 175.386669,157.746669 174.896,157.24 Z M181.976,157.2 C181.410664,156.559997 181.128,155.680006 181.128,154.56 L181.128,150.064 C181.128,149.946666 181.165333,149.853334 181.24,149.784 C181.314667,149.714666 181.405333,149.68 181.512,149.68 L182.952,149.68 C183.058667,149.68 183.149333,149.717333 183.224,149.792 C183.298667,149.866667 183.336,149.957333 183.336,150.064 L183.336,154.464 C183.336,155.776007 183.906661,156.432 185.048,156.432 C185.602669,156.432 186.042665,156.256002 186.368,155.904 C186.693335,155.551998 186.856,155.072003 186.856,154.464 L186.856,150.064 C186.856,149.946666 186.893333,149.853334 186.968,149.784 C187.042667,149.714666 187.133333,149.68 187.24,149.68 L188.664,149.68 C188.781334,149.68 188.874666,149.714666 188.944,149.784 C189.013334,149.853334 189.048,149.946666 189.048,150.064 L189.048,157.616 C189.048,157.722667 189.013334,157.813333 188.944,157.888 C188.874666,157.962667 188.781334,158 188.664,158 L187.336,158 C187.229333,158 187.138667,157.962667 187.064,157.888 C186.989333,157.813333 186.952,157.722667 186.952,157.616 L186.952,156.96 C186.36533,157.760004 185.480006,158.16 184.296,158.16 C183.314662,158.16 182.541336,157.840003 181.976,157.2 Z M192.272,157.888 C192.197333,157.813333 192.16,157.722667 192.16,157.616 L192.16,150.064 C192.16,149.946666 192.197333,149.853334 192.272,149.784 C192.346667,149.714666 192.437333,149.68 192.544,149.68 L193.872,149.68 C193.989334,149.68 194.082666,149.714666 194.152,149.784 C194.221334,149.853334 194.256,149.946666 194.256,150.064 L194.256,150.72 C194.90667,149.919996 195.797328,149.52 196.928,149.52 C197.909338,149.52 198.687997,149.839997 199.264,150.48 C199.840003,151.120003 200.128,151.999994 200.128,153.12 L200.128,157.616 C200.128,157.722667 200.093334,157.813333 200.024,157.888 C199.954666,157.962667 199.861334,158 199.744,158 L198.304,158 C198.197333,158 198.106667,157.962667 198.032,157.888 C197.957333,157.813333 197.92,157.722667 197.92,157.616 L197.92,153.216 C197.92,152.59733 197.768002,152.114668 197.464,151.768 C197.159998,151.421332 196.725336,151.248 196.16,151.248 C195.615997,151.248 195.178668,151.423998 194.848,151.776 C194.517332,152.128002 194.352,152.607997 194.352,153.216 L194.352,157.616 C194.352,157.722667 194.317334,157.813333 194.248,157.888 C194.178666,157.962667 194.085334,158 193.968,158 L192.544,158 C192.437333,158 192.346667,157.962667 192.272,157.888 Z M203.208,148.208 C203.133333,148.133333 203.096,148.042667 203.096,147.936 L203.096,146.768 C203.096,146.650666 203.133333,146.554667 203.208,146.48 C203.282667,146.405333 203.373333,146.368 203.48,146.368 L204.952,146.368 C205.069334,146.368 205.165333,146.405333 205.24,146.48 C205.314667,146.554667 205.352,146.650666 205.352,146.768 L205.352,147.936 C205.352,148.042667 205.312,148.133333 205.232,148.208 C205.152,148.282667 205.058667,148.32 204.952,148.32 L203.48,148.32 C203.373333,148.32 203.282667,148.282667 203.208,148.208 Z M203.272,157.888 C203.197333,157.813333 203.16,157.722667 203.16,157.616 L203.16,150.064 C203.16,149.946666 203.197333,149.853334 203.272,149.784 C203.346667,149.714666 203.437333,149.68 203.544,149.68 L204.904,149.68 C205.010667,149.68 205.101333,149.717333 205.176,149.792 C205.250667,149.866667 205.288,149.957333 205.288,150.064 L205.288,157.616 C205.288,157.722667 205.250667,157.813333 205.176,157.888 C205.101333,157.962667 205.010667,158 204.904,158 L203.544,158 C203.437333,158 203.346667,157.962667 203.272,157.888 Z M209.984,157.24 C209.493331,156.733331 209.248,155.989338 209.248,155.008 L209.248,151.392 L207.984,151.392 C207.877333,151.392 207.786667,151.354667 207.712,151.28 C207.637333,151.205333 207.6,151.114667 207.6,151.008 L207.6,150.064 C207.6,149.957333 207.637333,149.866667 207.712,149.792 C207.786667,149.717333 207.877333,149.68 207.984,149.68 L209.248,149.68 L209.248,147.024 C209.248,146.906666 209.285333,146.813334 209.36,146.744 C209.434667,146.674666 209.525333,146.64 209.632,146.64 L210.96,146.64 C211.077334,146.64 211.170666,146.674666 211.24,146.744 C211.309334,146.813334 211.344,146.906666 211.344,147.024 L211.344,149.68 L213.344,149.68 C213.450667,149.68 213.541333,149.717333 213.616,149.792 C213.690667,149.866667 213.728,149.957333 213.728,150.064 L213.728,151.008 C213.728,151.114667 213.690667,151.205333 213.616,151.28 C213.541333,151.354667 213.450667,151.392 213.344,151.392 L211.344,151.392 L211.344,154.832 C211.344,155.290669 211.423999,155.637332 211.584,155.872 C211.744001,156.106668 212.005332,156.224 212.368,156.224 L213.488,156.224 C213.605334,156.224 213.698666,156.258666 213.768,156.328 C213.837334,156.397334 213.872,156.490666 213.872,156.608 L213.872,157.616 C213.872,157.722667 213.837334,157.813333 213.768,157.888 C213.698666,157.962667 213.605334,158 213.488,158 L212.176,158 C211.205328,158 210.474669,157.746669 209.984,157.24 Z M217.568,160.944 C217.498666,160.88 217.464,160.805334 217.464,160.72 C217.464,160.645333 217.485333,160.56 217.528,160.464 L218.792,157.504 L215.72,150.256 C215.677333,150.16 215.656,150.085334 215.656,150.032 C215.666667,149.936 215.704,149.853334 215.768,149.784 C215.832,149.714666 215.912,149.68 216.008,149.68 L217.336,149.68 C217.528001,149.68 217.666666,149.781332 217.752,149.984 L219.88,155.2 L222.04,149.984 C222.146667,149.781332 222.295999,149.68 222.488,149.68 L223.784,149.68 C223.88,149.68 223.96,149.712 224.024,149.776 C224.088,149.84 224.12,149.914666 224.12,150 C224.12,150.074667 224.098667,150.16 224.056,150.256 L219.528,160.736 C219.442666,160.938668 219.293334,161.04 219.08,161.04 L217.8,161.04 C217.714666,161.04 217.637334,161.008 217.568,160.944 Z" id="Work-Opportunity" fill="#C5C5C5"></path>
                <path d="M75.36,117.622238 C75.285333,117.547571 75.248,117.456905 75.248,117.350238 L75.248,106.934238 C75.248,106.816904 75.2826663,106.720905 75.352,106.646238 C75.4213337,106.571571 75.5146661,106.534238 75.632,106.534238 L76.88,106.534238 C77.0826677,106.534238 77.2373328,106.624903 77.344,106.806238 L81.92,113.910238 L81.92,106.934238 C81.92,106.816904 81.9546663,106.720905 82.024,106.646238 C82.0933337,106.571571 82.1866661,106.534238 82.304,106.534238 L83.68,106.534238 C83.7973339,106.534238 83.893333,106.571571 83.968,106.646238 C84.042667,106.720905 84.08,106.816904 84.08,106.934238 L84.08,117.334238 C84.08,117.451572 84.042667,117.547571 83.968,117.622238 C83.893333,117.696905 83.8026672,117.734238 83.696,117.734238 L82.432,117.734238 C82.2186656,117.734238 82.0586672,117.643572 81.952,117.462238 L77.392,110.518238 L77.392,117.350238 C77.392,117.456905 77.3573337,117.547571 77.288,117.622238 C77.2186663,117.696905 77.1253339,117.734238 77.008,117.734238 L75.632,117.734238 C75.5253328,117.734238 75.434667,117.696905 75.36,117.622238 Z M88.128,116.870238 C87.4293298,116.187568 87.0586669,115.216911 87.016,113.958238 L87,113.558238 C87,112.224898 87.3493298,111.174242 88.048,110.406238 C88.7466702,109.638234 89.7146605,109.254238 90.952,109.254238 C92.2213397,109.254238 93.1999966,109.638234 93.888,110.406238 C94.5760034,111.174242 94.92,112.198231 94.92,113.478238 L94.92,113.814238 C94.92,113.920905 94.882667,114.011571 94.808,114.086238 C94.733333,114.160905 94.6373339,114.198238 94.52,114.198238 L89.208,114.198238 L89.208,114.326238 C89.2293334,114.923574 89.3919985,115.416902 89.696,115.806238 C90.0000015,116.195573 90.418664,116.390238 90.952,116.390238 C91.560003,116.390238 92.0559981,116.144907 92.44,115.654238 C92.5360005,115.536904 92.6106664,115.464905 92.664,115.438238 C92.7173336,115.411571 92.8079994,115.398238 92.936,115.398238 L94.344,115.398238 C94.4400005,115.398238 94.5226663,115.424904 94.592,115.478238 C94.6613337,115.531571 94.696,115.606237 94.696,115.702238 C94.696,115.958239 94.5440015,116.259569 94.24,116.606238 C93.9359985,116.952906 93.5013362,117.254236 92.936,117.510238 C92.3706638,117.766239 91.7146704,117.894238 90.968,117.894238 C89.7733274,117.894238 88.8266702,117.552908 88.128,116.870238 Z M92.712,112.838238 L92.712,112.806238 C92.712,112.176901 92.5546682,111.672906 92.24,111.294238 C91.9253318,110.915569 91.4960027,110.726238 90.952,110.726238 C90.4079973,110.726238 89.9813349,110.915569 89.672,111.294238 C89.3626651,111.672906 89.208,112.176901 89.208,112.806238 L89.208,112.838238 L92.712,112.838238 Z M99.12,117.334238 L96.832,109.910238 C96.8213333,109.878238 96.816,109.830238 96.816,109.766238 C96.816,109.670237 96.8479997,109.587571 96.912,109.518238 C96.9760003,109.448904 97.0559995,109.414238 97.152,109.414238 L98.368,109.414238 C98.4746672,109.414238 98.5679996,109.446237 98.648,109.510238 C98.7280004,109.574238 98.7786666,109.643571 98.8,109.718238 L100.352,114.982238 L102,109.766238 C102.032,109.670237 102.088,109.587571 102.168,109.518238 C102.248,109.448904 102.351999,109.414238 102.48,109.414238 L103.296,109.414238 C103.424001,109.414238 103.528,109.448904 103.608,109.518238 C103.688,109.587571 103.738667,109.670237 103.76,109.766238 L105.424,114.982238 L106.976,109.718238 C106.997333,109.643571 107.045333,109.574238 107.12,109.510238 C107.194667,109.446237 107.290666,109.414238 107.408,109.414238 L108.608,109.414238 C108.704,109.414238 108.786666,109.448904 108.856,109.518238 C108.925334,109.587571 108.96,109.670237 108.96,109.766238 L108.928,109.910238 L106.64,117.334238 C106.597333,117.462238 106.536,117.560904 106.456,117.630238 C106.376,117.699571 106.266667,117.734238 106.128,117.734238 L105.072,117.734238 C104.794665,117.734238 104.618667,117.600906 104.544,117.334238 L102.896,112.310238 L101.232,117.334238 C101.146666,117.600906 100.965335,117.734238 100.688,117.734238 L99.648,117.734238 C99.381332,117.734238 99.2053338,117.600906 99.12,117.334238 Z M116.112,117.622238 C116.037333,117.547571 116,117.456905 116,117.350238 L116,106.934238 C116,106.816904 116.034666,106.720905 116.104,106.646238 C116.173334,106.571571 116.266666,106.534238 116.384,106.534238 L120.672,106.534238 C121.962673,106.534238 122.975996,106.838235 123.712,107.446238 C124.448004,108.054241 124.816,108.939565 124.816,110.102238 C124.816,111.254243 124.448004,112.126235 123.712,112.718238 C122.975996,113.310241 121.962673,113.606238 120.672,113.606238 L118.32,113.606238 L118.32,117.350238 C118.32,117.467572 118.282667,117.560904 118.208,117.630238 C118.133333,117.699571 118.037334,117.734238 117.92,117.734238 L116.384,117.734238 C116.277333,117.734238 116.186667,117.696905 116.112,117.622238 Z M120.592,111.814238 C121.21067,111.814238 121.682665,111.667573 122.008,111.374238 C122.333335,111.080903 122.496,110.651574 122.496,110.086238 C122.496,109.531568 122.338668,109.099573 122.024,108.790238 C121.709332,108.480903 121.232003,108.326238 120.592,108.326238 L118.288,108.326238 L118.288,111.814238 L120.592,111.814238 Z M128.04,116.934238 C127.35733,116.294235 126.989334,115.40891 126.936,114.278238 L126.92,113.574238 L126.936,112.870238 C126.989334,111.750232 127.362663,110.867574 128.056,110.222238 C128.749337,109.576901 129.71466,109.254238 130.952,109.254238 C132.178673,109.254238 133.138663,109.576901 133.832,110.222238 C134.525337,110.867574 134.898666,111.750232 134.952,112.870238 C134.962667,112.998238 134.968,113.232903 134.968,113.574238 C134.968,113.915573 134.962667,114.150237 134.952,114.278238 C134.898666,115.40891 134.53067,116.294235 133.848,116.934238 C133.16533,117.574241 132.200006,117.894238 130.952,117.894238 C129.693327,117.894238 128.72267,117.574241 128.04,116.934238 Z M132.256,115.750238 C132.560002,115.398236 132.722667,114.880908 132.744,114.198238 C132.754667,114.091571 132.76,113.883573 132.76,113.574238 C132.76,113.264903 132.754667,113.056905 132.744,112.950238 C132.722667,112.267568 132.557335,111.747573 132.248,111.390238 C131.938665,111.032903 131.506669,110.854238 130.952,110.854238 C130.386664,110.854238 129.949335,111.032903 129.64,111.390238 C129.330665,111.747573 129.165333,112.267568 129.144,112.950238 L129.128,113.574238 L129.144,114.198238 C129.165333,114.880908 129.330665,115.398236 129.64,115.750238 C129.949335,116.102239 130.386664,116.278238 130.952,116.278238 C131.517336,116.278238 131.951998,116.102239 132.256,115.750238 Z M138.88,117.526238 C138.335997,117.280903 137.933335,116.995573 137.672,116.670238 C137.410665,116.344903 137.28,116.064906 137.28,115.830238 C137.28,115.723571 137.314666,115.638238 137.384,115.574238 C137.453334,115.510237 137.536,115.478238 137.632,115.478238 L138.944,115.478238 C139.029334,115.478238 139.104,115.520904 139.168,115.606238 C139.221334,115.648905 139.341332,115.750237 139.528,115.910238 C139.714668,116.070239 139.927999,116.195571 140.168,116.286238 C140.408001,116.376905 140.671999,116.422238 140.96,116.422238 C141.386669,116.422238 141.733332,116.339572 142,116.174238 C142.266668,116.008904 142.4,115.771573 142.4,115.462238 C142.4,115.248903 142.338667,115.075572 142.216,114.942238 C142.093333,114.808904 141.874668,114.686238 141.56,114.574238 C141.245332,114.462237 140.773336,114.336905 140.144,114.198238 C139.237329,114.006237 138.568002,113.712906 138.136,113.318238 C137.703998,112.923569 137.488,112.400908 137.488,111.750238 C137.488,111.323569 137.615999,110.920906 137.872,110.542238 C138.128001,110.163569 138.509331,109.854239 139.016,109.614238 C139.522669,109.374237 140.127996,109.254238 140.832,109.254238 C141.557337,109.254238 142.181331,109.368903 142.704,109.598238 C143.226669,109.827572 143.623999,110.102236 143.896,110.422238 C144.168001,110.742239 144.304,111.024903 144.304,111.270238 C144.304,111.366238 144.269334,111.448904 144.2,111.518238 C144.130666,111.587571 144.048,111.622238 143.952,111.622238 L142.752,111.622238 C142.634666,111.622238 142.544,111.579571 142.48,111.494238 C142.405333,111.440904 142.285334,111.342238 142.12,111.198238 C141.954666,111.054237 141.770668,110.939571 141.568,110.854238 C141.365332,110.768904 141.120001,110.726238 140.832,110.726238 C140.437331,110.726238 140.133334,110.81157 139.92,110.982238 C139.706666,111.152905 139.6,111.376903 139.6,111.654238 C139.6,111.846239 139.650666,112.006237 139.752,112.134238 C139.853334,112.262238 140.058665,112.382237 140.368,112.494238 C140.677335,112.606238 141.14133,112.720904 141.76,112.838238 C143.68001,113.211573 144.64,114.048898 144.64,115.350238 C144.64,116.107575 144.312003,116.720902 143.656,117.190238 C142.999997,117.659573 142.085339,117.894238 140.912,117.894238 C140.101329,117.894238 139.424003,117.771572 138.88,117.526238 Z M147.32,107.942238 C147.245333,107.867571 147.208,107.776905 147.208,107.670238 L147.208,106.502238 C147.208,106.384904 147.245333,106.288905 147.32,106.214238 C147.394667,106.139571 147.485333,106.102238 147.592,106.102238 L149.064,106.102238 C149.181334,106.102238 149.277333,106.139571 149.352,106.214238 C149.426667,106.288905 149.464,106.384904 149.464,106.502238 L149.464,107.670238 C149.464,107.776905 149.424,107.867571 149.344,107.942238 C149.264,108.016905 149.170667,108.054238 149.064,108.054238 L147.592,108.054238 C147.485333,108.054238 147.394667,108.016905 147.32,107.942238 Z M147.384,117.622238 C147.309333,117.547571 147.272,117.456905 147.272,117.350238 L147.272,109.798238 C147.272,109.680904 147.309333,109.587571 147.384,109.518238 C147.458667,109.448904 147.549333,109.414238 147.656,109.414238 L149.016,109.414238 C149.122667,109.414238 149.213333,109.451571 149.288,109.526238 C149.362667,109.600905 149.4,109.691571 149.4,109.798238 L149.4,117.350238 C149.4,117.456905 149.362667,117.547571 149.288,117.622238 C149.213333,117.696905 149.122667,117.734238 149.016,117.734238 L147.656,117.734238 C147.549333,117.734238 147.458667,117.696905 147.384,117.622238 Z M154.096,116.974238 C153.605331,116.467569 153.36,115.723576 153.36,114.742238 L153.36,111.126238 L152.096,111.126238 C151.989333,111.126238 151.898667,111.088905 151.824,111.014238 C151.749333,110.939571 151.712,110.848905 151.712,110.742238 L151.712,109.798238 C151.712,109.691571 151.749333,109.600905 151.824,109.526238 C151.898667,109.451571 151.989333,109.414238 152.096,109.414238 L153.36,109.414238 L153.36,106.758238 C153.36,106.640904 153.397333,106.547571 153.472,106.478238 C153.546667,106.408904 153.637333,106.374238 153.744,106.374238 L155.072,106.374238 C155.189334,106.374238 155.282666,106.408904 155.352,106.478238 C155.421334,106.547571 155.456,106.640904 155.456,106.758238 L155.456,109.414238 L157.456,109.414238 C157.562667,109.414238 157.653333,109.451571 157.728,109.526238 C157.802667,109.600905 157.84,109.691571 157.84,109.798238 L157.84,110.742238 C157.84,110.848905 157.802667,110.939571 157.728,111.014238 C157.653333,111.088905 157.562667,111.126238 157.456,111.126238 L155.456,111.126238 L155.456,114.566238 C155.456,115.024907 155.535999,115.37157 155.696,115.606238 C155.856001,115.840906 156.117332,115.958238 156.48,115.958238 L157.6,115.958238 C157.717334,115.958238 157.810666,115.992904 157.88,116.062238 C157.949334,116.131571 157.984,116.224904 157.984,116.342238 L157.984,117.350238 C157.984,117.456905 157.949334,117.547571 157.88,117.622238 C157.810666,117.696905 157.717334,117.734238 157.6,117.734238 L156.288,117.734238 C155.317328,117.734238 154.586669,117.480907 154.096,116.974238 Z M160.456,107.942238 C160.381333,107.867571 160.344,107.776905 160.344,107.670238 L160.344,106.502238 C160.344,106.384904 160.381333,106.288905 160.456,106.214238 C160.530667,106.139571 160.621333,106.102238 160.728,106.102238 L162.2,106.102238 C162.317334,106.102238 162.413333,106.139571 162.488,106.214238 C162.562667,106.288905 162.6,106.384904 162.6,106.502238 L162.6,107.670238 C162.6,107.776905 162.56,107.867571 162.48,107.942238 C162.4,108.016905 162.306667,108.054238 162.2,108.054238 L160.728,108.054238 C160.621333,108.054238 160.530667,108.016905 160.456,107.942238 Z M160.52,117.622238 C160.445333,117.547571 160.408,117.456905 160.408,117.350238 L160.408,109.798238 C160.408,109.680904 160.445333,109.587571 160.52,109.518238 C160.594667,109.448904 160.685333,109.414238 160.792,109.414238 L162.152,109.414238 C162.258667,109.414238 162.349333,109.451571 162.424,109.526238 C162.498667,109.600905 162.536,109.691571 162.536,109.798238 L162.536,117.350238 C162.536,117.456905 162.498667,117.547571 162.424,117.622238 C162.349333,117.696905 162.258667,117.734238 162.152,117.734238 L160.792,117.734238 C160.685333,117.734238 160.594667,117.696905 160.52,117.622238 Z M166.432,116.934238 C165.74933,116.294235 165.381334,115.40891 165.328,114.278238 L165.312,113.574238 L165.328,112.870238 C165.381334,111.750232 165.754663,110.867574 166.448,110.222238 C167.141337,109.576901 168.10666,109.254238 169.344,109.254238 C170.570673,109.254238 171.530663,109.576901 172.224,110.222238 C172.917337,110.867574 173.290666,111.750232 173.344,112.870238 C173.354667,112.998238 173.36,113.232903 173.36,113.574238 C173.36,113.915573 173.354667,114.150237 173.344,114.278238 C173.290666,115.40891 172.92267,116.294235 172.24,116.934238 C171.55733,117.574241 170.592006,117.894238 169.344,117.894238 C168.085327,117.894238 167.11467,117.574241 166.432,116.934238 Z M170.648,115.750238 C170.952002,115.398236 171.114667,114.880908 171.136,114.198238 C171.146667,114.091571 171.152,113.883573 171.152,113.574238 C171.152,113.264903 171.146667,113.056905 171.136,112.950238 C171.114667,112.267568 170.949335,111.747573 170.64,111.390238 C170.330665,111.032903 169.898669,110.854238 169.344,110.854238 C168.778664,110.854238 168.341335,111.032903 168.032,111.390238 C167.722665,111.747573 167.557333,112.267568 167.536,112.950238 L167.52,113.574238 L167.536,114.198238 C167.557333,114.880908 167.722665,115.398236 168.032,115.750238 C168.341335,116.102239 168.778664,116.278238 169.344,116.278238 C169.909336,116.278238 170.343998,116.102239 170.648,115.750238 Z M176.248,117.622238 C176.173333,117.547571 176.136,117.456905 176.136,117.350238 L176.136,109.798238 C176.136,109.680904 176.173333,109.587571 176.248,109.518238 C176.322667,109.448904 176.413333,109.414238 176.52,109.414238 L177.848,109.414238 C177.965334,109.414238 178.058666,109.448904 178.128,109.518238 C178.197334,109.587571 178.232,109.680904 178.232,109.798238 L178.232,110.454238 C178.88267,109.654234 179.773328,109.254238 180.904,109.254238 C181.885338,109.254238 182.663997,109.574235 183.24,110.214238 C183.816003,110.854241 184.104,111.734232 184.104,112.854238 L184.104,117.350238 C184.104,117.456905 184.069334,117.547571 184,117.622238 C183.930666,117.696905 183.837334,117.734238 183.72,117.734238 L182.28,117.734238 C182.173333,117.734238 182.082667,117.696905 182.008,117.622238 C181.933333,117.547571 181.896,117.456905 181.896,117.350238 L181.896,112.950238 C181.896,112.331568 181.744002,111.848906 181.44,111.502238 C181.135998,111.155569 180.701336,110.982238 180.136,110.982238 C179.591997,110.982238 179.154668,111.158236 178.824,111.510238 C178.493332,111.862239 178.328,112.342235 178.328,112.950238 L178.328,117.350238 C178.328,117.456905 178.293334,117.547571 178.224,117.622238 C178.154666,117.696905 178.061334,117.734238 177.944,117.734238 L176.52,117.734238 C176.413333,117.734238 176.322667,117.696905 176.248,117.622238 Z" id="New-Position-Copy" fill="#C5C5C5"></path>
                <path d="M245.385052,19.1617673 C245.385052,19.1617673 69.5058339,18.9994958 15.9136488,19.0063717 C15.2419162,19.0068301 14.5628622,19.056795 13.8993661,19.1617673 C6.25634807,20.3678026 0.967597429,26.571252 0.967597429,34.3103221 L0.967597429,178.545454 C2.64967455,178.543162 4.33129409,178.542704 6.01337121,178.539495 L6.01337121,44.1534218 L5.96761285,39.0817478 C5.96761285,37.9435549 5.97401902,36.8310321 5.96578252,35.7180508 C5.9552581,34.1750958 5.93695476,32.6344327 6.39911414,31.1345667 C7.72839434,26.8242856 11.4137722,24.1202179 16.0953095,24.0303727 C69.6687337,24.0294559 206.340052,23.4095429 245.385052,24.0207464 C246,24.0303727 245.385052,19.1617673 245.385052,19.1617673 Z" id="Fill-8" fill="#E7E7E7"></path>
                <g id="Group-12" transform="translate(104.000000, 0.000000)">
                    <g id="Group-11" stroke="#F3FAFF" fill="#FFBE1D">
                        <circle id="Oval" cx="19.5" cy="19.5" r="19.5"></circle>
                    </g>
                    <g id="Page-1" transform="translate(9.000000, 11.000000)">
                        <mask id="mask-2" fill="white">
                            <use xlink:href="#path-1"></use>
                        </mask>
                        <g id="Clip-2"></g>
                        <path d="M6.3590625,9.18293333 L1.93003125,9.18293333 L1.93003125,13.8142667 L18.9072187,13.8142667 L18.9072187,9.20493333 L14.4735937,9.20493333 C14.4735937,9.3996 14.4755625,9.5876 14.4729375,9.7756 C14.4722812,9.86026667 14.4683437,9.94626667 14.4585,10.0302667 C14.3528437,10.9242667 13.5876562,11.6136 12.702375,11.6136 L8.19721875,11.6136 C8.12109375,11.6136 8.0443125,11.6102667 7.9681875,11.6036 C7.23909375,11.5389333 6.6045,11.0022667 6.4220625,10.2836 C6.3826875,10.1282667 6.3695625,9.9636 6.3616875,9.80226667 C6.3511875,9.5976 6.3590625,9.39226667 6.3590625,9.18293333 L6.3590625,9.18293333 Z M12.5547188,9.73093333 L12.5547188,9.6336 C12.5547188,9.18026667 12.5520938,8.72626667 12.5573438,8.2736 C12.5586563,8.15693333 12.5730938,8.03626667 12.6072188,7.92626667 C12.7345313,7.51826667 13.085625,7.27226667 13.5246563,7.2716 L18.4229063,7.2716 L18.5174063,7.2716 C18.508875,7.2416 18.503625,7.22093333 18.4964063,7.1996 C17.9057813,5.48093333 17.3138438,3.76293333 16.7258438,2.04426667 C16.7015625,1.97426667 16.6733438,1.9496 16.597875,1.9496 C12.4910625,1.95226667 8.38490625,1.95226667 4.27809375,1.95026667 C4.20721875,1.95026667 4.17834375,1.97293333 4.15471875,2.0396 C3.56146875,3.72826667 2.96559375,5.41626667 2.370375,7.1036 C2.352,7.15693333 2.3349375,7.21093333 2.31459375,7.2716 L2.4136875,7.2716 L7.2751875,7.2716 C7.854,7.2716 8.255625,7.68026667 8.25628125,8.2696 L8.25628125,9.64493333 L8.25628125,9.73093333 L12.5547188,9.73093333 Z M10.4094375,15.7236 L0.9751875,15.7236 C0.606375,15.7236 0.31828125,15.5696 0.12796875,15.2436 C0.0301875,15.0769333 0.00065625,14.8922667 0.00065625,14.7022667 C0.00065625,12.5596 0.00065625,10.4182667 0,8.27626667 C0,8.0936 0.060375,7.9276 0.11878125,7.76026667 C0.945,5.38093333 1.7705625,3.00226667 2.5974375,0.622266667 C2.727375,0.248266667 3.06009375,0.00893333333 3.45515625,0.00226666667 L3.52209375,0.00226666667 C8.10928125,0.00226666667 12.6964687,0.00426666667 17.2836562,0.000266666667 C17.700375,-0.0004 18.099375,0.280266667 18.2378437,0.6816 C19.0588125,3.06026667 19.887,5.43626667 20.72175,7.80893333 C20.7840937,7.9876 20.8064062,8.1596 20.8064062,8.34293333 C20.80575,10.4749333 20.80575,12.6076 20.80575,14.7396 C20.80575,15.3136 20.4021562,15.7236 19.8358125,15.7236 L10.4094375,15.7236 Z" id="Fill-1" fill="#FFFFFF" mask="url(#mask-2)"></path>
                    </g>
                </g>
            </g>
        </g>
    </g>
</svg>