<?xml version="1.0" encoding="UTF-8"?>
<svg width="218px" height="181px" viewBox="0 0 218 181" version="1.1" xmlns="http://www.w3.org/2000/svg" xmlns:xlink="http://www.w3.org/1999/xlink">
    <!-- Generator: Sketch 42 (36781) - http://www.bohemiancoding.com/sketch -->
    <title>how-it-works-3</title>
    <desc>Created with Sketch.</desc>
    <defs>
        <polygon id="path-1" points="0.000179299765 165.02193 177.983069 165.02193 177.983069 0.0345226495 0.000179299765 0.0345226495"></polygon>
        <polygon id="path-3" points="12.7625333 23.437322 12.7625333 0.000265535851 -8.37428888e-05 0.000265535851 -8.37428888e-05 23.437322"></polygon>
        <polygon id="path-5" points="12.7625333 23.437322 12.7625333 0.000265535851 -8.37428888e-05 0.000265535851 -8.37428888e-05 23.437322"></polygon>
        <polygon id="path-7" points="74.6117333 136.717712 74.6117333 0.00154895913 -0.000489573809 0.00154895913 -0.000489573809 136.717712"></polygon>
    </defs>
    <g id="Cold-Sign-Up-+-Profile" stroke="none" stroke-width="1" fill="none" fill-rule="evenodd">
        <g id="how-it-works-3">
            <g id="Group-10" transform="translate(1.000000, 1.000000)">
                <g id="Page-1" transform="translate(19.000000, 3.000000)">
                    <polygon id="Fill-1" fill="#F6F6F6" points="175.628207 171.762021 2.34040257 171.762021 2.34040257 64.3313699 88.6392869 111.821931 175.628207 64.3313699"></polygon>
                    <g id="Group-5" transform="translate(0.000000, 9.132589)">
                        <mask id="mask-2" fill="white">
                            <use xlink:href="#path-1"></use>
                        </mask>
                        <g id="Clip-4"></g>
                        <path d="M172.486759,157.048116 C146.223294,139.114358 120.124101,121.292906 93.8670416,103.363273 C120.109916,88.5346779 146.21826,73.7830926 172.486759,58.9407452 L172.486759,157.048116 Z M10.8083064,159.49915 C11.186728,159.184692 11.4104864,158.964662 11.665818,158.790931 C36.9624093,141.567684 62.2644915,124.352688 87.5482704,107.111563 C88.3833604,106.541779 88.9255969,106.479438 89.8123938,107.086352 C115.031196,124.357272 140.275623,141.589687 165.514558,158.831728 C165.751129,158.993083 165.964821,159.189276 166.351021,159.49915 L10.8083064,159.49915 Z M4.41677943,58.9732911 C30.8156895,73.7863013 57.0974581,88.5333027 83.5247383,103.362357 C57.1290314,121.263111 30.8683116,139.072186 4.41677943,157.010986 L4.41677943,58.9732911 Z M171.5,54.8674114 C171.5,54.8674114 122.321119,79.336756 89,98.3674114 C6.82111919,52.836756 6.5,54.8674114 6.5,54.8674114 C6.5,54.8674114 89,6.36741137 89,6.36741137 C89,6.36741137 171.5,54.8674114 171.5,54.8674114 Z M176.251756,51.5564722 C168.400995,46.8657238 160.586384,42.1153842 152.741571,37.4159264 C152.033232,36.9914533 129.618502,24.1729165 129.133006,23.8786274 C116.419047,16.1844799 103.711494,8.47887259 91.0368874,0.720091527 C89.5826869,-0.170110106 88.4085275,-0.204948069 86.9383116,0.683419987 C74.1529697,8.4069047 61.3374272,16.079966 48.5104452,23.7337748 C48.3986777,23.8004528 23.8034819,37.9336923 23.2339877,38.2822915 C15.9231753,42.7612617 8.63981799,47.2851546 1.32626015,51.7595408 C0.375859126,52.3412431 -0.00118971723,53.0118739 0.000183033414,54.151442 C0.0290107969,90.1321819 0.0317562982,126.113838 0.0029285347,162.094578 C0.00155578406,164.132599 0.663221594,164.585951 2.72646581,164.976961 C3.09482057,165.046637 3.48696967,164.992088 3.86813676,164.992088 L89.2006046,164.992088 C117.682893,164.992088 146.165638,164.974669 174.647926,165.022342 C177.223206,165.02601 177.977761,163.850228 177.975474,161.702193 C177.938867,125.988697 177.939782,90.2747425 177.983252,54.5612465 C177.985083,53.0861338 177.450168,52.2729424 176.251756,51.5564722 Z" id="Fill-3" fill="#E7E7E7" mask="url(#mask-2)"></path>
                    </g>
                </g>
                <g id="Group-9" transform="translate(0.000000, 118.000000)">
                    <circle id="Oval" stroke="#F3FAFF" fill="#7ED97A" cx="19.5" cy="19.5" r="19.5"></circle>
                    <g id="Page-1" transform="translate(13.000000, 8.000000)">
                        <mask id="mask-4" fill="white">
                            <use xlink:href="#path-3"></use>
                        </mask>
                        <g id="Clip-2"></g>
                        <path d="M5.32930667,4.55777143 C5.29290667,4.55777143 5.26170667,4.55262857 5.23397333,4.55862857 C5.07364,4.59377143 4.91244,4.62377143 4.75470667,4.6692 C3.82390667,4.93662857 3.01357333,5.38491429 2.46237333,6.20605714 C1.97097333,6.93891429 1.95537333,7.68377143 2.45284,8.4192 C2.98757333,9.20948571 3.76150667,9.69805714 4.63077333,10.0554857 C4.85610667,10.1472 5.09010667,10.2183429 5.32930667,10.3023429 L5.32930667,4.55777143 Z M7.42750667,18.9020571 C8.45190667,18.7143429 9.36104,18.3423429 10.04744,17.5597714 C10.8777067,16.6126286 10.8811733,15.6543429 10.0665067,14.6986286 C9.61584,14.1697714 9.04384,13.7934857 8.41637333,13.5020571 C8.10090667,13.3546286 7.77070667,13.2354857 7.42750667,13.0957714 L7.42750667,18.9020571 Z M7.42144,2.40377143 C8.00037333,2.54777143 8.56457333,2.65062857 9.10277333,2.82805714 C10.56484,3.30977143 11.77124,4.13005714 12.5477733,5.48777143 C12.7185067,5.78691429 12.82164,6.09462857 12.70724,6.43577143 C12.5703067,6.84634286 12.2825733,7.0992 11.8527067,7.1532 C11.39684,7.21062857 11.0233067,7.02805714 10.8101067,6.63205714 C10.0899067,5.29491429 8.84450667,4.8072 7.42144,4.52434286 L7.42144,4.73605714 C7.42144,6.73148571 7.42404,8.72605714 7.41710667,10.7214857 C7.41710667,10.8809143 7.45784,10.9512 7.61470667,10.9992 C8.53684,11.2794857 9.42950667,11.6266286 10.2407067,12.1537714 C11.0839733,12.7006286 11.8085067,13.3649143 12.2739067,14.2614857 C13.0495733,15.7537714 12.8823067,17.1852 11.91684,18.5343429 C11.0961067,19.6803429 9.93304,20.3420571 8.59057333,20.7200571 C8.25777333,20.8143429 7.91630667,20.8769143 7.57397333,20.9343429 C7.44830667,20.9557714 7.41710667,20.9994857 7.41884,21.1169143 C7.42490667,21.5394857 7.42317333,21.9612 7.42144,22.3829143 C7.41970667,22.9726286 6.97510667,23.4303429 6.39790667,23.4372 C5.82070667,23.4457714 5.35790667,23.0017714 5.33884,22.4154857 C5.33104,22.1814857 5.33710667,21.9457714 5.33710667,21.7109143 C5.33624,21.4760571 5.33710667,21.2420571 5.33710667,21.0029143 C4.98437333,20.9326286 4.63684,20.8777714 4.29710667,20.7954857 C3.17477333,20.5229143 2.15384,20.0463429 1.28717333,19.2766286 C0.80184,18.8446286 0.400573333,18.3474857 0.119773333,17.7629143 C-0.231226667,17.0343429 0.293973333,16.2414857 1.10170667,16.2783429 C1.45964,16.2946286 1.76384,16.4566286 1.92764,16.7677714 C2.57937333,18.0080571 3.70430667,18.5463429 5.00170667,18.8429143 C5.10657333,18.8660571 5.21404,18.8789143 5.33710667,18.8986286 L5.33710667,18.7040571 C5.33710667,16.7034857 5.33450667,14.7020571 5.34057333,12.7006286 C5.34057333,12.5489143 5.29810667,12.4837714 5.14904,12.4383429 C4.10904,12.1229143 3.10804,11.7209143 2.22144,11.0806286 C1.35304,10.4549143 0.644106667,9.69634286 0.261906667,8.68491429 C-0.213893333,7.42577143 -0.0258266667,6.23091429 0.69784,5.11491429 C1.52464,3.84034286 2.74404,3.09891429 4.18617333,2.6832 C4.55277333,2.57777143 4.93237333,2.51434286 5.33710667,2.4252 L5.33710667,2.25462857 C5.33710667,1.85177143 5.33104,1.4472 5.33797333,1.04348571 C5.34924,0.443485714 5.80944,-0.00651428571 6.39357333,0.000342857144 C6.98030667,0.00634285714 7.42057333,0.464057143 7.42144,1.0692 C7.42230667,1.5252 7.42144,1.98205714 7.42144,2.40377143 L7.42144,2.40377143 Z" id="Fill-1" fill="#FFFFFF" mask="url(#mask-4)"></path>
                    </g>
                </g>
                <g id="Group-9-Copy" transform="translate(177.000000, 79.000000)">
                    <circle id="Oval" stroke="#F3FAFF" fill="#7ED97A" cx="19.5" cy="19.5" r="19.5"></circle>
                    <g id="Page-1" transform="translate(13.000000, 8.000000)">
                        <mask id="mask-6" fill="white">
                            <use xlink:href="#path-5"></use>
                        </mask>
                        <g id="Clip-2"></g>
                        <path d="M5.32930667,4.55777143 C5.29290667,4.55777143 5.26170667,4.55262857 5.23397333,4.55862857 C5.07364,4.59377143 4.91244,4.62377143 4.75470667,4.6692 C3.82390667,4.93662857 3.01357333,5.38491429 2.46237333,6.20605714 C1.97097333,6.93891429 1.95537333,7.68377143 2.45284,8.4192 C2.98757333,9.20948571 3.76150667,9.69805714 4.63077333,10.0554857 C4.85610667,10.1472 5.09010667,10.2183429 5.32930667,10.3023429 L5.32930667,4.55777143 Z M7.42750667,18.9020571 C8.45190667,18.7143429 9.36104,18.3423429 10.04744,17.5597714 C10.8777067,16.6126286 10.8811733,15.6543429 10.0665067,14.6986286 C9.61584,14.1697714 9.04384,13.7934857 8.41637333,13.5020571 C8.10090667,13.3546286 7.77070667,13.2354857 7.42750667,13.0957714 L7.42750667,18.9020571 Z M7.42144,2.40377143 C8.00037333,2.54777143 8.56457333,2.65062857 9.10277333,2.82805714 C10.56484,3.30977143 11.77124,4.13005714 12.5477733,5.48777143 C12.7185067,5.78691429 12.82164,6.09462857 12.70724,6.43577143 C12.5703067,6.84634286 12.2825733,7.0992 11.8527067,7.1532 C11.39684,7.21062857 11.0233067,7.02805714 10.8101067,6.63205714 C10.0899067,5.29491429 8.84450667,4.8072 7.42144,4.52434286 L7.42144,4.73605714 C7.42144,6.73148571 7.42404,8.72605714 7.41710667,10.7214857 C7.41710667,10.8809143 7.45784,10.9512 7.61470667,10.9992 C8.53684,11.2794857 9.42950667,11.6266286 10.2407067,12.1537714 C11.0839733,12.7006286 11.8085067,13.3649143 12.2739067,14.2614857 C13.0495733,15.7537714 12.8823067,17.1852 11.91684,18.5343429 C11.0961067,19.6803429 9.93304,20.3420571 8.59057333,20.7200571 C8.25777333,20.8143429 7.91630667,20.8769143 7.57397333,20.9343429 C7.44830667,20.9557714 7.41710667,20.9994857 7.41884,21.1169143 C7.42490667,21.5394857 7.42317333,21.9612 7.42144,22.3829143 C7.41970667,22.9726286 6.97510667,23.4303429 6.39790667,23.4372 C5.82070667,23.4457714 5.35790667,23.0017714 5.33884,22.4154857 C5.33104,22.1814857 5.33710667,21.9457714 5.33710667,21.7109143 C5.33624,21.4760571 5.33710667,21.2420571 5.33710667,21.0029143 C4.98437333,20.9326286 4.63684,20.8777714 4.29710667,20.7954857 C3.17477333,20.5229143 2.15384,20.0463429 1.28717333,19.2766286 C0.80184,18.8446286 0.400573333,18.3474857 0.119773333,17.7629143 C-0.231226667,17.0343429 0.293973333,16.2414857 1.10170667,16.2783429 C1.45964,16.2946286 1.76384,16.4566286 1.92764,16.7677714 C2.57937333,18.0080571 3.70430667,18.5463429 5.00170667,18.8429143 C5.10657333,18.8660571 5.21404,18.8789143 5.33710667,18.8986286 L5.33710667,18.7040571 C5.33710667,16.7034857 5.33450667,14.7020571 5.34057333,12.7006286 C5.34057333,12.5489143 5.29810667,12.4837714 5.14904,12.4383429 C4.10904,12.1229143 3.10804,11.7209143 2.22144,11.0806286 C1.35304,10.4549143 0.644106667,9.69634286 0.261906667,8.68491429 C-0.213893333,7.42577143 -0.0258266667,6.23091429 0.69784,5.11491429 C1.52464,3.84034286 2.74404,3.09891429 4.18617333,2.6832 C4.55277333,2.57777143 4.93237333,2.51434286 5.33710667,2.4252 L5.33710667,2.25462857 C5.33710667,1.85177143 5.33104,1.4472 5.33797333,1.04348571 C5.34924,0.443485714 5.80944,-0.00651428571 6.39357333,0.000342857144 C6.98030667,0.00634285714 7.42057333,0.464057143 7.42144,1.0692 C7.42230667,1.5252 7.42144,1.98205714 7.42144,2.40377143 L7.42144,2.40377143 Z" id="Fill-1" fill="#FFFFFF" mask="url(#mask-6)"></path>
                    </g>
                </g>
                <g id="Group-9-Copy-2" transform="translate(71.000000, 0.000000)">
                    <g id="Page-1">
                        <mask id="mask-8" fill="white">
                            <use xlink:href="#path-7"></use>
                        </mask>
                        <g id="Clip-2"></g>
                        <path d="M31.1559467,26.587 C30.9431467,26.587 30.7607467,26.557 30.5986133,26.592 C29.66128,26.797 28.71888,26.972 27.7967467,27.237 C22.3551467,28.797 17.6178133,31.412 14.3954133,36.202 C11.5226133,40.477 11.4314133,44.822 14.33968,49.112 C17.4658133,53.722 21.9903467,56.572 27.0722133,58.657 C28.3895467,59.192 29.7575467,59.607 31.1559467,60.097 L31.1559467,26.587 Z M43.4223467,106.5 C44,106.5 62,96.5 62,96.5 C62,96.5 64.5,94 58.8503467,85.742 C56.4422545,82.2221336 52.87168,80.462 49.2034133,78.762 C47.3591467,77.902 45.4287467,77.207 43.4223467,76.392 L43.4223467,106.5 Z M53.2162133,16.497 C61.76368,19.307 68.81648,24.092 73.3562133,32.012 C74.3543467,33.757 74.95728,35.552 74.28848,37.542 C73.4879467,39.937 71.8058133,41.412 69.2927467,41.727 C66.62768,42.062 64.4439467,40.997 63.1975467,38.687 C58.9871467,30.887 51.7063467,28.042 43.38688,26.392 L43.38688,27.627 C43.38688,39.267 43.40208,50.902 43.3615467,62.542 C43.3615467,63.472 43.59968,63.882 44.5167467,64.162 C49.90768,65.797 55.1263467,67.822 59.8687467,70.897 C64.7986133,74.087 69.0343467,77.962 71.7551467,83.192 C76.2898133,91.897 75,93 75,91 C75,89 37.5845457,110 37.3778133,110 C34,110 31.2218133,107.5 31.2218133,107.5 C31.2218133,95.83 31.1863467,85.762 31.2218133,74.087 C31.2218133,73.202 30.9735467,72.822 30.10208,72.557 C24.02208,70.717 18.17008,68.372 12.98688,64.637 C7.91008,60.987 3.76554667,56.562 1.53114667,50.662 C-1.25045333,43.317 -0.150986667,36.347 4.07968,29.837 C8.91328,22.402 16.04208,18.077 24.4730133,15.652 C26.6162133,15.037 28.8354133,14.667 31.2015467,14.147 L31.2015467,13.152 C31.2015467,10.802 31.16608,8.442 31.2066133,6.087 C31.27248,2.587 33.96288,-0.038 37.3778133,0.00200000001 C40.8079467,0.037 43.3818133,2.707 43.38688,6.237 C43.3919467,8.897 43.38688,11.562 43.38688,14.022 C46.7714133,14.862 50.0698133,15.462 53.2162133,16.497 Z" id="Fill-1" fill="#7ED97A" mask="url(#mask-8)"></path>
                    </g>
                </g>
            </g>
        </g>
    </g>
</svg>