<?xml version="1.0" encoding="UTF-8"?>
<svg width="52px" height="52px" viewBox="0 0 52 52" version="1.1" xmlns="http://www.w3.org/2000/svg" xmlns:xlink="http://www.w3.org/1999/xlink">
    <!-- Generator: Sketch 42 (36781) - http://www.bohemiancoding.com/sketch -->
    <title>mail-icon</title>
    <desc>Created with Sketch.</desc>
    <defs></defs>
    <g id="Cold-Sign-Up-+-Profile" stroke="none" stroke-width="1" fill="none" fill-rule="evenodd">
        <g id="mail-icon">
            <g id="Group-18" transform="translate(1.000000, 1.000000)">
                <ellipse id="Oval" stroke="#BEE4FF" fill="#6BC2FF" cx="25.2766346" cy="25.2766346" rx="25.2766346" ry="25.2766346"></ellipse>
                <g id="Page-1-Copy" transform="translate(13.000000, 17.000000)" fill="#FFFFFF">
                    <path d="M23.451525,13.3730889 L23.451525,2.48067415 C21.5925142,4.27446467 19.7590944,6.0438243 17.917449,7.82070113 C19.7654922,9.6746292 21.5952561,11.5107039 23.451525,13.3730889 L23.451525,13.3730889 Z M1.6159166,13.3777871 C3.4840671,11.5031867 5.31840078,9.66241376 7.16278811,7.81130464 C5.31474491,6.03442781 3.47766932,4.26882677 1.6159166,2.47785521 L1.6159166,13.3777871 Z M16.7521399,8.9426424 C15.9021497,9.76013729 15.0740947,10.567296 14.2350721,11.36036 C13.296427,12.2492683 11.8925723,12.2774578 10.9265081,11.4223769 C10.4640404,11.0126898 10.0289916,10.5719943 9.58297525,10.1425746 C9.16620586,9.74228395 8.75035044,9.34011405 8.32901122,8.9332459 C6.57419275,10.6979073 4.83125586,12.4512929 3.059072,14.2319283 L22.0129394,14.2319283 C20.2416695,12.4522325 18.5023885,10.7026055 16.7521399,8.9426424 L16.7521399,8.9426424 Z M3.12944753,1.65660172 C3.18885545,1.72425647 3.2245002,1.76935963 3.26654272,1.80976455 C5.61087052,4.06586253 7.95702626,6.32102085 10.302268,8.57711882 C10.8332834,9.08828804 11.3624709,9.60133656 11.8944002,10.1106265 C12.3203093,10.5184343 12.7644977,10.5184343 13.1913207,10.1134454 C13.3046528,10.0063254 13.4170708,9.89732609 13.5294889,9.78926642 C16.2915,7.1281796 19.0535112,4.46709278 21.8155223,1.80694561 C21.8557369,1.76748033 21.8932096,1.72519612 21.9571874,1.65660172 L3.12944753,1.65660172 Z M12.5314359,15.8988662 L2.55364772,15.8988662 C1.04651456,15.8988662 0.00916093618,14.8549158 0.00550506437,13.3063738 C-0.00272064721,9.73476676 -0.000892711307,6.16222012 0.00550506437,2.59061312 C0.00733300027,1.29953498 0.743077203,0.331696203 1.91112825,0.0601375553 C2.10123358,0.0159740381 2.30230653,0.0028189479 2.49789567,0.0028189479 C9.17443157,0 15.8509675,0 22.5265894,0 C24.021841,0 25.0619365,1.04113143 25.0665063,2.58215628 C25.0747321,6.15940117 25.0729041,9.73758571 25.0665063,13.3148306 C25.0637644,14.5983915 24.3252783,15.5652907 23.1691089,15.8340304 C22.9790035,15.8791335 22.7788446,15.8960472 22.5832554,15.8960472 C19.2326489,15.8988662 15.8820424,15.8988662 12.5314359,15.8988662 L12.5314359,15.8988662 Z" id="Fill-1"></path>
                </g>
            </g>
        </g>
    </g>
</svg>