<?xml version="1.0" encoding="UTF-8"?>
<svg width="226px" height="68px" viewBox="0 0 226 68" version="1.1" xmlns="http://www.w3.org/2000/svg" xmlns:xlink="http://www.w3.org/1999/xlink">
    <!-- Generator: Sketch 42 (36781) - http://www.bohemiancoding.com/sketch -->
    <title>new-logo</title>
    <desc>Created with Sketch.</desc>
    <defs>
        <path d="M47.0908784,0 L0.809121622,0 C0.323648649,0 0,0.323648649 0,0.809121622 L0,46.9290541 C0,47.414527 0.323648649,47.7381757 0.809121622,47.7381757 L47.0908784,47.7381757 C47.5763514,47.7381757 47.9,47.414527 47.9,46.9290541 L47.9,0.809121622 C47.9,0.323648649 47.5763514,0 47.0908784,0 Z M37.3814189,24.7591216 C37.2195946,24.9209459 36.8959459,25.0827703 36.5722973,25.0827703 L32.6885135,25.0827703 C32.3648649,25.0827703 32.2030405,24.9209459 31.8793919,24.7591216 C31.8793919,24.7591216 30.5847973,23.1408784 29.1283784,20.8753378 C23.7881757,28.4810811 17.477027,37.2195946 16.1824324,39.1614865 C16.1824324,39.3233108 16.0206081,39.4851351 16.0206081,39.4851351 C15.8587838,39.6469595 15.5351351,39.8087838 15.2114865,39.8087838 L11.1658784,39.8087838 C10.8422297,39.8087838 10.6804054,39.6469595 10.5185811,39.4851351 C10.3567568,39.3233108 10.3567568,39.3233108 10.3567568,39.1614865 C10.3567568,38.9996622 10.1949324,38.8378378 10.1949324,38.6760135 L10.1949324,38.6760135 L10.1949324,8.90033784 C10.1949324,8.57668919 10.3567568,8.25304054 10.5185811,8.09121622 C10.6804054,7.92939189 10.8422297,7.76756757 11.1658784,7.76756757 L15.2114865,7.76756757 C15.5351351,7.76756757 15.6969595,7.92939189 16.0206081,8.09121622 C16.1824324,8.25304054 16.3442568,8.57668919 16.3442568,8.90033784 L16.3442568,30.0993243 C19.4189189,25.7300676 22.9790541,20.5516892 26.0537162,16.3442568 C23.3027027,12.460473 20.7135135,8.90033784 20.7135135,8.90033784 C20.7135135,8.57668919 20.8753378,8.41486486 21.0371622,8.09121622 C21.1989865,7.92939189 21.5226351,7.76756757 21.6844595,7.76756757 L25.7300676,7.76756757 C26.0537162,7.76756757 26.2155405,7.92939189 26.5391892,8.09121622 C26.5391892,8.09121622 27.6719595,9.70945946 29.2902027,11.8131757 C30.9084459,9.54763514 31.8793919,8.09121622 32.0412162,8.09121622 C32.0412162,7.92939189 32.3648649,7.76756757 32.6885135,7.76756757 L36.5722973,7.76756757 C36.8959459,7.76756757 37.0577703,7.92939189 37.3814189,8.09121622 C37.5432432,8.25304054 37.7050676,8.57668919 37.7050676,8.90033784 C37.7050676,8.90033784 35.439527,12.1368243 32.3648649,16.3442568 C35.1158784,20.2280405 37.7050676,23.95 37.7050676,23.95 C37.7050676,24.2736486 37.7050676,24.5972973 37.3814189,24.7591216 Z" id="path-1"></path>
        <filter x="-50%" y="-50%" width="200%" height="200%" filterUnits="objectBoundingBox" id="filter-2">
            <feOffset dx="0" dy="2" in="SourceAlpha" result="shadowOffsetOuter1"></feOffset>
            <feGaussianBlur stdDeviation="2.5" in="shadowOffsetOuter1" result="shadowBlurOuter1"></feGaussianBlur>
            <feColorMatrix values="0 0 0 0 0   0 0 0 0 0   0 0 0 0 0  0 0 0 0.163920969 0" type="matrix" in="shadowBlurOuter1"></feColorMatrix>
        </filter>
    </defs>
    <g id="Cold-Sign-Up-+-Profile" stroke="none" stroke-width="1" fill="none" fill-rule="evenodd">
        <g id="new-logo" fill-rule="nonzero">
            <g id="Group-2" transform="translate(11.000000, 9.000000)">
                <g id="logo-and-logomark">
                    <g id="Layer_1">
                        <g id="Cold-Sign-Up-_x2B_-Profile" transform="translate(67.000000, 9.000000)" fill="#FFFFFF">
                            <g id="Logo">
                                <g id="Group">
                                    <path d="M0.9,28.7 C0.8,28.5 0.7,28.3 0.8,28 L6.4,2 C6.4,1.7 6.6,1.5 6.8,1.3 C7,1.1 7.2,1 7.5,1 L11.4,1 C11.7,1 11.9,1.1 12,1.3 C12.1,1.5 12.2,1.7 12.1,2 L6.6,28 C6.5,28.3 6.4,28.5 6.2,28.7 C5.9,28.9 5.7,29 5.4,29 L1.6,29 C1.3,29 1,28.9 0.9,28.7 Z" id="Shape"></path>
                                    <path d="M12.5,28.7 C12.4,28.5 12.3,28.3 12.4,28 L16.4,9.1 C16.5,8.8 16.6,8.6 16.8,8.4 C17,8.2 17.3,8.1 17.5,8.1 L20.8,8.1 C21.1,8.1 21.3,8.2 21.4,8.4 C21.5,8.6 21.6,8.8 21.5,9.1 L21.1,10.7 C22,9.8 23,9.1 24.2,8.5 C25.4,8 26.7,7.7 28.1,7.7 C30.3,7.7 32,8.2 33.1,9.3 C34.3,10.4 34.8,11.9 34.8,13.9 C34.8,14.7 34.7,15.6 34.5,16.7 L32.2,28 C32.1,28.3 32,28.5 31.8,28.7 C31.6,28.9 31.3,29 31.1,29 L27.5,29 C27.2,29 27,28.9 26.8,28.7 C26.7,28.5 26.6,28.3 26.7,28 L29,17 C29.2,16.1 29.3,15.4 29.3,14.9 C29.3,13.9 29,13.2 28.5,12.8 C28,12.4 27.1,12.1 26,12.1 C24.5,12.1 23.2,12.5 22.2,13.4 C21.2,14.3 20.5,15.5 20.1,17 L17.8,28 C17.7,28.3 17.6,28.5 17.4,28.7 C17.2,28.9 16.9,29 16.7,29 L13.1,29 C12.8,29 12.6,28.9 12.5,28.7 Z" id="Shape"></path>
                                    <path d="M41.7,27.7 C40.6,26.9 40.1,25.6 40.1,23.9 C40.1,23.1 40.2,22.3 40.4,21.5 L42.4,12.5 L39.2,12.5 C38.9,12.5 38.7,12.4 38.6,12.2 C38.5,12 38.4,11.8 38.5,11.5 L39,9.1 C39.1,8.8 39.2,8.6 39.4,8.4 C39.6,8.2 39.9,8.1 40.2,8.1 L43.3,8.1 L44.7,1.5 C44.7,1.3 44.8,1 45,0.9 C45.2,0.8 45.5,0.6 45.7,0.6 L49,0.6 C49.3,0.6 49.5,0.7 49.7,0.9 C49.8,1.1 49.9,1.3 49.8,1.6 L48.4,8.2 L53.4,8.2 C53.7,8.2 53.9,8.3 54,8.5 C54.1,8.7 54.2,8.9 54.1,9.2 L53.6,11.6 C53.6,11.9 53.4,12.1 53.2,12.3 C53,12.5 52.7,12.6 52.4,12.6 L47.4,12.6 L45.5,21.2 C45.3,21.9 45.3,22.5 45.3,23 C45.3,23.6 45.4,24 45.7,24.2 C46,24.5 46.5,24.6 47.2,24.6 L50.1,24.6 C50.4,24.6 50.6,24.7 50.7,24.9 C50.8,25.1 50.9,25.3 50.8,25.6 L50.6,28 C50.5,28.3 50.4,28.5 50.2,28.7 C50,28.9 49.7,29 49.4,29 L46.6,29 C44.3,29 42.7,28.6 41.7,27.7 Z" id="Shape"></path>
                                    <path d="M57.4,27.5 C56,26.2 55.3,24.4 55.3,22 C55.3,21.1 55.4,20.3 55.5,19.6 C55.5,19.4 55.7,18.7 55.9,17.6 C56.7,14.6 58.1,12.2 60.2,10.4 C62.3,8.6 64.8,7.8 67.8,7.8 C70.4,7.8 72.4,8.5 73.8,9.8 C75.1,11.1 75.8,13 75.8,15.3 C75.8,16.2 75.7,17.2 75.5,18.3 L75.3,19.1 C75.2,19.4 75.1,19.6 74.9,19.8 C74.7,20 74.4,20.1 74.1,20.1 L60.9,20.1 L60.8,20.4 C60.7,20.9 60.7,21.3 60.7,21.8 C60.7,22.9 61,23.8 61.6,24.5 C62.2,25.2 63,25.6 64.1,25.6 C65.6,25.6 67,25 68.2,23.8 C68.5,23.5 68.7,23.3 68.9,23.3 C69.1,23.2 69.3,23.2 69.6,23.2 L73.1,23.2 C73.3,23.2 73.5,23.3 73.7,23.4 C73.8,23.6 73.9,23.8 73.8,24 C73.6,24.6 73,25.4 72.1,26.2 C71.2,27.1 69.9,27.8 68.4,28.4 C66.9,29 65.2,29.3 63.3,29.3 C60.8,29.4 58.8,28.8 57.4,27.5 Z M70.4,16.8 L70.4,16.8 C70.5,16.2 70.6,15.7 70.6,15.2 C70.6,14.1 70.3,13.2 69.7,12.5 C69.1,11.8 68.3,11.5 67.1,11.5 C65.7,11.5 64.6,12 63.6,12.9 C62.6,13.8 62,15.1 61.6,16.7 L61.6,16.8 L70.4,16.8 Z" id="Shape"></path>
                                    <path d="M77.2,28.7 C77.1,28.5 77,28.3 77.1,28 L81.1,9.2 C81.2,8.9 81.3,8.7 81.5,8.5 C81.7,8.3 82,8.2 82.2,8.2 L85.5,8.2 C85.8,8.2 86,8.3 86.2,8.5 C86.4,8.7 86.4,8.9 86.3,9.2 L86,10.8 C87.3,9 89.3,8.2 92,8.2 L94,8.2 C94.3,8.2 94.5,8.3 94.6,8.5 C94.7,8.7 94.8,8.9 94.7,9.2 L94.1,12.1 C94.1,12.4 93.9,12.6 93.7,12.8 C93.5,12.9 93.3,13 93,13 L89.8,13 C88.5,13 87.5,13.4 86.6,14.1 C85.7,14.8 85.2,15.8 84.9,17.1 L82.6,28.1 C82.5,28.4 82.4,28.6 82.2,28.8 C82,28.9 81.7,29 81.4,29 L77.8,29 C77.6,29 77.4,28.9 77.2,28.7 Z" id="Shape"></path>
                                    <path d="M94,28.7 C93.9,28.5 93.8,28.3 93.9,28 L97.9,9.1 C98,8.8 98.1,8.6 98.3,8.4 C98.5,8.2 98.8,8.1 99,8.1 L102.3,8.1 C102.6,8.1 102.8,8.2 102.9,8.4 C103,8.6 103.1,8.8 103,9.1 L102.6,10.7 C103.5,9.8 104.5,9.1 105.7,8.5 C106.9,8 108.2,7.7 109.6,7.7 C111.8,7.7 113.5,8.2 114.6,9.3 C115.7,10.4 116.3,11.9 116.3,13.9 C116.3,14.7 116.2,15.6 116,16.7 L113.8,28 C113.7,28.3 113.6,28.5 113.4,28.7 C113.2,28.9 112.9,29 112.7,29 L109.1,29 C108.8,29 108.6,28.9 108.4,28.7 C108.3,28.5 108.2,28.3 108.3,28 L110.6,17 C110.8,16.1 110.9,15.4 110.9,14.9 C110.9,13.9 110.6,13.2 110.1,12.8 C109.6,12.3 108.7,12.1 107.6,12.1 C106.1,12.1 104.8,12.5 103.8,13.4 C102.8,14.3 102.1,15.5 101.7,17 L99.4,28 C99.3,28.3 99.2,28.5 99,28.7 C98.8,28.9 98.5,29 98.3,29 L94.7,29 C94.4,29 94.2,28.9 94,28.7 Z" id="Shape"></path>
                                    <path d="M117.1,28.8 C117,28.7 116.9,28.5 116.9,28.3 C116.9,28.1 117,27.9 117.1,27.7 L129.2,14.6 L123,2.3 C122.9,2.1 122.9,2 122.9,1.9 C122.9,1.7 123,1.5 123.2,1.3 C123.4,1.1 123.6,1.1 123.9,1.1 L127.6,1.1 C128,1.1 128.3,1.2 128.4,1.3 C128.6,1.4 128.7,1.6 128.8,1.8 L133.2,10.5 L141,1.8 C141,1.8 141.1,1.7 141.2,1.5 C141.3,1.4 141.5,1.2 141.7,1.1 C142,1 142.3,1 142.6,1 L146.6,1 C146.8,1 147,1.1 147.1,1.2 C147.2,1.3 147.3,1.5 147.3,1.7 C147.3,1.9 147.2,2.1 147.1,2.3 L135.6,15.4 L141.9,27.8 C142,27.9 142,28 142,28.2 C142,28.4 141.9,28.6 141.7,28.8 C141.5,29 141.3,29 141,29 L137.4,29 C137,29 136.7,28.9 136.6,28.8 C136.4,28.7 136.3,28.5 136.2,28.3 L131.8,19.6 L123.7,28.3 C123.6,28.3 123.5,28.5 123.3,28.7 C123.1,28.9 122.7,29 122.2,29 L117.8,29 C117.4,29 117.3,28.9 117.1,28.8 Z" id="Shape"></path>
                                </g>
                            </g>
                        </g>
                        <g id="Shape">
                            <use fill="black" fill-opacity="1" filter="url(#filter-2)" xlink:href="#path-1"></use>
                            <use fill="#FFFFFF" fill-rule="evenodd" xlink:href="#path-1"></use>
                        </g>
                    </g>
                </g>
            </g>
        </g>
    </g>
</svg>