<?xml version="1.0" encoding="UTF-8"?>
<svg width="375px" height="218px" viewBox="0 0 375 218" version="1.1" xmlns="http://www.w3.org/2000/svg" xmlns:xlink="http://www.w3.org/1999/xlink">
    <!-- Generator: Sketch 42 (36781) - http://www.bohemiancoding.com/sketch -->
    <title>student-sign-up</title>
    <desc>Created with Sketch.</desc>
    <defs>
        <polygon id="path-1" points="275.582874 126.741273 0.161138298 126.741273 0.161138298 0.764478161 275.582874 0.764478161"></polygon>
    </defs>
    <g id="Cold-Sign-Up-+-Profile" stroke="none" stroke-width="1" fill="none" fill-rule="evenodd">
        <g id="student-sign-up">
            <g id="Page-1-Copy">
                <g id="ICON" transform="translate(0.000000, 0.821682)">
                    <g id="Group-3" transform="translate(97.478723, 67.690909)">
                        <mask id="mask-2" fill="white">
                            <use xlink:href="#path-1"></use>
                        </mask>
                        <g id="Clip-2"></g>
                        <path d="M136.441168,177.185932 C124.662157,177.185932 112.883147,177.199868 101.104136,177.18195 C82.0122319,177.154077 62.9183383,177.104305 43.8244447,177.068468 C36.8577,177.058514 31.3571149,170.956377 32.045434,163.988195 C32.6303064,158.099086 36.7840936,153.364705 42.5313596,152.074595 C43.1281681,151.939214 43.7568064,151.929259 44.3735085,151.921295 C48.7898915,151.841659 53.2301468,152.016859 57.6226574,151.64655 C63.6464447,151.136877 68.3254234,145.586223 68.4010191,139.370605 C68.4726362,133.29435 63.8493596,127.79745 57.9011681,126.925432 C56.9641787,126.79005 56.0092851,126.710414 55.0663277,126.710414 C34.6077319,126.700459 14.1471468,126.594941 -6.30747021,126.774123 C-11.7105766,126.821905 -18.5838213,122.071595 -18.4147255,114.348859 C-18.2774596,108.159123 -14.050066,102.994705 -7.98450213,101.712559 C-7.30612979,101.569214 -6.58995957,101.545323 -5.89368298,101.545323 C8.81963617,101.535368 23.530966,101.547314 38.2462745,101.533377 C43.6593277,101.529395 48.2487851,98.01345 49.1718489,92.7494864 C49.6075191,90.2727955 49.6095085,87.58905 49.1599128,85.1183318 C48.1851255,79.7408864 43.6195404,76.3583318 37.8324872,76.3304591 C31.6336362,76.2986045 25.4268277,76.13535 19.2379234,76.3842136 C14.3858702,76.5793227 8.08954043,72.6114409 7.0053383,65.8144773 C5.98877447,59.4575045 9.81431702,53.3951864 15.9594553,51.6272591 C17.0496255,51.3107045 18.2352851,51.2051864 19.3771787,51.2051864 C42.7283064,51.1812955 66.079434,51.19125 89.4285723,51.1832864 C95.6771574,51.1812955 100.555072,47.2452682 101.551743,41.1331773 C102.928381,32.6897318 97.8435723,27.4695682 92.066466,26.3068773 C91.1036149,26.1137591 90.0950085,26.1018136 89.1062957,26.09385 C85.7582,26.0659773 82.4120936,26.0520409 79.0639979,26.0799136 C73.1357,26.1257045 68.2577851,21.5983773 67.0462638,16.28265 C65.2518596,8.40263182 71.221934,0.787404545 79.3226149,0.783422727 C115.652338,0.75555 151.980072,0.761522727 188.307806,0.781431818 C194.920445,0.783422727 200.094774,5.63725909 200.88853,12.4342227 C201.576849,18.3034227 197.323594,24.2781409 191.313732,25.7593773 C190.16786,26.0440773 188.940423,26.0480591 187.746806,26.07195 C184.814487,26.1276955 181.874211,26.0122227 178.94786,26.1635318 C173.363721,26.4462409 168.664849,31.0970045 168.191381,36.6596045 C167.992445,38.9810045 168.004381,41.2884682 168.833945,43.5123136 C170.574636,48.1809955 174.931338,51.1773136 180.059913,51.1812955 C198.286445,51.1932409 216.512977,51.2728773 234.737519,51.1355045 C240.534519,51.0936955 246.522498,55.5792136 247.300338,62.2268591 C248.066243,68.7968591 243.848796,74.7277773 237.464934,76.17915 C236.9477,76.2946227 236.402615,76.3165227 235.869466,76.3185136 C231.447115,76.3284682 227.024764,76.2946227 222.604402,76.3304591 C216.421466,76.3802318 211.448062,79.9997045 209.914264,85.5025773 C207.662306,93.5856682 213.642328,101.511477 222.065285,101.529395 C235.785913,101.56125 249.50853,101.53935 263.227168,101.53935 C270.735019,101.53935 276.339051,107.842568 275.49954,115.342323 C274.851009,121.141841 271.246285,125.34465 265.855115,126.539195 C265.21653,126.68055 264.544126,126.696477 263.885647,126.696477 C247.891179,126.704441 231.8987,126.686523 215.904232,126.708423 C208.625157,126.720368 202.848051,132.760786 203.216083,139.884259 C203.566211,146.667286 209.060828,151.823741 216.091232,151.905368 C220.390243,151.95315 224.6992,152.116405 228.984285,151.861568 C234.311796,151.547005 239.806413,155.871259 240.739423,161.407977 C241.5292,166.108514 240.876689,170.492495 237.148626,173.934777 C234.936455,175.97745 232.362221,177.080414 229.304572,177.076432 C214.093913,177.058514 198.887232,177.066477 183.676572,177.066477 L136.441168,177.066477 L136.441168,177.185932 Z" id="Fill-1" fill="#FFFFFF" opacity="0.3" mask="url(#mask-2)"></path>
                    </g>
                    <path d="M247.400602,151.269273 C243.117506,151.524109 238.808549,151.360855 234.509538,151.311082 C227.477145,151.229455 221.984517,146.073 221.634389,139.289973 C221.264368,132.1665 227.043464,126.128073 234.322538,126.116127 C247.806432,126.096218 261.290326,126.106173 274.776209,126.104182 C266.816772,120.698864 264.11323,109.9818 266.661602,100.943073 C257.934272,100.947055 249.208932,100.957009 240.481602,100.9371 C232.058645,100.917191 226.078623,92.9913818 228.330581,84.9102818 C229.866368,79.4034273 234.839772,75.7879364 241.020719,75.7381636 C245.44307,75.7023273 249.863432,75.7361727 254.287772,75.7242273 C254.818932,75.7242273 255.367996,75.7023273 255.88324,75.5828727 C262.267102,74.1354818 266.484549,68.2025727 265.716655,61.6345636 C264.938815,54.9849273 258.952826,50.4994091 253.155826,50.5432091 C234.929294,50.6785909 216.702762,50.6009455 198.47623,50.589 C193.347655,50.5850182 188.992943,47.5887 187.252251,42.9200182 C186.422687,40.6961727 186.410751,38.3887091 186.607698,36.0673091 C187.083155,30.5027182 191.780038,25.8539455 197.366166,25.5692455 C200.290528,25.4199273 203.232794,25.5354 206.163123,25.4776636 C207.35674,25.4557636 208.584177,25.4497909 209.730049,25.1670818 C215.7419,23.6838545 219.995155,17.7111273 219.306836,11.8419273 C218.513081,5.04496364 213.338751,0.189136364 206.726113,0.187145455 C170.396389,0.167236364 134.068655,0.161263636 97.7409213,0.187145455 C89.6382511,0.195109091 83.6681766,7.80834545 85.4645702,15.6863727 C86.6760915,21.0021 91.552017,25.5334091 97.4823043,25.4856273 C100.828411,25.4597455 104.176506,25.4716909 107.524602,25.5015545 C108.513315,25.5095182 109.519932,25.5194727 110.484772,25.7145818 C116.259889,26.8772727 121.346687,32.0974364 119.96806,40.5408818 C118.973379,46.6529727 114.093474,50.5870091 107.846879,50.5909909 C84.4957511,50.5969636 61.1446234,50.5870091 37.7954851,50.6089091 C36.6516021,50.6109 35.4679319,50.7184091 34.3757723,51.0329727 C28.230634,52.8028909 24.4050915,58.8652091 25.4216553,65.2201909 C26.5078468,72.0171545 32.8041766,75.9850364 37.6542404,75.7899273 C43.845134,75.5410636 50.0519426,75.7063091 56.2507936,75.7381636 C62.0358574,75.7660364 66.6014426,79.1466 67.5762298,84.5240455 C68.0258255,86.9967545 68.0238362,89.6785091 67.588166,92.1552 C66.6651021,97.4191636 62.077634,100.9371 56.6625915,100.941082 C41.9492723,100.953027 27.2359532,100.943073 12.5246234,100.953027 C11.8263574,100.953027 11.1121766,100.974927 10.4338043,101.120264 C4.36625106,102.402409 0.138857447,107.564836 0.00358085107,113.754573 C-0.165514894,121.477309 6.70772979,126.227618 12.1108362,126.179836 C32.5674426,126.002645 53.0240489,126.104182 73.4826447,126.118118 C74.4275915,126.118118 75.3804957,126.193773 76.3174851,126.333136 C82.2656766,127.203164 86.8909426,132.700064 86.8173362,138.778309 C86.7437298,144.991936 82.0647511,150.544582 76.0389745,151.054255 C71.6464638,151.424564 67.2081979,151.245382 62.7898255,151.325018 C62.1751128,151.336964 61.5444851,151.346918 60.9476766,151.480309 C55.2024,152.770418 51.0486128,157.506791 50.4637404,163.393909 C49.7734319,170.362091 55.2760064,176.462236 62.2427511,176.476173 C81.3346553,176.512009 100.428549,176.561782 119.522443,176.589655 C131.301453,176.607573 143.080464,176.591645 154.857485,176.591645 L154.857485,176.474182 L202.094879,176.474182 C217.303549,176.474182 232.512219,176.462236 247.720889,176.484136 C250.778538,176.488118 253.352772,175.383164 255.564943,173.340491 C259.294996,169.898209 259.947506,165.514227 259.15574,160.813691 C258.22273,155.276973 252.730102,150.954709 247.400602,151.269273" id="Fill-4" fill="#FFFFFF" opacity="0.3"></path>
                    <path d="M223.664135,189.971351 C220.316039,189.999224 216.969933,189.983296 213.621837,189.955424 C212.633124,189.94746 211.624518,189.935515 210.663656,189.744387 C205.38588,188.683233 200.702922,184.225587 200.977454,177.028451 C199.700284,176.815424 198.423114,176.594433 197.145944,176.389369 C189.216348,175.109215 181.340465,173.550333 173.488454,171.877969 C163.159688,171.873987 152.822965,171.692815 142.42855,171.802315 C139.526071,171.834169 136.607678,171.937696 133.681327,172.073078 C133.748965,172.23036 133.836497,172.373705 133.896178,172.53696 C134.725741,174.760805 134.735688,177.068269 134.536752,179.39166 C134.063284,184.952269 129.36839,189.603033 123.782263,189.887733 C120.853922,190.03506 117.915635,189.923569 114.981327,189.979315 C113.789699,190.003205 112.560273,190.007187 111.414401,190.287905 C105.406529,191.771133 101.153273,197.745851 101.839603,203.615051 C102.635348,210.414005 107.809678,215.265851 114.422316,215.269833 C150.75005,215.289742 187.077784,215.295715 223.405518,215.267842 C231.506199,215.261869 237.478263,207.648633 235.681869,199.768615 C234.472337,194.452887 229.592433,189.92556 223.664135,189.971351" id="Fill-6" fill="#FFFFFF" opacity="0.3"></path>
                    <polygon id="Fill-8" fill="#4C4C4C" points="101.485298 166.5276 281.156489 166.5276 281.156489 56.1615545 101.485298 56.1615545"></polygon>
                    <path d="M106.000751,193.183882 C102.0459,193.183882 85.078634,187.129527 85.078634,183.169609 L84.7762511,174.556936 C84.7762511,170.599009 87.9811128,167.391655 91.9379532,167.391655 L287.7369,167.391655 C291.69374,167.391655 295.65456,168.6738 294.898602,174.556936 L293.989464,183.776836 C293.989464,187.734764 288.242198,192.576655 284.287347,192.576655 L106.000751,193.183882 Z" id="Fill-10" fill="#E0E0E0"></path>
                    <path d="M270.478391,37.6182273 L117.355232,37.0966091 C113.957402,37.0966091 99.387317,42.2988545 99.387317,45.6973364 L99.1267106,53.0935636 C99.1267106,56.4920455 101.879987,59.2494545 105.277817,59.2494545 L273.44254,59.2494545 C276.838381,59.2494545 279.593647,56.4920455 279.593647,53.0935636 L278.809838,45.1757182 C278.809838,41.7772364 273.876221,37.6182273 270.478391,37.6182273" id="Fill-12" fill="#E0E0E0"></path>
                    <path d="M278.589218,56.16255 C278.609112,55.9734136 278.638952,55.8141409 278.638952,55.6548682 C278.642931,54.1238591 278.680729,52.5888682 278.632984,51.0578591 C278.539484,47.8903227 277.256346,45.2961682 274.729856,43.3649864 C272.828027,41.9156045 270.641718,41.3979682 268.270399,41.3979682 C216.131218,41.4099136 163.994027,41.4059318 111.854846,41.4059318 C111.711612,41.4059318 111.566388,41.4039409 111.423154,41.4079227 C106.827729,41.4955227 103.211069,44.1474136 101.908037,48.3721227 C101.452473,49.8414136 101.472367,51.3525136 101.482314,52.8656045 C101.490271,53.9566227 101.484303,55.04565 101.484303,56.16255 L278.589218,56.16255 Z M293.382112,169.493059 L86.7471117,169.493059 C86.7471117,172.23255 86.7411436,174.920277 86.7530798,177.611986 C86.7550691,178.022114 86.8227074,178.436223 86.8943245,178.842368 C88.0183138,185.052014 92.9280585,189.143332 99.2442819,189.143332 L280.910803,189.143332 C281.056027,189.143332 281.199261,189.145323 281.346473,189.143332 C286.367622,189.097541 290.935197,185.862314 292.63809,181.159786 C293.173229,179.682532 293.403995,178.165459 293.38609,176.594632 C293.362218,174.237395 293.382112,171.880159 293.382112,169.493059 L293.382112,169.493059 Z M101.528069,164.513795 L278.597176,164.513795 L278.597176,61.13385 L101.528069,61.13385 L101.528069,164.513795 Z M283.57058,164.535695 L284.368314,164.535695 C288.092399,164.535695 291.818473,164.533705 295.544548,164.535695 C297.370782,164.537686 298.329654,165.499295 298.327665,167.340886 C298.323686,170.739368 298.399282,174.13785 298.291856,177.53235 C298.029261,185.971814 291.462378,193.01565 283.079207,193.941423 C282.277495,194.031014 281.469814,194.068841 280.664122,194.068841 C220.26909,194.074814 159.87008,194.056895 99.4750479,194.094723 C91.4877606,194.100695 84.9109309,189.097541 82.6490266,182.165195 C82.0581862,180.35745 81.8055372,178.499932 81.7995691,176.606577 C81.7916117,173.562477 81.8453245,170.516386 81.7816649,167.472286 C81.743867,165.602823 83.0707713,164.471986 84.7378564,164.509814 C88.3982819,164.58945 92.0626862,164.535695 95.7270904,164.535695 L96.5765479,164.535695 L96.5765479,163.528295 L96.5765479,51.4839136 C96.5765479,43.89855 101.766793,37.8163227 109.266686,36.6337227 C109.919197,36.5321864 110.585633,36.4824136 111.244112,36.4824136 C163.79708,36.47445 216.348059,36.47445 268.901027,36.4764409 C276.231824,36.4764409 282.629612,42.1843773 283.435303,49.4531864 C283.526814,50.29335 283.564612,51.1434682 283.564612,51.9915955 C283.57058,89.1957136 283.57058,126.397841 283.57058,163.599968 L283.57058,164.535695 Z" id="Fill-14" fill="#A4A4A4"></path>
                    <polygon id="Fill-16" fill="#FFFFFF" points="260.729723 164.497868 121.695223 164.497868 121.695223 18.8648591 124.798628 16.8878864 128.182532 14.6321864 254.524904 14.6321864 258.191298 16.8878864 260.729723 19.7109955"></polygon>
                    <path d="M264.482853,26.2901536 C264.482853,25.4440173 264.445055,24.5919082 264.353545,23.7517445 C263.547853,16.4849264 257.150066,10.7749991 249.819268,10.7749991 C197.228502,10.7749991 184.538364,10.7749991 131.949587,10.7809718 C131.291109,10.7809718 130.624672,10.8307445 129.972162,10.9342718 C122.472268,12.1148809 117.282023,18.1971082 117.282023,25.7844627 L117.282023,164.511008 C118.933194,164.507026 120.584364,164.507026 122.233545,164.505035 L122.233545,35.4324082 L122.189779,30.4611082 C122.189779,29.3461991 122.195747,28.2551809 122.187789,27.1641627 C122.177843,25.6510718 122.157949,24.1399718 122.613513,22.6706809 C123.916545,18.4459718 127.533204,15.7940809 132.12863,15.7064809 C184.701491,15.70449 197.051449,15.7084718 249.18864,15.6965264 C251.55996,15.6965264 253.746268,16.2141627 255.648098,17.6635445 C258.174587,19.5947264 259.457726,22.1888809 259.553215,25.3564173 C259.59897,26.8874264 259.561172,28.4224173 259.557194,29.9534264 C259.557194,30.1126991 259.527353,30.2719718 259.50746,30.4611082 L259.515417,35.4324082 L259.515417,164.530917 C261.172555,164.487117 262.829694,164.568745 264.486832,164.530917 C264.486832,131.975572 264.488821,58.8454991 264.482853,26.2901536 Z" id="Fill-18" fill="#464646"></path>
                    <path d="M152.921438,38.2268482 C153.434694,38.2268482 153.824609,38.09943 154.093172,37.8426027 C154.361736,37.5857755 154.497013,37.2294027 154.497013,36.7754755 C154.497013,36.3215482 154.361736,35.9572118 154.093172,35.6824664 C153.824609,35.4077209 153.434694,35.2703482 152.921438,35.2703482 L150.934066,35.2703482 L150.934066,38.2268482 L152.921438,38.2268482 Z M147.701353,45.0974755 C147.611832,45.0078845 147.568066,44.9043573 147.568066,44.7849027 L147.568066,33.1560027 C147.568066,33.0246027 147.607853,32.9131118 147.691406,32.8235209 C147.77496,32.73393 147.884374,32.69013 148.013683,32.69013 L152.939343,32.69013 C154.514917,32.69013 155.746332,33.0465027 156.635577,33.7652209 C157.522832,34.4819482 157.968449,35.4913391 157.968449,36.7933936 C157.968449,37.6295755 157.773491,38.34033 157.387555,38.9256573 C156.99963,39.5109845 156.464491,39.9649118 155.78413,40.2874391 L158.201204,44.6574845 C158.239002,44.7311482 158.256906,44.7968482 158.256906,44.8565755 C158.256906,44.9521391 158.219109,45.0377482 158.149481,45.1153936 C158.077864,45.1930391 157.988343,45.2328573 157.878928,45.2328573 L155.356417,45.2328573 C155.010268,45.2328573 154.765577,45.0715936 154.620353,44.7470755 L152.650885,40.8608209 L150.934066,40.8608209 L150.934066,44.7849027 C150.934066,44.9163027 150.8903,45.0238118 150.798789,45.10743 C150.709268,45.1910482 150.597864,45.2328573 150.468555,45.2328573 L148.013683,45.2328573 C147.896311,45.2328573 147.790874,45.1870664 147.701353,45.0974755 L147.701353,45.0974755 Z" id="Fill-20" fill="#4C4C4C"></path>
                    <path d="M162.831245,45.0976745 C162.739734,45.0080836 162.695968,44.9025655 162.695968,44.7851018 L162.695968,33.1562018 C162.695968,33.0248018 162.737745,32.9133109 162.821298,32.82372 C162.904851,32.7341291 163.012277,32.6903291 163.143574,32.6903291 L171.594383,32.6903291 C171.725681,32.6903291 171.835096,32.7341291 171.924617,32.82372 C172.014138,32.9133109 172.059894,33.0248018 172.059894,33.1562018 L172.059894,34.9301018 C172.059894,35.0615018 172.014138,35.1690109 171.924617,35.2526291 C171.835096,35.3362473 171.725681,35.3760655 171.594383,35.3760655 L165.938628,35.3760655 L165.938628,37.6536655 L171.200489,37.6536655 C171.331787,37.6536655 171.441202,37.6974655 171.532713,37.7870564 C171.622234,37.8766473 171.666,37.9881382 171.666,38.1175473 L171.666,39.7481018 C171.666,39.8814927 171.622234,39.9929836 171.532713,40.0805836 C171.441202,40.1701745 171.331787,40.2159655 171.200489,40.2159655 L165.938628,40.2159655 L165.938628,42.5453291 L171.739606,42.5453291 C171.868915,42.5453291 171.980319,42.5891291 172.06984,42.67872 C172.157372,42.7683109 172.203128,42.8798018 172.203128,43.0092109 L172.203128,44.7851018 C172.203128,44.9165018 172.157372,45.0240109 172.06984,45.1076291 C171.980319,45.1912473 171.868915,45.2310655 171.739606,45.2310655 L163.143574,45.2310655 C163.024213,45.2310655 162.920766,45.1872655 162.831245,45.0976745" id="Fill-22" fill="#4C4C4C"></path>
                    <path d="M178.666564,44.9091355 C177.854904,44.5746627 177.240191,44.1326809 176.822426,43.58319 C176.40466,43.03569 176.18384,42.4384173 176.159968,41.7933627 C176.159968,41.6838627 176.199755,41.5942718 176.27734,41.52459 C176.354926,41.4529173 176.446436,41.41509 176.553862,41.41509 L178.935128,41.41509 C179.078362,41.41509 179.195734,41.4409718 179.285255,41.4867627 C179.372787,41.5365355 179.472255,41.6201536 179.579681,41.7376173 C179.734851,42.0262991 179.975564,42.2612264 180.303809,42.4463809 C180.632053,42.6295445 181.071702,42.7231173 181.620766,42.7231173 C182.265319,42.7231173 182.76067,42.6255627 183.106819,42.4284627 C183.452968,42.2313627 183.626043,41.9605991 183.626043,41.6141809 C183.626043,41.3633264 183.536521,41.1562718 183.357479,40.9950082 C183.178436,40.8337445 182.891968,40.6903991 182.498074,40.5629809 C182.10617,40.4395445 181.537213,40.3001809 180.79717,40.1428991 C179.352894,39.8562082 178.27267,39.4201991 177.5565,38.8348718 C176.84033,38.2495445 176.482245,37.4133627 176.482245,36.3263264 C176.482245,35.5857082 176.689138,34.9267173 177.100936,34.3473627 C177.512734,33.7680082 178.097606,33.3180627 178.855553,32.9955355 C179.6135,32.6730082 180.492798,32.5097536 181.495436,32.5097536 C182.545819,32.5097536 183.454957,32.6929173 184.22683,33.0572536 C184.996713,33.4195991 185.587553,33.8755173 185.999351,34.4170445 C186.411149,34.9625536 186.627989,35.4961173 186.651862,36.0217173 C186.651862,36.1312173 186.616053,36.2227991 186.544436,36.3004445 C186.472819,36.37809 186.383298,36.4159173 186.275872,36.4159173 L183.769277,36.4159173 C183.506681,36.4159173 183.303766,36.3103991 183.160532,36.09339 C183.088915,35.8425355 182.903904,35.6314991 182.6055,35.45829 C182.307096,35.2850809 181.937074,35.1974809 181.495436,35.1974809 C180.994117,35.1974809 180.606191,35.2870718 180.33166,35.4682445 C180.057128,35.6474264 179.919862,35.9082355 179.919862,36.2546536 C179.919862,36.6010718 180.098904,36.8738264 180.456989,37.0689355 C180.815074,37.2680264 181.4835,37.4691082 182.462266,37.67019 C183.584266,37.8752536 184.477489,38.1280991 185.139947,38.4327082 C185.802404,38.7353264 186.289798,39.1315173 186.606106,39.6153082 C186.922415,40.0990991 187.081564,40.7122991 187.081564,41.4529173 C187.081564,42.2652082 186.848809,42.9679991 186.383298,43.5652718 C185.919777,44.1625445 185.273234,44.6184627 184.449638,44.9370082 C183.626043,45.2535627 182.683085,45.4108445 181.620766,45.4108445 C180.462957,45.4108445 179.478223,45.2436082 178.666564,44.9091355" id="Fill-24" fill="#4C4C4C"></path>
                    <path d="M192.819281,44.1760827 C191.858419,43.3518464 191.376994,42.1154918 191.376994,40.4670191 L191.376994,33.1564009 C191.376994,33.02301 191.41877,32.91351 191.502323,32.8239191 C191.585877,32.7343282 191.693302,32.6885373 191.8246,32.6885373 L194.277483,32.6885373 C194.408781,32.6885373 194.518196,32.7343282 194.607717,32.8239191 C194.697238,32.91351 194.742994,33.02301 194.742994,33.1564009 L194.742994,40.4291918 C194.742994,41.16981 194.920047,41.7272645 195.270174,42.0955827 C195.622291,42.4678827 196.127589,42.6510464 196.784079,42.6510464 C197.440568,42.6510464 197.943877,42.4639009 198.297983,42.0876191 C198.6501,41.7113373 198.825164,41.1578645 198.825164,40.4291918 L198.825164,33.1564009 C198.825164,33.02301 198.870919,32.91351 198.96044,32.8239191 C199.049962,32.7343282 199.159377,32.6885373 199.290674,32.6885373 L201.725653,32.6885373 C201.856951,32.6885373 201.968355,32.7343282 202.057877,32.8239191 C202.145409,32.91351 202.191164,33.02301 202.191164,33.1564009 L202.191164,40.4670191 C202.191164,42.1154918 201.713717,43.3518464 200.758823,44.1760827 C199.80393,44.9983282 198.484983,45.4104464 196.801983,45.4104464 C195.107047,45.4104464 193.778153,44.9983282 192.819281,44.1760827" id="Fill-26" fill="#4C4C4C"></path>
                    <path d="M207.339433,45.10743 C207.247922,45.0238118 207.204156,44.9163027 207.204156,44.7849027 L207.204156,33.1560027 C207.204156,33.0246027 207.247922,32.9131118 207.339433,32.8235209 C207.428954,32.73393 207.538369,32.69013 207.669667,32.69013 L209.692848,32.69013 C209.991252,32.69013 210.206103,32.82153 210.337401,33.08433 L213.416933,38.6011391 L216.514369,33.08433 C216.645667,32.82153 216.860518,32.69013 217.160912,32.69013 L219.182103,32.69013 C219.313401,32.69013 219.422816,32.73393 219.512337,32.8235209 C219.603848,32.9131118 219.647614,33.0246027 219.647614,33.1560027 L219.647614,44.7849027 C219.647614,44.9163027 219.603848,45.0238118 219.512337,45.10743 C219.422816,45.1910482 219.313401,45.2308664 219.182103,45.2308664 L216.910252,45.2308664 C216.788901,45.2308664 216.683465,45.1870664 216.593944,45.0974755 C216.504422,45.0078845 216.460656,44.9023664 216.460656,44.7849027 L216.460656,38.2626845 L214.526997,41.8104845 C214.371827,42.0832391 214.162944,42.2226027 213.900348,42.2226027 L212.935507,42.2226027 C212.694795,42.2226027 212.485912,42.0832391 212.306869,41.8104845 L210.391114,38.2626845 L210.391114,44.7849027 C210.391114,44.9163027 210.347348,45.0238118 210.257827,45.10743 C210.168305,45.1910482 210.056901,45.2308664 209.925603,45.2308664 L207.669667,45.2308664 C207.538369,45.2308664 207.428954,45.1910482 207.339433,45.10743" id="Fill-28" fill="#4C4C4C"></path>
                    <path d="M224.76843,44.7851018 L224.76843,33.1562018 C224.76843,33.0248018 224.810206,32.9133109 224.89376,32.82372 C224.977313,32.7341291 225.084738,32.6903291 225.216036,32.6903291 L233.666845,32.6903291 C233.798143,32.6903291 233.907557,32.7341291 233.997079,32.82372 C234.0866,32.9133109 234.132355,33.0248018 234.132355,33.1562018 L234.132355,34.9301018 C234.132355,35.0615018 234.0866,35.1690109 233.997079,35.2526291 C233.907557,35.3362473 233.798143,35.3760655 233.666845,35.3760655 L228.011089,35.3760655 L228.011089,37.6536655 L233.272951,37.6536655 C233.404249,37.6536655 233.513664,37.6974655 233.605174,37.7870564 C233.694696,37.8766473 233.738462,37.9881382 233.738462,38.1175473 L233.738462,39.7481018 C233.738462,39.8814927 233.694696,39.9929836 233.605174,40.0805836 C233.513664,40.1701745 233.404249,40.2159655 233.272951,40.2159655 L228.011089,40.2159655 L228.011089,42.5453291 L233.812068,42.5453291 C233.941377,42.5453291 234.052781,42.5891291 234.142302,42.67872 C234.229834,42.7683109 234.275589,42.8798018 234.275589,43.0092109 L234.275589,44.7851018 C234.275589,44.9165018 234.229834,45.0240109 234.142302,45.1076291 C234.052781,45.1912473 233.941377,45.2310655 233.812068,45.2310655 L225.216036,45.2310655 C225.096674,45.2310655 224.993228,45.1872655 224.903706,45.0976745 C224.812196,45.0080836 224.76843,44.9025655 224.76843,44.7851018 Z" id="Fill-30" fill="#4C4C4C"></path>
                    <polygon id="Fill-32" fill="#99B5C4" opacity="0.3" points="134.832968 164.174345 172.248883 164.174345 172.248883 91.9421727 134.832968 91.9421727"></polygon>
                    <polygon id="Fill-34" fill="#99B5C4" opacity="0.3" points="134.836947 87.6139364 172.242915 87.6139364 172.242915 58.6422273 134.836947 58.6422273"></polygon>
                    <polygon id="Fill-36" fill-opacity="0.304517663" fill="#99B5C4" points="178.041904 87.6139364 247.333362 87.6139364 247.333362 58.6422273 178.041904 58.6422273"></polygon>
                    <polygon id="Fill-38" fill="#99B5C4" opacity="0.3" points="178.041904 97.1046 247.333362 97.1046 247.333362 91.8525818 178.041904 91.8525818"></polygon>
                    <polygon id="Fill-40" fill="#99B5C4" opacity="0.3" points="178.041904 123.376636 247.333362 123.376636 247.333362 118.124618 178.041904 118.124618"></polygon>
                    <polygon id="Fill-42" fill="#99B5C4" opacity="0.3" points="178.041904 104.070791 247.333362 104.070791 247.333362 98.8187727 178.041904 98.8187727"></polygon>
                    <polygon id="Fill-44" fill="#99B5C4" opacity="0.3" points="178.041904 135.594845 247.333362 135.594845 247.333362 130.342827 178.041904 130.342827"></polygon>
                    <polygon id="Fill-46" fill="#99B5C4" opacity="0.3" points="178.041904 142.561036 237.941585 142.561036 237.941585 137.309018 178.041904 137.309018"></polygon>
                    <polygon id="Fill-48" fill="#99B5C4" opacity="0.3" points="178.039915 111.034991 202.280287 111.034991 202.280287 105.784964 178.039915 105.784964"></polygon>
                    <polygon id="Fill-50" fill="#99B5C4" opacity="0.3" points="178.041904 154.2855 247.333362 154.2855 247.333362 149.035473 178.041904 149.035473"></polygon>
                    <polygon id="Fill-52" fill="#99B5C4" opacity="0.3" points="178.041904 161.251691 247.333362 161.251691 247.333362 156.001664 178.041904 156.001664"></polygon>
                    <polygon id="Fill-54" fill="#99B5C4" opacity="0.3" points="178.041904 164.6223 247.229915 164.6223 247.229915 162.965864 178.041904 162.965864"></polygon>
                    <path d="M332.12513,81.7041218 C332.12513,88.6265127 326.519109,94.2368945 319.600109,94.2368945 C312.685087,94.2368945 307.077077,88.6265127 307.077077,81.7041218 C307.077077,74.7817309 312.685087,69.1713491 319.600109,69.1713491 C326.519109,69.1713491 332.12513,74.7817309 332.12513,81.7041218" id="Fill-56" fill="#FFFFFF" opacity="0.3"></path>
                    <path d="M42.847867,164.768035 C42.847867,171.690425 37.2418457,177.300807 30.3248351,177.300807 C23.4098138,177.300807 17.8018032,171.690425 17.8018032,164.768035 C17.8018032,157.845644 23.4098138,152.235262 30.3248351,152.235262 C37.2418457,152.235262 42.847867,157.845644 42.847867,164.768035" id="Fill-58" fill="#FFFFFF" opacity="0.3"></path>
                </g>
            </g>
        </g>
    </g>
</svg>