<?xml version="1.0" encoding="UTF-8"?>
<svg width="34px" height="34px" viewBox="0 0 34 34" version="1.1" xmlns="http://www.w3.org/2000/svg" xmlns:xlink="http://www.w3.org/1999/xlink">
    <!-- Generator: Sketch 42 (36781) - http://www.bohemiancoding.com/sketch -->
    <title>up</title>
    <desc>Created with Sketch.</desc>
    <defs>
        <polygon id="path-1" points="0 10.8777308 0 0.000126923078 14.8125 0.000126923078 14.8125 10.8777308 3.57535597e-16 10.8777308"></polygon>
    </defs>
    <g id="Cold-Sign-Up-+-Profile" stroke="none" stroke-width="1" fill="none" fill-rule="evenodd">
        <g id="up">
            <g id="Group-16" transform="translate(1.000000, 1.000000)">
                <circle id="Oval" stroke="#FBFEFB" fill="#7ED97A" cx="16" cy="16" r="16"></circle>
                <g id="Page-1" transform="translate(9.000000, 10.000000)">
                    <mask id="mask-2" fill="white">
                        <use xlink:href="#path-1"></use>
                    </mask>
                    <g id="Clip-2"></g>
                    <path d="M7.41432353,0 C7.43108824,0.0215769231 7.44211765,0.0410384615 7.458,0.0558461538 C9.88932353,2.38826923 12.3210882,4.71984615 14.7537353,7.05142308 C14.7947647,7.09034615 14.8128529,7.12926923 14.8128529,7.18511538 C14.8110882,8.38707692 14.8115294,9.58903846 14.8115294,10.791 L14.8115294,10.8658846 C12.3427059,8.49876923 9.88005882,6.13673077 7.41432353,3.77215385 C4.93932353,6.14561538 2.47667647,8.50723077 0.00476470588,10.8777308 C0.00255882353,10.8476923 -8.82352961e-05,10.8295 -8.82352961e-05,10.8117308 C-8.82352961e-05,9.59496154 -0.000529411767,8.37776923 0.00167647059,7.161 C0.00167647059,7.12969231 0.0197647059,7.09076923 0.0431470588,7.06834615 C2.48020588,4.72873077 4.91902941,2.38996154 7.35741176,0.0520384615 C7.37108824,0.0385 7.38608824,0.0258076923 7.41432353,0" id="Fill-1" fill="#FFFFFF" mask="url(#mask-2)"></path>
                </g>
            </g>
        </g>
    </g>
</svg>